<mxfile host="app.diagrams.net" modified="2023-06-23T02:45:03.243Z" agent="Mozilla/5.0 (Macintosh; Intel Mac OS X 10_15_7) AppleWebKit/537.36 (KHTML, like Gecko) Chrome/114.0.0.0 Safari/537.36" etag="CfLSXq4tDZ9eznjUntxK" version="21.3.7" type="device" pages="10">
  <diagram id="DEMv4WJ_T1V0zAcS2LcA" name="characteristic feature">
    <mxGraphModel dx="1306" dy="828" grid="1" gridSize="10" guides="1" tooltips="1" connect="1" arrows="1" fold="1" page="1" pageScale="1" pageWidth="827" pageHeight="1169" math="1" shadow="0">
      <root>
        <mxCell id="0" />
        <mxCell id="1" parent="0" />
        <mxCell id="6cwKb4Ox6WpdyhgPQVM5-7" value="" style="ellipse;whiteSpace=wrap;html=1;aspect=fixed;fillColor=#4D4D4D;strokeColor=#000000;fontColor=#ffffff;strokeWidth=2;" vertex="1" parent="1">
          <mxGeometry x="520" y="180" width="70" height="70" as="geometry" />
        </mxCell>
        <mxCell id="mWab_-8N9wXFLHfZuCKQ-10" style="edgeStyle=orthogonalEdgeStyle;rounded=0;orthogonalLoop=1;jettySize=auto;html=1;strokeWidth=2;strokeColor=#4D4D4D;" parent="1" edge="1">
          <mxGeometry relative="1" as="geometry">
            <mxPoint x="240" y="200" as="sourcePoint" />
            <mxPoint x="370" y="200" as="targetPoint" />
          </mxGeometry>
        </mxCell>
        <mxCell id="cnYQU-IL9enpyJjohNxl-21" value="" style="ellipse;whiteSpace=wrap;html=1;aspect=fixed;fillColor=#4D4D4D;strokeColor=#000000;fontColor=#ffffff;strokeWidth=2;" parent="1" vertex="1">
          <mxGeometry x="136" y="170" width="70" height="70" as="geometry" />
        </mxCell>
        <mxCell id="6cwKb4Ox6WpdyhgPQVM5-1" value="" style="edgeStyle=orthogonalEdgeStyle;rounded=0;orthogonalLoop=1;jettySize=auto;html=1;entryX=0.5;entryY=0;entryDx=0;entryDy=0;" edge="1" parent="1" source="cnYQU-IL9enpyJjohNxl-22" target="t5-vEzU89gaLV2OtlJ7F-1">
          <mxGeometry relative="1" as="geometry" />
        </mxCell>
        <mxCell id="cnYQU-IL9enpyJjohNxl-22" value="" style="ellipse;whiteSpace=wrap;html=1;aspect=fixed;fillColor=#999999;strokeColor=#000000;strokeWidth=2;" parent="1" vertex="1">
          <mxGeometry x="146" y="180" width="50" height="50" as="geometry" />
        </mxCell>
        <mxCell id="cnYQU-IL9enpyJjohNxl-23" style="edgeStyle=orthogonalEdgeStyle;rounded=0;orthogonalLoop=1;jettySize=auto;html=1;entryX=0.5;entryY=1;entryDx=0;entryDy=0;strokeWidth=2;strokeColor=#4D4D4D;" parent="1" source="cnYQU-IL9enpyJjohNxl-24" target="cnYQU-IL9enpyJjohNxl-21" edge="1">
          <mxGeometry relative="1" as="geometry">
            <Array as="points">
              <mxPoint x="170" y="265" />
              <mxPoint x="170" y="250" />
            </Array>
          </mxGeometry>
        </mxCell>
        <mxCell id="cnYQU-IL9enpyJjohNxl-24" value="" style="ellipse;whiteSpace=wrap;html=1;aspect=fixed;fillColor=#d5e8d4;strokeColor=#82B366;strokeWidth=2;" parent="1" vertex="1">
          <mxGeometry x="60" y="240" width="50" height="50" as="geometry" />
        </mxCell>
        <mxCell id="xVmOhVBuHYHWlE-PeX73-16" style="edgeStyle=orthogonalEdgeStyle;rounded=0;orthogonalLoop=1;jettySize=auto;html=1;entryX=0;entryY=0;entryDx=0;entryDy=0;strokeWidth=2;strokeColor=#4D4D4D;" parent="1" source="cnYQU-IL9enpyJjohNxl-26" target="cnYQU-IL9enpyJjohNxl-21" edge="1">
          <mxGeometry relative="1" as="geometry" />
        </mxCell>
        <mxCell id="cnYQU-IL9enpyJjohNxl-26" value="" style="ellipse;whiteSpace=wrap;html=1;aspect=fixed;fillColor=#dae8fc;strokeColor=#6C8EBF;strokeWidth=2;" parent="1" vertex="1">
          <mxGeometry x="50" y="120" width="50" height="50" as="geometry" />
        </mxCell>
        <mxCell id="cnYQU-IL9enpyJjohNxl-42" style="edgeStyle=orthogonalEdgeStyle;rounded=0;orthogonalLoop=1;jettySize=auto;html=1;entryX=0.5;entryY=0;entryDx=0;entryDy=0;strokeWidth=2;strokeColor=#4D4D4D;" parent="1" source="cnYQU-IL9enpyJjohNxl-28" target="cnYQU-IL9enpyJjohNxl-21" edge="1">
          <mxGeometry relative="1" as="geometry" />
        </mxCell>
        <mxCell id="cnYQU-IL9enpyJjohNxl-28" value="" style="ellipse;whiteSpace=wrap;html=1;aspect=fixed;fillColor=#dae8fc;strokeColor=#6C8EBF;strokeWidth=2;" parent="1" vertex="1">
          <mxGeometry x="220" y="120" width="50" height="50" as="geometry" />
        </mxCell>
        <mxCell id="cnYQU-IL9enpyJjohNxl-29" style="edgeStyle=orthogonalEdgeStyle;rounded=0;orthogonalLoop=1;jettySize=auto;html=1;entryX=0;entryY=0.5;entryDx=0;entryDy=0;strokeWidth=2;strokeColor=#4D4D4D;" parent="1" source="cnYQU-IL9enpyJjohNxl-30" target="cnYQU-IL9enpyJjohNxl-21" edge="1">
          <mxGeometry relative="1" as="geometry" />
        </mxCell>
        <mxCell id="cnYQU-IL9enpyJjohNxl-30" value="" style="ellipse;whiteSpace=wrap;html=1;aspect=fixed;fillColor=#dae8fc;strokeColor=#6C8EBF;strokeWidth=2;" parent="1" vertex="1">
          <mxGeometry x="20" y="180" width="50" height="50" as="geometry" />
        </mxCell>
        <mxCell id="cnYQU-IL9enpyJjohNxl-33" value="" style="ellipse;whiteSpace=wrap;html=1;aspect=fixed;fillColor=#f8cecc;strokeColor=#B85450;strokeWidth=2;" parent="1" vertex="1">
          <mxGeometry x="620" y="250" width="50" height="50" as="geometry" />
        </mxCell>
        <mxCell id="cnYQU-IL9enpyJjohNxl-34" value="" style="endArrow=none;html=1;rounded=0;strokeWidth=3;dashed=1;strokeColor=#4D4D4D;" parent="1" edge="1">
          <mxGeometry width="50" height="50" relative="1" as="geometry">
            <mxPoint x="510" y="300" as="sourcePoint" />
            <mxPoint x="510" y="120" as="targetPoint" />
          </mxGeometry>
        </mxCell>
        <mxCell id="cnYQU-IL9enpyJjohNxl-35" value="&lt;font style=&quot;font-size: 14px;&quot;&gt;TARGET&lt;/font&gt;" style="text;html=1;strokeColor=none;fillColor=none;align=center;verticalAlign=middle;whiteSpace=wrap;rounded=0;fontSize=22;" parent="1" vertex="1">
          <mxGeometry x="660" y="140" width="93.5" height="20" as="geometry" />
        </mxCell>
        <mxCell id="jXC8IIWnlSqL4LivibP2-10" style="edgeStyle=orthogonalEdgeStyle;rounded=0;orthogonalLoop=1;jettySize=auto;html=1;entryX=0.5;entryY=0;entryDx=0;entryDy=0;strokeWidth=2;" parent="1" source="mWab_-8N9wXFLHfZuCKQ-5" target="jXC8IIWnlSqL4LivibP2-3" edge="1">
          <mxGeometry relative="1" as="geometry" />
        </mxCell>
        <mxCell id="mWab_-8N9wXFLHfZuCKQ-5" value="" style="rounded=0;whiteSpace=wrap;html=1;container=0;fillColor=#a20025;strokeColor=#4D4D4D;fontColor=#ffffff;strokeWidth=2;" parent="1" vertex="1">
          <mxGeometry x="420" y="200" width="30" height="20" as="geometry" />
        </mxCell>
        <mxCell id="mWab_-8N9wXFLHfZuCKQ-6" value="&lt;p style=&quot;line-height: 80%;&quot;&gt;&lt;font style=&quot;font-size: 14px;&quot;&gt;CHARACTERISITC&lt;br&gt;FEATURE&lt;/font&gt;&lt;/p&gt;" style="text;html=1;strokeColor=none;fillColor=none;align=center;verticalAlign=middle;whiteSpace=wrap;rounded=0;container=0;fontSize=22;" parent="1" vertex="1">
          <mxGeometry x="350" y="140" width="180" height="50" as="geometry" />
        </mxCell>
        <mxCell id="jXC8IIWnlSqL4LivibP2-9" style="edgeStyle=orthogonalEdgeStyle;rounded=0;orthogonalLoop=1;jettySize=auto;html=1;exitX=1;exitY=0.5;exitDx=0;exitDy=0;entryX=0;entryY=0.5;entryDx=0;entryDy=0;" parent="1" source="t5-vEzU89gaLV2OtlJ7F-1" target="jXC8IIWnlSqL4LivibP2-2" edge="1">
          <mxGeometry relative="1" as="geometry" />
        </mxCell>
        <mxCell id="t5-vEzU89gaLV2OtlJ7F-1" value="" style="rounded=0;whiteSpace=wrap;html=1;container=0;strokeWidth=2;strokeColor=#4D4D4D;" parent="1" vertex="1">
          <mxGeometry x="210" y="250" width="60" height="20" as="geometry" />
        </mxCell>
        <mxCell id="jXC8IIWnlSqL4LivibP2-2" value="" style="rounded=0;whiteSpace=wrap;html=1;container=0;strokeWidth=2;strokeColor=#4D4D4D;" parent="1" vertex="1">
          <mxGeometry x="310" y="250" width="50" height="20" as="geometry" />
        </mxCell>
        <mxCell id="jXC8IIWnlSqL4LivibP2-3" value="" style="rounded=0;whiteSpace=wrap;html=1;container=0;fillColor=#a20025;strokeColor=#4D4D4D;fontColor=#ffffff;strokeWidth=2;" parent="1" vertex="1">
          <mxGeometry x="360" y="250" width="30" height="20" as="geometry" />
        </mxCell>
        <mxCell id="jXC8IIWnlSqL4LivibP2-7" value="&lt;font style=&quot;font-size: 18px;&quot;&gt;$$x_{new}$$&lt;/font&gt;" style="text;html=1;strokeColor=none;fillColor=none;align=center;verticalAlign=middle;whiteSpace=wrap;rounded=0;fontSize=24;fontStyle=1" parent="1" vertex="1">
          <mxGeometry x="313.25" y="280" width="60" height="20" as="geometry" />
        </mxCell>
        <mxCell id="EvBdUIvnK0ht_aLXw8rh-1" value="&lt;font style=&quot;font-size: 18px;&quot;&gt;$$x$$&lt;/font&gt;" style="text;html=1;strokeColor=none;fillColor=none;align=center;verticalAlign=middle;whiteSpace=wrap;rounded=0;fontSize=24;fontStyle=1" parent="1" vertex="1">
          <mxGeometry x="210" y="280" width="60" height="20" as="geometry" />
        </mxCell>
        <mxCell id="4o5rM-EIG1aIoiUxuOQm-10" value="&lt;b style=&quot;&quot;&gt;&lt;font style=&quot;font-size: 18px;&quot;&gt;=&lt;/font&gt;&lt;/b&gt;" style="text;html=1;strokeColor=none;fillColor=none;align=center;verticalAlign=middle;whiteSpace=wrap;rounded=0;fontSize=22;" parent="1" vertex="1">
          <mxGeometry x="570" y="190" width="63.5" height="30" as="geometry" />
        </mxCell>
        <mxCell id="6cwKb4Ox6WpdyhgPQVM5-4" value="" style="ellipse;whiteSpace=wrap;html=1;aspect=fixed;fillColor=#dae8fc;strokeColor=#6C8EBF;strokeWidth=2;" vertex="1" parent="1">
          <mxGeometry x="620" y="130" width="50" height="50" as="geometry" />
        </mxCell>
        <mxCell id="6cwKb4Ox6WpdyhgPQVM5-5" value="" style="ellipse;whiteSpace=wrap;html=1;aspect=fixed;fillColor=#d5e8d4;strokeColor=#82B366;strokeWidth=2;" vertex="1" parent="1">
          <mxGeometry x="620" y="190" width="50" height="50" as="geometry" />
        </mxCell>
        <mxCell id="6cwKb4Ox6WpdyhgPQVM5-6" value="" style="ellipse;whiteSpace=wrap;html=1;aspect=fixed;fillColor=#999999;strokeColor=#000000;strokeWidth=2;" vertex="1" parent="1">
          <mxGeometry x="530" y="190" width="50" height="50" as="geometry" />
        </mxCell>
        <mxCell id="6cwKb4Ox6WpdyhgPQVM5-8" value="&lt;span style=&quot;font-size: 14px;&quot;&gt;SOURCE&lt;/span&gt;" style="text;html=1;strokeColor=none;fillColor=none;align=center;verticalAlign=middle;whiteSpace=wrap;rounded=0;fontSize=22;" vertex="1" parent="1">
          <mxGeometry x="660" y="200" width="93.5" height="20" as="geometry" />
        </mxCell>
        <mxCell id="6cwKb4Ox6WpdyhgPQVM5-9" value="&lt;span style=&quot;font-size: 14px;&quot;&gt;TEST&lt;/span&gt;" style="text;html=1;strokeColor=none;fillColor=none;align=center;verticalAlign=middle;whiteSpace=wrap;rounded=0;fontSize=22;" vertex="1" parent="1">
          <mxGeometry x="660" y="265" width="93.5" height="20" as="geometry" />
        </mxCell>
      </root>
    </mxGraphModel>
  </diagram>
  <diagram id="4JeL1Uh0KmFLliservnz" name="SWA">
    <mxGraphModel dx="1306" dy="828" grid="1" gridSize="10" guides="1" tooltips="1" connect="1" arrows="1" fold="1" page="1" pageScale="1" pageWidth="827" pageHeight="1169" math="1" shadow="0">
      <root>
        <mxCell id="0" />
        <mxCell id="1" parent="0" />
        <mxCell id="ixNcwlmjSP82Z1PcvssK-42" style="edgeStyle=orthogonalEdgeStyle;rounded=0;orthogonalLoop=1;jettySize=auto;html=1;entryX=0;entryY=0.5;entryDx=0;entryDy=0;" parent="1" source="ixNcwlmjSP82Z1PcvssK-1" target="ixNcwlmjSP82Z1PcvssK-28" edge="1">
          <mxGeometry relative="1" as="geometry" />
        </mxCell>
        <mxCell id="ixNcwlmjSP82Z1PcvssK-1" value="" style="ellipse;whiteSpace=wrap;html=1;aspect=fixed;fillColor=#1ba1e2;strokeColor=#006EAF;fontColor=#ffffff;" parent="1" vertex="1">
          <mxGeometry x="340" y="230" width="80" height="80" as="geometry" />
        </mxCell>
        <mxCell id="ixNcwlmjSP82Z1PcvssK-2" value="" style="ellipse;whiteSpace=wrap;html=1;aspect=fixed;fillColor=#dae8fc;strokeColor=#6c8ebf;" parent="1" vertex="1">
          <mxGeometry x="350" y="240" width="60" height="60" as="geometry" />
        </mxCell>
        <mxCell id="sFPGCuqzVEAC379RD9Yf-1" style="edgeStyle=orthogonalEdgeStyle;rounded=0;orthogonalLoop=1;jettySize=auto;html=1;entryX=0;entryY=1;entryDx=0;entryDy=0;exitX=1;exitY=1;exitDx=0;exitDy=0;" parent="1" source="ixNcwlmjSP82Z1PcvssK-4" target="ixNcwlmjSP82Z1PcvssK-1" edge="1">
          <mxGeometry relative="1" as="geometry" />
        </mxCell>
        <mxCell id="ixNcwlmjSP82Z1PcvssK-4" value="" style="ellipse;whiteSpace=wrap;html=1;aspect=fixed;fillColor=#d5e8d4;strokeColor=#82b366;" parent="1" vertex="1">
          <mxGeometry x="126" y="240" width="60" height="60" as="geometry" />
        </mxCell>
        <mxCell id="ixNcwlmjSP82Z1PcvssK-5" style="edgeStyle=orthogonalEdgeStyle;rounded=0;orthogonalLoop=1;jettySize=auto;html=1;entryX=0;entryY=0;entryDx=0;entryDy=0;" parent="1" source="ixNcwlmjSP82Z1PcvssK-6" target="ixNcwlmjSP82Z1PcvssK-1" edge="1">
          <mxGeometry relative="1" as="geometry" />
        </mxCell>
        <mxCell id="ixNcwlmjSP82Z1PcvssK-6" value="" style="ellipse;whiteSpace=wrap;html=1;aspect=fixed;fillColor=#dae8fc;strokeColor=#6c8ebf;" parent="1" vertex="1">
          <mxGeometry x="290" y="80" width="60" height="60" as="geometry" />
        </mxCell>
        <mxCell id="ixNcwlmjSP82Z1PcvssK-7" style="edgeStyle=orthogonalEdgeStyle;rounded=0;orthogonalLoop=1;jettySize=auto;html=1;entryX=0.5;entryY=0;entryDx=0;entryDy=0;" parent="1" source="ixNcwlmjSP82Z1PcvssK-8" target="ixNcwlmjSP82Z1PcvssK-1" edge="1">
          <mxGeometry relative="1" as="geometry" />
        </mxCell>
        <mxCell id="ixNcwlmjSP82Z1PcvssK-8" value="" style="ellipse;whiteSpace=wrap;html=1;aspect=fixed;fillColor=#dae8fc;strokeColor=#6c8ebf;" parent="1" vertex="1">
          <mxGeometry x="507" y="180" width="60" height="60" as="geometry" />
        </mxCell>
        <mxCell id="ixNcwlmjSP82Z1PcvssK-9" style="edgeStyle=orthogonalEdgeStyle;rounded=0;orthogonalLoop=1;jettySize=auto;html=1;entryX=0;entryY=0.5;entryDx=0;entryDy=0;" parent="1" source="ixNcwlmjSP82Z1PcvssK-10" target="ixNcwlmjSP82Z1PcvssK-1" edge="1">
          <mxGeometry relative="1" as="geometry" />
        </mxCell>
        <mxCell id="ixNcwlmjSP82Z1PcvssK-10" value="" style="ellipse;whiteSpace=wrap;html=1;aspect=fixed;fillColor=#dae8fc;strokeColor=#6c8ebf;" parent="1" vertex="1">
          <mxGeometry x="150" y="110" width="60" height="60" as="geometry" />
        </mxCell>
        <mxCell id="ixNcwlmjSP82Z1PcvssK-11" value="&lt;font style=&quot;font-size: 17px;&quot;&gt;PM2.5&lt;/font&gt;" style="text;html=1;strokeColor=none;fillColor=none;align=center;verticalAlign=middle;whiteSpace=wrap;rounded=0;container=0;fontSize=17;" parent="1" vertex="1">
          <mxGeometry x="522" y="110" width="30" height="30" as="geometry" />
        </mxCell>
        <mxCell id="ixNcwlmjSP82Z1PcvssK-28" value="" style="rounded=0;whiteSpace=wrap;html=1;container=0;fillColor=#a20025;strokeColor=#6F0000;fontColor=#ffffff;" parent="1" vertex="1">
          <mxGeometry x="487" y="260" width="20" height="20" as="geometry" />
        </mxCell>
        <mxCell id="ixNcwlmjSP82Z1PcvssK-29" value="&lt;font style=&quot;font-size: 17px;&quot;&gt;SWA&lt;/font&gt;" style="text;html=1;strokeColor=none;fillColor=none;align=center;verticalAlign=middle;whiteSpace=wrap;rounded=0;container=0;fontSize=17;" parent="1" vertex="1">
          <mxGeometry x="470" y="290" width="54" height="20" as="geometry" />
        </mxCell>
        <mxCell id="ixNcwlmjSP82Z1PcvssK-33" value="&lt;font style=&quot;font-size: 17px;&quot;&gt;PM2.5&lt;/font&gt;" style="text;html=1;strokeColor=none;fillColor=none;align=center;verticalAlign=middle;whiteSpace=wrap;rounded=0;container=0;fontSize=17;" parent="1" vertex="1">
          <mxGeometry x="365" y="70" width="30" height="30" as="geometry" />
        </mxCell>
        <mxCell id="ixNcwlmjSP82Z1PcvssK-37" value="&lt;font style=&quot;font-size: 17px;&quot;&gt;PM2.5&lt;/font&gt;" style="text;html=1;strokeColor=none;fillColor=none;align=center;verticalAlign=middle;whiteSpace=wrap;rounded=0;container=0;fontSize=17;" parent="1" vertex="1">
          <mxGeometry x="166.5" y="40" width="30" height="30" as="geometry" />
        </mxCell>
        <mxCell id="ixNcwlmjSP82Z1PcvssK-39" value="&lt;font style=&quot;font-size: 17px;&quot;&gt;PM2.5&lt;/font&gt;" style="text;html=1;strokeColor=none;fillColor=none;align=center;verticalAlign=middle;whiteSpace=wrap;rounded=0;container=0;fontSize=17;" parent="1" vertex="1">
          <mxGeometry x="82" y="230" width="30" height="30" as="geometry" />
        </mxCell>
        <mxCell id="ixNcwlmjSP82Z1PcvssK-40" value="" style="rounded=0;whiteSpace=wrap;html=1;container=0;" parent="1" vertex="1">
          <mxGeometry x="79" y="255" width="33" height="30" as="geometry" />
        </mxCell>
        <mxCell id="ixNcwlmjSP82Z1PcvssK-41" value="$$w_i$$" style="text;html=1;strokeColor=none;fillColor=none;align=center;verticalAlign=middle;whiteSpace=wrap;rounded=0;fontSize=17;" parent="1" vertex="1">
          <mxGeometry x="427" y="180" width="60" height="30" as="geometry" />
        </mxCell>
        <mxCell id="ixNcwlmjSP82Z1PcvssK-43" value="$$w_i$$" style="text;html=1;strokeColor=none;fillColor=none;align=center;verticalAlign=middle;whiteSpace=wrap;rounded=0;fontSize=17;" parent="1" vertex="1">
          <mxGeometry x="280" y="160" width="60" height="30" as="geometry" />
        </mxCell>
        <mxCell id="ixNcwlmjSP82Z1PcvssK-44" value="$$w_i$$" style="text;html=1;strokeColor=none;fillColor=none;align=center;verticalAlign=middle;whiteSpace=wrap;rounded=0;fontSize=17;" parent="1" vertex="1">
          <mxGeometry x="206" y="110" width="60" height="30" as="geometry" />
        </mxCell>
        <mxCell id="ixNcwlmjSP82Z1PcvssK-45" value="$$w_i$$" style="text;html=1;strokeColor=none;fillColor=none;align=center;verticalAlign=middle;whiteSpace=wrap;rounded=0;fontSize=17;" parent="1" vertex="1">
          <mxGeometry x="200" y="240" width="60" height="30" as="geometry" />
        </mxCell>
        <mxCell id="rhlCpMzNNm-64KbAaYQv-1" value="" style="rounded=0;whiteSpace=wrap;html=1;container=0;" parent="1" vertex="1">
          <mxGeometry x="520.5" y="140" width="33" height="30" as="geometry" />
        </mxCell>
        <mxCell id="rhlCpMzNNm-64KbAaYQv-3" value="" style="rounded=0;whiteSpace=wrap;html=1;container=0;" parent="1" vertex="1">
          <mxGeometry x="163.5" y="70" width="33" height="30" as="geometry" />
        </mxCell>
        <mxCell id="rhlCpMzNNm-64KbAaYQv-4" value="" style="rounded=0;whiteSpace=wrap;html=1;container=0;" parent="1" vertex="1">
          <mxGeometry x="363.5" y="100" width="33" height="30" as="geometry" />
        </mxCell>
      </root>
    </mxGraphModel>
  </diagram>
  <diagram id="XljIvqNkZr7tTOxNvH_8" name="LCF composing">
    <mxGraphModel dx="1306" dy="828" grid="1" gridSize="10" guides="1" tooltips="1" connect="1" arrows="1" fold="1" page="1" pageScale="1" pageWidth="827" pageHeight="1169" math="1" shadow="0">
      <root>
        <mxCell id="0" />
        <mxCell id="1" parent="0" />
        <mxCell id="ezVI9Xz9W_ALTj9QfS5F-19" value="" style="ellipse;whiteSpace=wrap;html=1;aspect=fixed;fillColor=#1ba1e2;strokeColor=#006EAF;fontColor=#ffffff;" parent="1" vertex="1">
          <mxGeometry x="340" y="230" width="80" height="80" as="geometry" />
        </mxCell>
        <mxCell id="ezVI9Xz9W_ALTj9QfS5F-20" value="" style="ellipse;whiteSpace=wrap;html=1;aspect=fixed;fillColor=#dae8fc;strokeColor=#6c8ebf;" parent="1" vertex="1">
          <mxGeometry x="350" y="240" width="60" height="60" as="geometry" />
        </mxCell>
        <mxCell id="PXG_J88V0YW3ZjBfi4RD-3" style="edgeStyle=orthogonalEdgeStyle;rounded=0;orthogonalLoop=1;jettySize=auto;html=1;exitX=0.5;exitY=1;exitDx=0;exitDy=0;entryX=0;entryY=1;entryDx=0;entryDy=0;" parent="1" source="ezVI9Xz9W_ALTj9QfS5F-22" target="ezVI9Xz9W_ALTj9QfS5F-19" edge="1">
          <mxGeometry relative="1" as="geometry" />
        </mxCell>
        <mxCell id="ezVI9Xz9W_ALTj9QfS5F-22" value="" style="ellipse;whiteSpace=wrap;html=1;aspect=fixed;fillColor=#d5e8d4;strokeColor=#82b366;" parent="1" vertex="1">
          <mxGeometry x="170" y="215" width="60" height="60" as="geometry" />
        </mxCell>
        <mxCell id="ezVI9Xz9W_ALTj9QfS5F-23" style="edgeStyle=orthogonalEdgeStyle;rounded=0;orthogonalLoop=1;jettySize=auto;html=1;entryX=0;entryY=0;entryDx=0;entryDy=0;" parent="1" source="ezVI9Xz9W_ALTj9QfS5F-24" target="ezVI9Xz9W_ALTj9QfS5F-19" edge="1">
          <mxGeometry relative="1" as="geometry" />
        </mxCell>
        <mxCell id="ezVI9Xz9W_ALTj9QfS5F-24" value="" style="ellipse;whiteSpace=wrap;html=1;aspect=fixed;fillColor=#dae8fc;strokeColor=#6c8ebf;" parent="1" vertex="1">
          <mxGeometry x="336" y="65" width="60" height="60" as="geometry" />
        </mxCell>
        <mxCell id="ezVI9Xz9W_ALTj9QfS5F-25" style="edgeStyle=orthogonalEdgeStyle;rounded=0;orthogonalLoop=1;jettySize=auto;html=1;entryX=0.5;entryY=0;entryDx=0;entryDy=0;" parent="1" source="ezVI9Xz9W_ALTj9QfS5F-26" target="ezVI9Xz9W_ALTj9QfS5F-19" edge="1">
          <mxGeometry relative="1" as="geometry" />
        </mxCell>
        <mxCell id="ezVI9Xz9W_ALTj9QfS5F-26" value="" style="ellipse;whiteSpace=wrap;html=1;aspect=fixed;fillColor=#dae8fc;strokeColor=#6c8ebf;" parent="1" vertex="1">
          <mxGeometry x="510" y="125" width="60" height="60" as="geometry" />
        </mxCell>
        <mxCell id="ezVI9Xz9W_ALTj9QfS5F-27" style="edgeStyle=orthogonalEdgeStyle;rounded=0;orthogonalLoop=1;jettySize=auto;html=1;entryX=0;entryY=0.5;entryDx=0;entryDy=0;" parent="1" source="ezVI9Xz9W_ALTj9QfS5F-28" target="ezVI9Xz9W_ALTj9QfS5F-19" edge="1">
          <mxGeometry relative="1" as="geometry" />
        </mxCell>
        <mxCell id="ezVI9Xz9W_ALTj9QfS5F-28" value="" style="ellipse;whiteSpace=wrap;html=1;aspect=fixed;fillColor=#dae8fc;strokeColor=#6c8ebf;" parent="1" vertex="1">
          <mxGeometry x="145" y="110" width="60" height="60" as="geometry" />
        </mxCell>
        <mxCell id="ezVI9Xz9W_ALTj9QfS5F-38" value="&lt;font style=&quot;font-size: 17px;&quot;&gt;$$p+1$$&lt;/font&gt;" style="text;html=1;strokeColor=none;fillColor=none;align=center;verticalAlign=middle;whiteSpace=wrap;rounded=0;container=0;fontSize=17;" parent="1" vertex="1">
          <mxGeometry x="595" y="110" width="30" height="30" as="geometry" />
        </mxCell>
        <mxCell id="ezVI9Xz9W_ALTj9QfS5F-40" value="&lt;font style=&quot;font-size: 17px;&quot;&gt;$$p+1$$&lt;/font&gt;" style="text;html=1;strokeColor=none;fillColor=none;align=center;verticalAlign=middle;whiteSpace=wrap;rounded=0;container=0;fontSize=17;" parent="1" vertex="1">
          <mxGeometry x="115" y="205" width="30" height="30" as="geometry" />
        </mxCell>
        <mxCell id="ezVI9Xz9W_ALTj9QfS5F-41" value="" style="rounded=0;whiteSpace=wrap;html=1;container=0;" parent="1" vertex="1">
          <mxGeometry x="100" y="235" width="60" height="35" as="geometry" />
        </mxCell>
        <mxCell id="ezVI9Xz9W_ALTj9QfS5F-42" value="&lt;font style=&quot;font-size: 17px;&quot;&gt;$$p+1$$&lt;/font&gt;" style="text;html=1;strokeColor=none;fillColor=none;align=center;verticalAlign=middle;whiteSpace=wrap;rounded=0;container=0;fontSize=17;" parent="1" vertex="1">
          <mxGeometry x="95" y="100" width="30" height="30" as="geometry" />
        </mxCell>
        <mxCell id="ezVI9Xz9W_ALTj9QfS5F-44" value="&lt;font style=&quot;font-size: 17px;&quot;&gt;$$p+1$$&lt;/font&gt;" style="text;html=1;strokeColor=none;fillColor=none;align=center;verticalAlign=middle;whiteSpace=wrap;rounded=0;container=0;fontSize=17;" parent="1" vertex="1">
          <mxGeometry x="285" y="55" width="30" height="30" as="geometry" />
        </mxCell>
        <mxCell id="ezVI9Xz9W_ALTj9QfS5F-46" value="&lt;font style=&quot;font-size: 17px;&quot;&gt;$$p+1$$&lt;/font&gt;" style="text;html=1;strokeColor=none;fillColor=none;align=center;verticalAlign=middle;whiteSpace=wrap;rounded=0;container=0;fontSize=17;" parent="1" vertex="1">
          <mxGeometry x="449" y="200" width="30" height="30" as="geometry" />
        </mxCell>
        <mxCell id="ezVI9Xz9W_ALTj9QfS5F-47" value="" style="rounded=0;whiteSpace=wrap;html=1;container=0;" parent="1" vertex="1">
          <mxGeometry x="434" y="230" width="60" height="20" as="geometry" />
        </mxCell>
        <mxCell id="ezVI9Xz9W_ALTj9QfS5F-48" value="" style="rounded=0;whiteSpace=wrap;html=1;container=0;" parent="1" vertex="1">
          <mxGeometry x="434" y="250" width="60" height="20" as="geometry" />
        </mxCell>
        <mxCell id="ezVI9Xz9W_ALTj9QfS5F-49" value="" style="rounded=0;whiteSpace=wrap;html=1;fillColor=#d0cee2;strokeColor=#56517e;container=0;" parent="1" vertex="1">
          <mxGeometry x="434" y="270" width="50" height="20" as="geometry" />
        </mxCell>
        <mxCell id="ezVI9Xz9W_ALTj9QfS5F-50" value="" style="rounded=0;whiteSpace=wrap;html=1;container=0;" parent="1" vertex="1">
          <mxGeometry x="434" y="290" width="60" height="20" as="geometry" />
        </mxCell>
        <mxCell id="ezVI9Xz9W_ALTj9QfS5F-51" value="" style="rounded=0;whiteSpace=wrap;html=1;container=0;" parent="1" vertex="1">
          <mxGeometry x="434" y="310" width="60" height="20" as="geometry" />
        </mxCell>
        <mxCell id="ezVI9Xz9W_ALTj9QfS5F-52" value="&lt;font style=&quot;font-size: 17px;&quot;&gt;$$m+1$$&lt;/font&gt;" style="text;html=1;strokeColor=none;fillColor=none;align=center;verticalAlign=middle;whiteSpace=wrap;rounded=0;container=0;fontSize=17;" parent="1" vertex="1">
          <mxGeometry x="510" y="265" width="50" height="30" as="geometry" />
        </mxCell>
        <mxCell id="ezVI9Xz9W_ALTj9QfS5F-53" value="" style="rounded=0;whiteSpace=wrap;html=1;container=0;fillColor=#080808;" parent="1" vertex="1">
          <mxGeometry x="484" y="270" width="10" height="20" as="geometry" />
        </mxCell>
        <mxCell id="S5xdExM8rk4By50h6b-h-2" value="" style="rounded=0;whiteSpace=wrap;html=1;container=0;fillColor=#a20025;strokeColor=#6F0000;fontColor=#ffffff;" parent="1" vertex="1">
          <mxGeometry x="627" y="265" width="20" height="20" as="geometry" />
        </mxCell>
        <mxCell id="S5xdExM8rk4By50h6b-h-3" value="&lt;font style=&quot;font-size: 17px;&quot;&gt;LCF&lt;/font&gt;" style="text;html=1;strokeColor=none;fillColor=none;align=center;verticalAlign=middle;whiteSpace=wrap;rounded=0;container=0;fontSize=17;" parent="1" vertex="1">
          <mxGeometry x="610" y="295" width="54" height="20" as="geometry" />
        </mxCell>
        <mxCell id="PXG_J88V0YW3ZjBfi4RD-2" value="" style="endArrow=classic;html=1;rounded=0;" parent="1" edge="1">
          <mxGeometry width="50" height="50" relative="1" as="geometry">
            <mxPoint x="570" y="280" as="sourcePoint" />
            <mxPoint x="610" y="280" as="targetPoint" />
          </mxGeometry>
        </mxCell>
        <mxCell id="r84MqDMm-vOAmM7vI3x5-1" value="" style="rounded=0;whiteSpace=wrap;html=1;container=0;" parent="1" vertex="1">
          <mxGeometry x="270" y="85" width="60" height="35" as="geometry" />
        </mxCell>
        <mxCell id="r84MqDMm-vOAmM7vI3x5-2" value="" style="rounded=0;whiteSpace=wrap;html=1;container=0;" parent="1" vertex="1">
          <mxGeometry x="80" y="130" width="60" height="35" as="geometry" />
        </mxCell>
        <mxCell id="r84MqDMm-vOAmM7vI3x5-3" value="" style="rounded=0;whiteSpace=wrap;html=1;container=0;" parent="1" vertex="1">
          <mxGeometry x="582" y="140" width="60" height="35" as="geometry" />
        </mxCell>
      </root>
    </mxGraphModel>
  </diagram>
  <diagram id="Zoa8zXSAKQDM0d4B7BNx" name="LCF-autoencoder">
    <mxGraphModel dx="1434" dy="796" grid="1" gridSize="10" guides="1" tooltips="1" connect="1" arrows="1" fold="1" page="1" pageScale="1" pageWidth="827" pageHeight="1169" math="1" shadow="0">
      <root>
        <mxCell id="0" />
        <mxCell id="1" parent="0" />
        <mxCell id="J8X-1k5fTnKnz0x2psGa-1" value="&lt;font style=&quot;font-size: 16px;&quot;&gt;$$p+1$$&lt;/font&gt;" style="text;html=1;strokeColor=none;fillColor=none;align=center;verticalAlign=middle;whiteSpace=wrap;rounded=0;container=0;fontSize=16;" parent="1" vertex="1">
          <mxGeometry x="100" y="410" width="60" height="30" as="geometry" />
        </mxCell>
        <mxCell id="J8X-1k5fTnKnz0x2psGa-2" value="" style="endArrow=classic;html=1;rounded=0;" parent="1" edge="1">
          <mxGeometry width="50" height="50" relative="1" as="geometry">
            <mxPoint x="289" y="480" as="sourcePoint" />
            <mxPoint x="329" y="480" as="targetPoint" />
          </mxGeometry>
        </mxCell>
        <mxCell id="J8X-1k5fTnKnz0x2psGa-3" value="" style="endArrow=classic;html=1;rounded=0;" parent="1" edge="1">
          <mxGeometry width="50" height="50" relative="1" as="geometry">
            <mxPoint x="380" y="480" as="sourcePoint" />
            <mxPoint x="420" y="480" as="targetPoint" />
          </mxGeometry>
        </mxCell>
        <mxCell id="J8X-1k5fTnKnz0x2psGa-4" value="" style="endArrow=classic;html=1;rounded=0;" parent="1" edge="1">
          <mxGeometry width="50" height="50" relative="1" as="geometry">
            <mxPoint x="500" y="480" as="sourcePoint" />
            <mxPoint x="540" y="480" as="targetPoint" />
          </mxGeometry>
        </mxCell>
        <mxCell id="J8X-1k5fTnKnz0x2psGa-7" value="" style="rounded=0;whiteSpace=wrap;html=1;container=0;fillColor=#a20025;strokeColor=#6F0000;fontColor=#ffffff;" parent="1" vertex="1">
          <mxGeometry x="339.5" y="475" width="30" height="25" as="geometry" />
        </mxCell>
        <mxCell id="J8X-1k5fTnKnz0x2psGa-12" value="" style="rounded=0;whiteSpace=wrap;html=1;container=0;fillColor=#e1d5e7;strokeColor=#9673a6;" parent="1" vertex="1">
          <mxGeometry x="430" y="440" width="60" height="20" as="geometry" />
        </mxCell>
        <mxCell id="J8X-1k5fTnKnz0x2psGa-13" value="" style="rounded=0;whiteSpace=wrap;html=1;container=0;fillColor=#e1d5e7;strokeColor=#9673a6;" parent="1" vertex="1">
          <mxGeometry x="430" y="460" width="60" height="20" as="geometry" />
        </mxCell>
        <mxCell id="J8X-1k5fTnKnz0x2psGa-14" value="" style="rounded=0;whiteSpace=wrap;html=1;container=0;fillColor=#e1d5e7;strokeColor=#9673a6;" parent="1" vertex="1">
          <mxGeometry x="430" y="480" width="60" height="20" as="geometry" />
        </mxCell>
        <mxCell id="J8X-1k5fTnKnz0x2psGa-15" value="" style="rounded=0;whiteSpace=wrap;html=1;container=0;fillColor=#e1d5e7;strokeColor=#9673a6;" parent="1" vertex="1">
          <mxGeometry x="430" y="500" width="60" height="20" as="geometry" />
        </mxCell>
        <mxCell id="J8X-1k5fTnKnz0x2psGa-16" value="" style="rounded=0;whiteSpace=wrap;html=1;container=0;fillColor=#e1d5e7;strokeColor=#9673a6;" parent="1" vertex="1">
          <mxGeometry x="430" y="520" width="60" height="20" as="geometry" />
        </mxCell>
        <mxCell id="J8X-1k5fTnKnz0x2psGa-18" value="" style="rounded=0;whiteSpace=wrap;html=1;container=0;" parent="1" vertex="1">
          <mxGeometry x="550" y="440" width="60" height="20" as="geometry" />
        </mxCell>
        <mxCell id="J8X-1k5fTnKnz0x2psGa-19" value="" style="rounded=0;whiteSpace=wrap;html=1;container=0;" parent="1" vertex="1">
          <mxGeometry x="550" y="460" width="60" height="20" as="geometry" />
        </mxCell>
        <mxCell id="J8X-1k5fTnKnz0x2psGa-20" value="" style="rounded=0;whiteSpace=wrap;html=1;container=0;" parent="1" vertex="1">
          <mxGeometry x="550" y="480" width="60" height="20" as="geometry" />
        </mxCell>
        <mxCell id="J8X-1k5fTnKnz0x2psGa-21" value="" style="rounded=0;whiteSpace=wrap;html=1;container=0;" parent="1" vertex="1">
          <mxGeometry x="550" y="500" width="60" height="20" as="geometry" />
        </mxCell>
        <mxCell id="J8X-1k5fTnKnz0x2psGa-22" value="" style="rounded=0;whiteSpace=wrap;html=1;container=0;" parent="1" vertex="1">
          <mxGeometry x="550" y="520" width="60" height="20" as="geometry" />
        </mxCell>
        <mxCell id="J8X-1k5fTnKnz0x2psGa-24" value="" style="rounded=0;whiteSpace=wrap;html=1;container=0;" parent="1" vertex="1">
          <mxGeometry x="100" y="440" width="60" height="20" as="geometry" />
        </mxCell>
        <mxCell id="J8X-1k5fTnKnz0x2psGa-25" value="" style="rounded=0;whiteSpace=wrap;html=1;container=0;" parent="1" vertex="1">
          <mxGeometry x="100" y="460" width="60" height="20" as="geometry" />
        </mxCell>
        <mxCell id="J8X-1k5fTnKnz0x2psGa-26" value="" style="rounded=0;whiteSpace=wrap;html=1;fillColor=#d0cee2;strokeColor=#56517e;container=0;" parent="1" vertex="1">
          <mxGeometry x="100" y="480" width="60" height="20" as="geometry" />
        </mxCell>
        <mxCell id="J8X-1k5fTnKnz0x2psGa-27" value="" style="rounded=0;whiteSpace=wrap;html=1;container=0;" parent="1" vertex="1">
          <mxGeometry x="100" y="500" width="60" height="20" as="geometry" />
        </mxCell>
        <mxCell id="J8X-1k5fTnKnz0x2psGa-28" value="" style="rounded=0;whiteSpace=wrap;html=1;container=0;" parent="1" vertex="1">
          <mxGeometry x="100" y="520" width="60" height="20" as="geometry" />
        </mxCell>
        <mxCell id="J8X-1k5fTnKnz0x2psGa-29" value="" style="rounded=0;whiteSpace=wrap;html=1;container=0;fillColor=#fff2cc;strokeColor=#d6b656;" parent="1" vertex="1">
          <mxGeometry x="219" y="440" width="60" height="20" as="geometry" />
        </mxCell>
        <mxCell id="J8X-1k5fTnKnz0x2psGa-30" value="" style="rounded=0;whiteSpace=wrap;html=1;container=0;fillColor=#fff2cc;strokeColor=#d6b656;" parent="1" vertex="1">
          <mxGeometry x="219" y="460" width="60" height="20" as="geometry" />
        </mxCell>
        <mxCell id="J8X-1k5fTnKnz0x2psGa-31" value="" style="rounded=0;whiteSpace=wrap;html=1;container=0;fillColor=#fff2cc;strokeColor=#d6b656;" parent="1" vertex="1">
          <mxGeometry x="219" y="480" width="60" height="20" as="geometry" />
        </mxCell>
        <mxCell id="J8X-1k5fTnKnz0x2psGa-32" value="" style="rounded=0;whiteSpace=wrap;html=1;container=0;fillColor=#fff2cc;strokeColor=#d6b656;" parent="1" vertex="1">
          <mxGeometry x="219" y="500" width="60" height="20" as="geometry" />
        </mxCell>
        <mxCell id="J8X-1k5fTnKnz0x2psGa-33" value="" style="rounded=0;whiteSpace=wrap;html=1;container=0;fillColor=#fff2cc;strokeColor=#d6b656;" parent="1" vertex="1">
          <mxGeometry x="219" y="520" width="60" height="20" as="geometry" />
        </mxCell>
        <mxCell id="J8X-1k5fTnKnz0x2psGa-34" value="&lt;font style=&quot;font-size: 16px;&quot;&gt;$$m+1$$&lt;/font&gt;" style="text;html=1;strokeColor=none;fillColor=none;align=center;verticalAlign=middle;whiteSpace=wrap;rounded=0;container=0;fontSize=16;" parent="1" vertex="1">
          <mxGeometry x="40" y="475" width="50" height="30" as="geometry" />
        </mxCell>
        <mxCell id="J8X-1k5fTnKnz0x2psGa-35" value="LCF" style="text;html=1;strokeColor=none;fillColor=none;align=center;verticalAlign=middle;whiteSpace=wrap;rounded=0;container=0;fontStyle=1;fontSize=16;" parent="1" vertex="1">
          <mxGeometry x="329" y="445" width="51" height="30" as="geometry" />
        </mxCell>
        <mxCell id="J8X-1k5fTnKnz0x2psGa-36" value="Reconstructed Data" style="text;html=1;strokeColor=none;fillColor=none;align=center;verticalAlign=middle;whiteSpace=wrap;rounded=0;container=0;fontStyle=1;fontSize=16;" parent="1" vertex="1">
          <mxGeometry x="540" y="400" width="80" height="30" as="geometry" />
        </mxCell>
        <mxCell id="J8X-1k5fTnKnz0x2psGa-38" value="" style="endArrow=classic;html=1;rounded=0;" parent="1" edge="1">
          <mxGeometry width="50" height="50" relative="1" as="geometry">
            <mxPoint x="171" y="480" as="sourcePoint" />
            <mxPoint x="210" y="480" as="targetPoint" />
          </mxGeometry>
        </mxCell>
        <mxCell id="J8X-1k5fTnKnz0x2psGa-40" value="&lt;b style=&quot;font-size: 16px;&quot;&gt;PM2.5&lt;/b&gt;" style="rounded=1;whiteSpace=wrap;html=1;fillColor=#f8cecc;strokeColor=#b85450;fontSize=16;" parent="1" vertex="1">
          <mxGeometry x="320" y="300" width="60" height="40" as="geometry" />
        </mxCell>
        <mxCell id="J8X-1k5fTnKnz0x2psGa-44" value="" style="endArrow=classic;html=1;rounded=0;fillColor=#d80073;strokeColor=#A50040;" parent="1" edge="1">
          <mxGeometry width="50" height="50" relative="1" as="geometry">
            <mxPoint x="210" y="499" as="sourcePoint" />
            <mxPoint x="170" y="498.75" as="targetPoint" />
          </mxGeometry>
        </mxCell>
        <mxCell id="J8X-1k5fTnKnz0x2psGa-60" value="" style="endArrow=classic;html=1;rounded=0;fillColor=#d80073;strokeColor=#A50040;" parent="1" edge="1">
          <mxGeometry width="50" height="50" relative="1" as="geometry">
            <mxPoint x="80" y="654.5" as="sourcePoint" />
            <mxPoint x="135" y="654.5" as="targetPoint" />
          </mxGeometry>
        </mxCell>
        <mxCell id="J8X-1k5fTnKnz0x2psGa-61" value="&lt;b style=&quot;font-size: 16px;&quot;&gt;&lt;font style=&quot;font-size: 16px;&quot;&gt;:&amp;nbsp; &amp;nbsp; backporpagation&lt;/font&gt;&lt;/b&gt;" style="text;html=1;strokeColor=none;fillColor=none;align=center;verticalAlign=middle;whiteSpace=wrap;rounded=0;fontSize=16;" parent="1" vertex="1">
          <mxGeometry x="132.5" y="640" width="187.5" height="30" as="geometry" />
        </mxCell>
        <mxCell id="J8X-1k5fTnKnz0x2psGa-62" value="" style="endArrow=classic;html=1;rounded=0;fillColor=#d80073;strokeColor=#000000;" parent="1" edge="1">
          <mxGeometry width="50" height="50" relative="1" as="geometry">
            <mxPoint x="80" y="624.5" as="sourcePoint" />
            <mxPoint x="135" y="624.5" as="targetPoint" />
          </mxGeometry>
        </mxCell>
        <mxCell id="J8X-1k5fTnKnz0x2psGa-63" value="&lt;b style=&quot;font-size: 16px;&quot;&gt;&lt;font style=&quot;font-size: 16px;&quot;&gt;:&amp;nbsp; &amp;nbsp; forward porpagation&lt;/font&gt;&lt;/b&gt;" style="text;html=1;strokeColor=none;fillColor=none;align=center;verticalAlign=middle;whiteSpace=wrap;rounded=0;fontSize=16;" parent="1" vertex="1">
          <mxGeometry x="132.5" y="610" width="217.5" height="30" as="geometry" />
        </mxCell>
        <mxCell id="J8X-1k5fTnKnz0x2psGa-66" value="&lt;b style=&quot;font-size: 16px;&quot;&gt;Encoder Layers&lt;/b&gt;" style="text;html=1;strokeColor=#d79b00;fillColor=#ffe6cc;align=center;verticalAlign=middle;whiteSpace=wrap;rounded=0;fontStyle=0;fontSize=16;" parent="1" vertex="1">
          <mxGeometry x="160" y="555" width="170" height="30" as="geometry" />
        </mxCell>
        <mxCell id="J8X-1k5fTnKnz0x2psGa-67" value="&lt;b style=&quot;font-size: 16px;&quot;&gt;Decoder Layers&lt;/b&gt;" style="text;html=1;strokeColor=#9673a6;fillColor=#e1d5e7;align=center;verticalAlign=middle;whiteSpace=wrap;rounded=0;fontStyle=0;fontSize=16;" parent="1" vertex="1">
          <mxGeometry x="380" y="555" width="170" height="30" as="geometry" />
        </mxCell>
        <mxCell id="J8X-1k5fTnKnz0x2psGa-68" style="edgeStyle=orthogonalEdgeStyle;rounded=0;orthogonalLoop=1;jettySize=auto;html=1;exitX=0.5;exitY=1;exitDx=0;exitDy=0;" parent="1" edge="1">
          <mxGeometry relative="1" as="geometry">
            <mxPoint x="249.5" y="585" as="sourcePoint" />
            <mxPoint x="249.5" y="585" as="targetPoint" />
          </mxGeometry>
        </mxCell>
        <mxCell id="CUZxQWM4VdCpwGriZwZw-1" value="" style="rounded=0;whiteSpace=wrap;html=1;container=0;fillColor=#080808;" parent="1" vertex="1">
          <mxGeometry x="150" y="480" width="10" height="20" as="geometry" />
        </mxCell>
        <mxCell id="wIN_JeEpefZlys-xLvw1-1" value="" style="endArrow=classic;html=1;rounded=0;" edge="1" parent="1">
          <mxGeometry width="50" height="50" relative="1" as="geometry">
            <mxPoint x="344" y="440" as="sourcePoint" />
            <mxPoint x="344" y="350" as="targetPoint" />
          </mxGeometry>
        </mxCell>
        <mxCell id="wIN_JeEpefZlys-xLvw1-2" value="" style="endArrow=classic;html=1;rounded=0;fillColor=#d80073;strokeColor=#A50040;" edge="1" parent="1">
          <mxGeometry width="50" height="50" relative="1" as="geometry">
            <mxPoint x="364" y="350" as="sourcePoint" />
            <mxPoint x="364" y="440" as="targetPoint" />
          </mxGeometry>
        </mxCell>
        <mxCell id="wIN_JeEpefZlys-xLvw1-3" value="&lt;b style=&quot;font-size: 16px;&quot;&gt;Estimator Layers&lt;/b&gt;" style="text;html=1;strokeColor=#b85450;fillColor=#f8cecc;align=center;verticalAlign=middle;whiteSpace=wrap;rounded=0;fontStyle=0;fontSize=16;" vertex="1" parent="1">
          <mxGeometry x="209" y="370" width="120" height="40" as="geometry" />
        </mxCell>
        <mxCell id="wIN_JeEpefZlys-xLvw1-4" value="" style="endArrow=classic;html=1;rounded=0;fillColor=#d80073;strokeColor=#A50040;" edge="1" parent="1">
          <mxGeometry width="50" height="50" relative="1" as="geometry">
            <mxPoint x="329" y="499.25" as="sourcePoint" />
            <mxPoint x="289" y="499" as="targetPoint" />
          </mxGeometry>
        </mxCell>
        <mxCell id="wIN_JeEpefZlys-xLvw1-5" value="" style="endArrow=classic;html=1;rounded=0;fillColor=#d80073;strokeColor=#A50040;" edge="1" parent="1">
          <mxGeometry width="50" height="50" relative="1" as="geometry">
            <mxPoint x="420" y="500.25" as="sourcePoint" />
            <mxPoint x="380" y="500" as="targetPoint" />
          </mxGeometry>
        </mxCell>
        <mxCell id="wIN_JeEpefZlys-xLvw1-6" value="" style="endArrow=classic;html=1;rounded=0;fillColor=#d80073;strokeColor=#A50040;" edge="1" parent="1">
          <mxGeometry width="50" height="50" relative="1" as="geometry">
            <mxPoint x="540" y="500.25" as="sourcePoint" />
            <mxPoint x="500" y="500" as="targetPoint" />
          </mxGeometry>
        </mxCell>
      </root>
    </mxGraphModel>
  </diagram>
  <diagram id="KP2OnkndClHb52wcBMYj" name="Encode Input">
    <mxGraphModel dx="1306" dy="828" grid="1" gridSize="10" guides="1" tooltips="1" connect="1" arrows="1" fold="1" page="1" pageScale="1" pageWidth="827" pageHeight="1169" math="1" shadow="0">
      <root>
        <mxCell id="0" />
        <mxCell id="1" parent="0" />
        <mxCell id="mjSz9JvFEI6jEdQrdorw-1" value="&lt;font style=&quot;font-size: 12px;&quot;&gt;$$d_x$$&lt;/font&gt;" style="text;html=1;strokeColor=none;fillColor=none;align=center;verticalAlign=middle;whiteSpace=wrap;rounded=0;container=0;" parent="1" vertex="1">
          <mxGeometry x="124" y="410" width="30" height="30" as="geometry" />
        </mxCell>
        <mxCell id="mjSz9JvFEI6jEdQrdorw-2" value="" style="endArrow=classic;html=1;rounded=0;" parent="1" edge="1">
          <mxGeometry width="50" height="50" relative="1" as="geometry">
            <mxPoint x="344" y="472.75" as="sourcePoint" />
            <mxPoint x="394" y="472.75" as="targetPoint" />
          </mxGeometry>
        </mxCell>
        <mxCell id="mjSz9JvFEI6jEdQrdorw-3" value="" style="endArrow=classic;html=1;rounded=0;" parent="1" edge="1">
          <mxGeometry width="50" height="50" relative="1" as="geometry">
            <mxPoint x="489" y="473.75" as="sourcePoint" />
            <mxPoint x="539" y="473.75" as="targetPoint" />
          </mxGeometry>
        </mxCell>
        <mxCell id="mjSz9JvFEI6jEdQrdorw-4" value="" style="endArrow=classic;html=1;rounded=0;" parent="1" edge="1">
          <mxGeometry width="50" height="50" relative="1" as="geometry">
            <mxPoint x="629" y="473.75" as="sourcePoint" />
            <mxPoint x="679" y="473.75" as="targetPoint" />
          </mxGeometry>
        </mxCell>
        <mxCell id="mjSz9JvFEI6jEdQrdorw-5" value="" style="rounded=0;whiteSpace=wrap;html=1;container=0;fillColor=#dae8fc;strokeColor=#6c8ebf;" parent="1" vertex="1">
          <mxGeometry x="409" y="440" width="60" height="20" as="geometry" />
        </mxCell>
        <mxCell id="mjSz9JvFEI6jEdQrdorw-6" value="" style="rounded=0;whiteSpace=wrap;html=1;container=0;fillColor=#dae8fc;strokeColor=#6c8ebf;" parent="1" vertex="1">
          <mxGeometry x="409" y="460" width="60" height="20" as="geometry" />
        </mxCell>
        <mxCell id="mjSz9JvFEI6jEdQrdorw-7" value="" style="rounded=0;whiteSpace=wrap;html=1;container=0;fillColor=#dae8fc;strokeColor=#6c8ebf;" parent="1" vertex="1">
          <mxGeometry x="409" y="480" width="60" height="20" as="geometry" />
        </mxCell>
        <mxCell id="mjSz9JvFEI6jEdQrdorw-8" value="" style="rounded=0;whiteSpace=wrap;html=1;container=0;fillColor=#dae8fc;strokeColor=#6c8ebf;" parent="1" vertex="1">
          <mxGeometry x="409" y="500" width="60" height="20" as="geometry" />
        </mxCell>
        <mxCell id="mjSz9JvFEI6jEdQrdorw-9" style="edgeStyle=orthogonalEdgeStyle;rounded=0;orthogonalLoop=1;jettySize=auto;html=1;exitX=0.5;exitY=1;exitDx=0;exitDy=0;entryX=0;entryY=0.75;entryDx=0;entryDy=0;" parent="1" source="mjSz9JvFEI6jEdQrdorw-10" target="mjSz9JvFEI6jEdQrdorw-40" edge="1">
          <mxGeometry relative="1" as="geometry">
            <Array as="points">
              <mxPoint x="439" y="690" />
            </Array>
          </mxGeometry>
        </mxCell>
        <mxCell id="mjSz9JvFEI6jEdQrdorw-10" value="" style="rounded=0;whiteSpace=wrap;html=1;container=0;fillColor=#dae8fc;strokeColor=#6c8ebf;" parent="1" vertex="1">
          <mxGeometry x="409" y="520" width="60" height="20" as="geometry" />
        </mxCell>
        <mxCell id="mjSz9JvFEI6jEdQrdorw-11" value="FNN" style="text;html=1;strokeColor=none;fillColor=none;align=center;verticalAlign=middle;whiteSpace=wrap;rounded=0;container=0;fontStyle=1" parent="1" vertex="1">
          <mxGeometry x="339" y="440" width="60" height="30" as="geometry" />
        </mxCell>
        <mxCell id="mjSz9JvFEI6jEdQrdorw-12" value="" style="rounded=0;whiteSpace=wrap;html=1;container=0;" parent="1" vertex="1">
          <mxGeometry x="549" y="440" width="60" height="20" as="geometry" />
        </mxCell>
        <mxCell id="mjSz9JvFEI6jEdQrdorw-13" value="" style="rounded=0;whiteSpace=wrap;html=1;container=0;" parent="1" vertex="1">
          <mxGeometry x="549" y="460" width="60" height="20" as="geometry" />
        </mxCell>
        <mxCell id="mjSz9JvFEI6jEdQrdorw-14" value="" style="rounded=0;whiteSpace=wrap;html=1;container=0;" parent="1" vertex="1">
          <mxGeometry x="549" y="480" width="60" height="20" as="geometry" />
        </mxCell>
        <mxCell id="mjSz9JvFEI6jEdQrdorw-15" value="" style="rounded=0;whiteSpace=wrap;html=1;container=0;" parent="1" vertex="1">
          <mxGeometry x="549" y="500" width="60" height="20" as="geometry" />
        </mxCell>
        <mxCell id="mjSz9JvFEI6jEdQrdorw-16" value="" style="rounded=0;whiteSpace=wrap;html=1;container=0;" parent="1" vertex="1">
          <mxGeometry x="549" y="520" width="60" height="20" as="geometry" />
        </mxCell>
        <mxCell id="mjSz9JvFEI6jEdQrdorw-17" value="1D-CNN" style="text;html=1;strokeColor=none;fillColor=none;align=center;verticalAlign=middle;whiteSpace=wrap;rounded=0;container=0;fontStyle=1" parent="1" vertex="1">
          <mxGeometry x="489" y="440" width="50" height="30" as="geometry" />
        </mxCell>
        <mxCell id="mjSz9JvFEI6jEdQrdorw-18" value="" style="rounded=0;whiteSpace=wrap;html=1;container=0;" parent="1" vertex="1">
          <mxGeometry x="699" y="440" width="60" height="20" as="geometry" />
        </mxCell>
        <mxCell id="mjSz9JvFEI6jEdQrdorw-19" value="" style="rounded=0;whiteSpace=wrap;html=1;container=0;" parent="1" vertex="1">
          <mxGeometry x="699" y="460" width="60" height="20" as="geometry" />
        </mxCell>
        <mxCell id="mjSz9JvFEI6jEdQrdorw-20" value="" style="rounded=0;whiteSpace=wrap;html=1;container=0;" parent="1" vertex="1">
          <mxGeometry x="699" y="480" width="60" height="20" as="geometry" />
        </mxCell>
        <mxCell id="mjSz9JvFEI6jEdQrdorw-21" value="" style="rounded=0;whiteSpace=wrap;html=1;container=0;" parent="1" vertex="1">
          <mxGeometry x="699" y="500" width="60" height="20" as="geometry" />
        </mxCell>
        <mxCell id="mjSz9JvFEI6jEdQrdorw-22" value="" style="rounded=0;whiteSpace=wrap;html=1;container=0;" parent="1" vertex="1">
          <mxGeometry x="699" y="520" width="60" height="20" as="geometry" />
        </mxCell>
        <mxCell id="mjSz9JvFEI6jEdQrdorw-23" value="1D-CNN" style="text;html=1;strokeColor=none;fillColor=none;align=center;verticalAlign=middle;whiteSpace=wrap;rounded=0;container=0;fontStyle=1" parent="1" vertex="1">
          <mxGeometry x="629" y="440" width="50" height="30" as="geometry" />
        </mxCell>
        <mxCell id="mjSz9JvFEI6jEdQrdorw-24" value="" style="rounded=0;whiteSpace=wrap;html=1;container=0;" parent="1" vertex="1">
          <mxGeometry x="109" y="440" width="60" height="20" as="geometry" />
        </mxCell>
        <mxCell id="mjSz9JvFEI6jEdQrdorw-25" value="" style="rounded=0;whiteSpace=wrap;html=1;container=0;" parent="1" vertex="1">
          <mxGeometry x="109" y="460" width="60" height="20" as="geometry" />
        </mxCell>
        <mxCell id="mjSz9JvFEI6jEdQrdorw-26" value="" style="rounded=0;whiteSpace=wrap;html=1;fillColor=#d0cee2;strokeColor=#56517e;container=0;" parent="1" vertex="1">
          <mxGeometry x="109" y="480" width="60" height="20" as="geometry" />
        </mxCell>
        <mxCell id="mjSz9JvFEI6jEdQrdorw-27" value="" style="rounded=0;whiteSpace=wrap;html=1;container=0;" parent="1" vertex="1">
          <mxGeometry x="109" y="500" width="60" height="20" as="geometry" />
        </mxCell>
        <mxCell id="mjSz9JvFEI6jEdQrdorw-28" value="" style="rounded=0;whiteSpace=wrap;html=1;container=0;" parent="1" vertex="1">
          <mxGeometry x="109" y="520" width="60" height="20" as="geometry" />
        </mxCell>
        <mxCell id="mjSz9JvFEI6jEdQrdorw-29" value="" style="rounded=0;whiteSpace=wrap;html=1;container=0;" parent="1" vertex="1">
          <mxGeometry x="269" y="440" width="60" height="20" as="geometry" />
        </mxCell>
        <mxCell id="mjSz9JvFEI6jEdQrdorw-30" value="" style="rounded=0;whiteSpace=wrap;html=1;container=0;" parent="1" vertex="1">
          <mxGeometry x="269" y="460" width="60" height="20" as="geometry" />
        </mxCell>
        <mxCell id="mjSz9JvFEI6jEdQrdorw-31" value="" style="rounded=0;whiteSpace=wrap;html=1;container=0;" parent="1" vertex="1">
          <mxGeometry x="269" y="480" width="60" height="20" as="geometry" />
        </mxCell>
        <mxCell id="mjSz9JvFEI6jEdQrdorw-32" value="" style="rounded=0;whiteSpace=wrap;html=1;container=0;" parent="1" vertex="1">
          <mxGeometry x="269" y="500" width="60" height="20" as="geometry" />
        </mxCell>
        <mxCell id="mjSz9JvFEI6jEdQrdorw-33" value="" style="rounded=0;whiteSpace=wrap;html=1;container=0;" parent="1" vertex="1">
          <mxGeometry x="269" y="520" width="60" height="20" as="geometry" />
        </mxCell>
        <mxCell id="mjSz9JvFEI6jEdQrdorw-34" value="&lt;font style=&quot;font-size: 12px;&quot;&gt;$$N+1$$&lt;/font&gt;" style="text;html=1;strokeColor=none;fillColor=none;align=center;verticalAlign=middle;whiteSpace=wrap;rounded=0;container=0;" parent="1" vertex="1">
          <mxGeometry x="59" y="475" width="50" height="30" as="geometry" />
        </mxCell>
        <mxCell id="mjSz9JvFEI6jEdQrdorw-35" value="Monitor Summary" style="text;html=1;strokeColor=none;fillColor=none;align=center;verticalAlign=middle;whiteSpace=wrap;rounded=0;container=0;fontStyle=1" parent="1" vertex="1">
          <mxGeometry x="399" y="400" width="80" height="30" as="geometry" />
        </mxCell>
        <mxCell id="mjSz9JvFEI6jEdQrdorw-36" value="Reconstructed Data" style="text;html=1;strokeColor=none;fillColor=none;align=center;verticalAlign=middle;whiteSpace=wrap;rounded=0;container=0;fontStyle=1" parent="1" vertex="1">
          <mxGeometry x="689" y="400" width="80" height="30" as="geometry" />
        </mxCell>
        <mxCell id="mjSz9JvFEI6jEdQrdorw-37" value="1D-CNN" style="text;html=1;strokeColor=none;fillColor=none;align=center;verticalAlign=middle;whiteSpace=wrap;rounded=0;container=0;fontStyle=1" parent="1" vertex="1">
          <mxGeometry x="200" y="440" width="50" height="30" as="geometry" />
        </mxCell>
        <mxCell id="mjSz9JvFEI6jEdQrdorw-38" value="" style="endArrow=classic;html=1;rounded=0;" parent="1" edge="1">
          <mxGeometry width="50" height="50" relative="1" as="geometry">
            <mxPoint x="199" y="473.75" as="sourcePoint" />
            <mxPoint x="249" y="473.75" as="targetPoint" />
          </mxGeometry>
        </mxCell>
        <mxCell id="mjSz9JvFEI6jEdQrdorw-39" style="edgeStyle=orthogonalEdgeStyle;rounded=0;orthogonalLoop=1;jettySize=auto;html=1;exitX=0;exitY=0.25;exitDx=0;exitDy=0;entryX=0.75;entryY=1;entryDx=0;entryDy=0;fillColor=#d80073;strokeColor=#A50040;" parent="1" source="mjSz9JvFEI6jEdQrdorw-40" target="mjSz9JvFEI6jEdQrdorw-10" edge="1">
          <mxGeometry relative="1" as="geometry">
            <Array as="points">
              <mxPoint x="454" y="670" />
            </Array>
          </mxGeometry>
        </mxCell>
        <mxCell id="mjSz9JvFEI6jEdQrdorw-40" value="&lt;b&gt;PM2.5&lt;/b&gt;" style="rounded=1;whiteSpace=wrap;html=1;fillColor=#f8cecc;strokeColor=#b85450;" parent="1" vertex="1">
          <mxGeometry x="509" y="660" width="60" height="40" as="geometry" />
        </mxCell>
        <mxCell id="mjSz9JvFEI6jEdQrdorw-41" value="" style="endArrow=classic;html=1;rounded=0;fillColor=#d80073;strokeColor=#A50040;" parent="1" edge="1">
          <mxGeometry width="50" height="50" relative="1" as="geometry">
            <mxPoint x="539" y="497.75" as="sourcePoint" />
            <mxPoint x="489" y="497.75" as="targetPoint" />
          </mxGeometry>
        </mxCell>
        <mxCell id="mjSz9JvFEI6jEdQrdorw-42" value="" style="endArrow=classic;html=1;rounded=0;fillColor=#d80073;strokeColor=#A50040;" parent="1" edge="1">
          <mxGeometry width="50" height="50" relative="1" as="geometry">
            <mxPoint x="679" y="497.75" as="sourcePoint" />
            <mxPoint x="629" y="497.75" as="targetPoint" />
          </mxGeometry>
        </mxCell>
        <mxCell id="mjSz9JvFEI6jEdQrdorw-43" value="" style="endArrow=classic;html=1;rounded=0;fillColor=#d80073;strokeColor=#A50040;" parent="1" edge="1">
          <mxGeometry width="50" height="50" relative="1" as="geometry">
            <mxPoint x="394" y="497.75" as="sourcePoint" />
            <mxPoint x="344" y="497.75" as="targetPoint" />
          </mxGeometry>
        </mxCell>
        <mxCell id="mjSz9JvFEI6jEdQrdorw-44" value="" style="endArrow=classic;html=1;rounded=0;fillColor=#d80073;strokeColor=#A50040;" parent="1" edge="1">
          <mxGeometry width="50" height="50" relative="1" as="geometry">
            <mxPoint x="249" y="498.75" as="sourcePoint" />
            <mxPoint x="199" y="498.75" as="targetPoint" />
          </mxGeometry>
        </mxCell>
        <mxCell id="DMjs6O6ZFJMmB_P_h6V6-14" value="" style="ellipse;whiteSpace=wrap;html=1;" parent="1" vertex="1">
          <mxGeometry x="69" y="20" width="600" height="320" as="geometry" />
        </mxCell>
        <mxCell id="DMjs6O6ZFJMmB_P_h6V6-15" value="" style="ellipse;whiteSpace=wrap;html=1;aspect=fixed;" parent="1" vertex="1">
          <mxGeometry x="239" y="100" width="20" height="20" as="geometry" />
        </mxCell>
        <mxCell id="DMjs6O6ZFJMmB_P_h6V6-16" value="" style="ellipse;whiteSpace=wrap;html=1;aspect=fixed;" parent="1" vertex="1">
          <mxGeometry x="549" y="230" width="20" height="20" as="geometry" />
        </mxCell>
        <mxCell id="DMjs6O6ZFJMmB_P_h6V6-17" value="" style="ellipse;whiteSpace=wrap;html=1;aspect=fixed;fillColor=#000000;" parent="1" vertex="1">
          <mxGeometry x="359" y="160" width="20" height="20" as="geometry" />
        </mxCell>
        <mxCell id="DMjs6O6ZFJMmB_P_h6V6-18" value="" style="ellipse;whiteSpace=wrap;html=1;aspect=fixed;" parent="1" vertex="1">
          <mxGeometry x="429" y="120" width="20" height="20" as="geometry" />
        </mxCell>
        <mxCell id="DMjs6O6ZFJMmB_P_h6V6-19" value="" style="ellipse;whiteSpace=wrap;html=1;aspect=fixed;" parent="1" vertex="1">
          <mxGeometry x="389" y="280" width="20" height="20" as="geometry" />
        </mxCell>
        <mxCell id="DMjs6O6ZFJMmB_P_h6V6-20" value="" style="rounded=0;whiteSpace=wrap;html=1;" parent="1" vertex="1">
          <mxGeometry x="209" y="80" width="20" height="60" as="geometry" />
        </mxCell>
        <mxCell id="DMjs6O6ZFJMmB_P_h6V6-21" value="" style="rounded=0;whiteSpace=wrap;html=1;" parent="1" vertex="1">
          <mxGeometry x="469" y="100" width="20" height="60" as="geometry" />
        </mxCell>
        <mxCell id="DMjs6O6ZFJMmB_P_h6V6-22" value="" style="rounded=0;whiteSpace=wrap;html=1;fillColor=#d0cee2;strokeColor=#56517e;" parent="1" vertex="1">
          <mxGeometry x="329" y="140" width="20" height="60" as="geometry" />
        </mxCell>
        <mxCell id="DMjs6O6ZFJMmB_P_h6V6-23" value="" style="rounded=0;whiteSpace=wrap;html=1;" parent="1" vertex="1">
          <mxGeometry x="519" y="210" width="20" height="60" as="geometry" />
        </mxCell>
        <mxCell id="DMjs6O6ZFJMmB_P_h6V6-24" value="" style="rounded=0;whiteSpace=wrap;html=1;" parent="1" vertex="1">
          <mxGeometry x="359" y="260" width="20" height="60" as="geometry" />
        </mxCell>
        <mxCell id="DMjs6O6ZFJMmB_P_h6V6-25" value="&lt;font style=&quot;font-size: 12px;&quot;&gt;$$d_x$$&lt;/font&gt;" style="text;html=1;strokeColor=none;fillColor=none;align=center;verticalAlign=middle;whiteSpace=wrap;rounded=0;" parent="1" vertex="1">
          <mxGeometry x="179" y="95" width="30" height="30" as="geometry" />
        </mxCell>
        <mxCell id="DMjs6O6ZFJMmB_P_h6V6-26" value="$$x$$" style="text;html=1;strokeColor=none;fillColor=none;align=center;verticalAlign=middle;whiteSpace=wrap;rounded=0;" parent="1" vertex="1">
          <mxGeometry x="204" y="60" width="30" height="20" as="geometry" />
        </mxCell>
        <mxCell id="CY-4aAEoXqvJiR2QbqVM-1" value="" style="endArrow=classic;html=1;rounded=0;exitX=0.5;exitY=1;exitDx=0;exitDy=0;entryX=1;entryY=0;entryDx=0;entryDy=0;dashed=1;" parent="1" edge="1">
          <mxGeometry width="50" height="50" relative="1" as="geometry">
            <mxPoint x="209" y="140" as="sourcePoint" />
            <mxPoint x="159" y="440" as="targetPoint" />
          </mxGeometry>
        </mxCell>
        <mxCell id="CY-4aAEoXqvJiR2QbqVM-2" value="" style="endArrow=classic;html=1;rounded=0;exitX=0.25;exitY=1;exitDx=0;exitDy=0;entryX=1;entryY=0.5;entryDx=0;entryDy=0;dashed=1;" parent="1" edge="1">
          <mxGeometry width="50" height="50" relative="1" as="geometry">
            <mxPoint x="334" y="200" as="sourcePoint" />
            <mxPoint x="169" y="490" as="targetPoint" />
          </mxGeometry>
        </mxCell>
        <mxCell id="TRtnq9XZal4cLfQD0bhI-1" value="" style="endArrow=classic;html=1;rounded=0;fillColor=#d80073;strokeColor=#A50040;" parent="1" edge="1">
          <mxGeometry width="50" height="50" relative="1" as="geometry">
            <mxPoint x="40" y="674.5" as="sourcePoint" />
            <mxPoint x="95" y="674.5" as="targetPoint" />
          </mxGeometry>
        </mxCell>
        <mxCell id="TRtnq9XZal4cLfQD0bhI-2" value="&lt;b&gt;:&amp;nbsp; &amp;nbsp; backporpagation&lt;/b&gt;" style="text;html=1;strokeColor=none;fillColor=none;align=center;verticalAlign=middle;whiteSpace=wrap;rounded=0;" parent="1" vertex="1">
          <mxGeometry x="92.5" y="660" width="127.5" height="30" as="geometry" />
        </mxCell>
        <mxCell id="TRtnq9XZal4cLfQD0bhI-3" value="" style="endArrow=classic;html=1;rounded=0;fillColor=#d80073;strokeColor=#000000;" parent="1" edge="1">
          <mxGeometry width="50" height="50" relative="1" as="geometry">
            <mxPoint x="40" y="644.5" as="sourcePoint" />
            <mxPoint x="95" y="644.5" as="targetPoint" />
          </mxGeometry>
        </mxCell>
        <mxCell id="TRtnq9XZal4cLfQD0bhI-4" value="&lt;b&gt;:&amp;nbsp; &amp;nbsp; forward porpagation&lt;/b&gt;" style="text;html=1;strokeColor=none;fillColor=none;align=center;verticalAlign=middle;whiteSpace=wrap;rounded=0;" parent="1" vertex="1">
          <mxGeometry x="92.5" y="630" width="147.5" height="30" as="geometry" />
        </mxCell>
        <mxCell id="TRtnq9XZal4cLfQD0bhI-5" value="&lt;b&gt;Object&lt;/b&gt;" style="text;html=1;strokeColor=none;fillColor=none;align=center;verticalAlign=middle;whiteSpace=wrap;rounded=0;" parent="1" vertex="1">
          <mxGeometry x="309" y="110" width="60" height="30" as="geometry" />
        </mxCell>
        <mxCell id="TRtnq9XZal4cLfQD0bhI-6" value="&lt;b&gt;Nearby Station&lt;/b&gt;" style="text;html=1;strokeColor=none;fillColor=none;align=center;verticalAlign=middle;whiteSpace=wrap;rounded=0;" parent="1" vertex="1">
          <mxGeometry x="430" y="70" width="98" height="30" as="geometry" />
        </mxCell>
        <mxCell id="1ujNwXRjQIqJzPQ8FHi--1" value="&lt;b&gt;Encoder Layers&lt;/b&gt;" style="text;html=1;strokeColor=#6c8ebf;fillColor=#dae8fc;align=center;verticalAlign=middle;whiteSpace=wrap;rounded=0;fontStyle=0" parent="1" vertex="1">
          <mxGeometry x="200" y="555" width="199" height="30" as="geometry" />
        </mxCell>
        <mxCell id="wOXzrZ0OmktouR9mBWgj-1" value="&lt;b&gt;Decoder Layers&lt;/b&gt;" style="text;html=1;strokeColor=#82b366;fillColor=#d5e8d4;align=center;verticalAlign=middle;whiteSpace=wrap;rounded=0;fontStyle=0" parent="1" vertex="1">
          <mxGeometry x="489" y="555" width="220" height="30" as="geometry" />
        </mxCell>
        <mxCell id="wOXzrZ0OmktouR9mBWgj-2" style="edgeStyle=orthogonalEdgeStyle;rounded=0;orthogonalLoop=1;jettySize=auto;html=1;exitX=0.5;exitY=1;exitDx=0;exitDy=0;" parent="1" source="1ujNwXRjQIqJzPQ8FHi--1" target="1ujNwXRjQIqJzPQ8FHi--1" edge="1">
          <mxGeometry relative="1" as="geometry" />
        </mxCell>
        <mxCell id="wOXzrZ0OmktouR9mBWgj-3" value="&lt;b&gt;Estimator Layer&lt;/b&gt;" style="text;html=1;strokeColor=#b85450;fillColor=#f8cecc;align=center;verticalAlign=middle;whiteSpace=wrap;rounded=0;fontStyle=0" parent="1" vertex="1">
          <mxGeometry x="403.5" y="710" width="71" height="30" as="geometry" />
        </mxCell>
      </root>
    </mxGraphModel>
  </diagram>
  <diagram name="Spatial Autoencoder partly Tuning" id="NQEMZRmgmkAD887lIVIO">
    <mxGraphModel dx="1434" dy="796" grid="1" gridSize="10" guides="1" tooltips="1" connect="1" arrows="1" fold="1" page="1" pageScale="1" pageWidth="827" pageHeight="1169" math="1" shadow="0">
      <root>
        <mxCell id="0" />
        <mxCell id="1" parent="0" />
        <mxCell id="IIgzcpDPCEp5MtAR_YNs-61" value="" style="rounded=0;whiteSpace=wrap;html=1;" parent="1" vertex="1">
          <mxGeometry x="30" y="410" width="770" height="270" as="geometry" />
        </mxCell>
        <mxCell id="IIgzcpDPCEp5MtAR_YNs-1" value="" style="ellipse;whiteSpace=wrap;html=1;" parent="1" vertex="1">
          <mxGeometry x="40" y="50" width="600" height="320" as="geometry" />
        </mxCell>
        <mxCell id="IIgzcpDPCEp5MtAR_YNs-2" value="&lt;b&gt;&lt;font style=&quot;font-size: 14px;&quot;&gt;Source&lt;/font&gt;&lt;/b&gt;" style="text;html=1;strokeColor=none;fillColor=none;align=center;verticalAlign=middle;whiteSpace=wrap;rounded=0;" parent="1" vertex="1">
          <mxGeometry x="290" y="10" width="100" height="30" as="geometry" />
        </mxCell>
        <mxCell id="IIgzcpDPCEp5MtAR_YNs-3" value="" style="ellipse;whiteSpace=wrap;html=1;aspect=fixed;" parent="1" vertex="1">
          <mxGeometry x="210" y="130" width="20" height="20" as="geometry" />
        </mxCell>
        <mxCell id="IIgzcpDPCEp5MtAR_YNs-4" value="" style="ellipse;whiteSpace=wrap;html=1;aspect=fixed;" parent="1" vertex="1">
          <mxGeometry x="520" y="260" width="20" height="20" as="geometry" />
        </mxCell>
        <mxCell id="IIgzcpDPCEp5MtAR_YNs-5" value="" style="ellipse;whiteSpace=wrap;html=1;aspect=fixed;fillColor=#000000;" parent="1" vertex="1">
          <mxGeometry x="330" y="190" width="20" height="20" as="geometry" />
        </mxCell>
        <mxCell id="IIgzcpDPCEp5MtAR_YNs-6" value="" style="ellipse;whiteSpace=wrap;html=1;aspect=fixed;" parent="1" vertex="1">
          <mxGeometry x="400" y="150" width="20" height="20" as="geometry" />
        </mxCell>
        <mxCell id="IIgzcpDPCEp5MtAR_YNs-7" value="" style="ellipse;whiteSpace=wrap;html=1;aspect=fixed;" parent="1" vertex="1">
          <mxGeometry x="360" y="310" width="20" height="20" as="geometry" />
        </mxCell>
        <mxCell id="IIgzcpDPCEp5MtAR_YNs-8" value="" style="rounded=0;whiteSpace=wrap;html=1;" parent="1" vertex="1">
          <mxGeometry x="180" y="110" width="20" height="60" as="geometry" />
        </mxCell>
        <mxCell id="IIgzcpDPCEp5MtAR_YNs-10" value="" style="rounded=0;whiteSpace=wrap;html=1;" parent="1" vertex="1">
          <mxGeometry x="440" y="130" width="20" height="60" as="geometry" />
        </mxCell>
        <mxCell id="IIgzcpDPCEp5MtAR_YNs-11" value="" style="rounded=0;whiteSpace=wrap;html=1;fillColor=#d0cee2;strokeColor=#56517e;" parent="1" vertex="1">
          <mxGeometry x="300" y="170" width="20" height="60" as="geometry" />
        </mxCell>
        <mxCell id="IIgzcpDPCEp5MtAR_YNs-12" value="" style="rounded=0;whiteSpace=wrap;html=1;" parent="1" vertex="1">
          <mxGeometry x="490" y="240" width="20" height="60" as="geometry" />
        </mxCell>
        <mxCell id="IIgzcpDPCEp5MtAR_YNs-13" value="" style="rounded=0;whiteSpace=wrap;html=1;" parent="1" vertex="1">
          <mxGeometry x="330" y="290" width="20" height="60" as="geometry" />
        </mxCell>
        <mxCell id="IIgzcpDPCEp5MtAR_YNs-15" value="&lt;font style=&quot;font-size: 12px;&quot;&gt;$$d_x$$&lt;/font&gt;" style="text;html=1;strokeColor=none;fillColor=none;align=center;verticalAlign=middle;whiteSpace=wrap;rounded=0;" parent="1" vertex="1">
          <mxGeometry x="150" y="125" width="30" height="30" as="geometry" />
        </mxCell>
        <mxCell id="IIgzcpDPCEp5MtAR_YNs-16" value="$$x$$" style="text;html=1;strokeColor=none;fillColor=none;align=center;verticalAlign=middle;whiteSpace=wrap;rounded=0;" parent="1" vertex="1">
          <mxGeometry x="175" y="90" width="30" height="20" as="geometry" />
        </mxCell>
        <mxCell id="IIgzcpDPCEp5MtAR_YNs-23" value="" style="endArrow=classic;html=1;rounded=0;exitX=0.5;exitY=1;exitDx=0;exitDy=0;entryX=1;entryY=0;entryDx=0;entryDy=0;dashed=1;" parent="1" source="IIgzcpDPCEp5MtAR_YNs-8" target="IIgzcpDPCEp5MtAR_YNs-14" edge="1">
          <mxGeometry width="50" height="50" relative="1" as="geometry">
            <mxPoint x="390" y="370" as="sourcePoint" />
            <mxPoint x="440" y="320" as="targetPoint" />
          </mxGeometry>
        </mxCell>
        <mxCell id="IIgzcpDPCEp5MtAR_YNs-24" value="" style="endArrow=classic;html=1;rounded=0;exitX=0.25;exitY=1;exitDx=0;exitDy=0;entryX=1;entryY=0.5;entryDx=0;entryDy=0;dashed=1;" parent="1" source="IIgzcpDPCEp5MtAR_YNs-11" target="IIgzcpDPCEp5MtAR_YNs-18" edge="1">
          <mxGeometry width="50" height="50" relative="1" as="geometry">
            <mxPoint x="260" y="180" as="sourcePoint" />
            <mxPoint x="160" y="420" as="targetPoint" />
          </mxGeometry>
        </mxCell>
        <mxCell id="IIgzcpDPCEp5MtAR_YNs-21" value="&lt;font style=&quot;font-size: 12px;&quot;&gt;$$d_x$$&lt;/font&gt;" style="text;html=1;strokeColor=none;fillColor=none;align=center;verticalAlign=middle;whiteSpace=wrap;rounded=0;container=0;" parent="1" vertex="1">
          <mxGeometry x="95" y="440" width="30" height="30" as="geometry" />
        </mxCell>
        <mxCell id="IIgzcpDPCEp5MtAR_YNs-34" value="1x1 CNN" style="text;html=1;strokeColor=none;fillColor=none;align=center;verticalAlign=middle;whiteSpace=wrap;rounded=0;container=0;" parent="1" vertex="1">
          <mxGeometry x="170" y="490" width="50" height="30" as="geometry" />
        </mxCell>
        <mxCell id="IIgzcpDPCEp5MtAR_YNs-42" value="" style="endArrow=classic;html=1;rounded=0;" parent="1" edge="1">
          <mxGeometry width="50" height="50" relative="1" as="geometry">
            <mxPoint x="315" y="524" as="sourcePoint" />
            <mxPoint x="365" y="524" as="targetPoint" />
          </mxGeometry>
        </mxCell>
        <mxCell id="IIgzcpDPCEp5MtAR_YNs-51" value="" style="endArrow=classic;html=1;rounded=0;" parent="1" edge="1">
          <mxGeometry width="50" height="50" relative="1" as="geometry">
            <mxPoint x="460" y="525" as="sourcePoint" />
            <mxPoint x="510" y="525" as="targetPoint" />
          </mxGeometry>
        </mxCell>
        <mxCell id="IIgzcpDPCEp5MtAR_YNs-59" value="" style="endArrow=classic;html=1;rounded=0;" parent="1" edge="1">
          <mxGeometry width="50" height="50" relative="1" as="geometry">
            <mxPoint x="600" y="525" as="sourcePoint" />
            <mxPoint x="650" y="525" as="targetPoint" />
          </mxGeometry>
        </mxCell>
        <mxCell id="IIgzcpDPCEp5MtAR_YNs-25" value="&lt;font style=&quot;font-size: 12px;&quot;&gt;$$N+1$$&lt;/font&gt;" style="text;html=1;strokeColor=none;fillColor=none;align=center;verticalAlign=middle;whiteSpace=wrap;rounded=0;container=0;" parent="1" vertex="1">
          <mxGeometry x="30" y="505" width="50" height="30" as="geometry" />
        </mxCell>
        <mxCell id="IIgzcpDPCEp5MtAR_YNs-35" value="" style="endArrow=classic;html=1;rounded=0;" parent="1" edge="1">
          <mxGeometry width="50" height="50" relative="1" as="geometry">
            <mxPoint x="170" y="525" as="sourcePoint" />
            <mxPoint x="220" y="525" as="targetPoint" />
          </mxGeometry>
        </mxCell>
        <mxCell id="IIgzcpDPCEp5MtAR_YNs-37" value="" style="rounded=0;whiteSpace=wrap;html=1;container=0;" parent="1" vertex="1">
          <mxGeometry x="380" y="470" width="60" height="20" as="geometry" />
        </mxCell>
        <mxCell id="IIgzcpDPCEp5MtAR_YNs-146" style="edgeStyle=orthogonalEdgeStyle;rounded=0;orthogonalLoop=1;jettySize=auto;html=1;exitX=1;exitY=0.5;exitDx=0;exitDy=0;entryX=0;entryY=0.75;entryDx=0;entryDy=0;dashed=1;" parent="1" source="IIgzcpDPCEp5MtAR_YNs-38" target="IIgzcpDPCEp5MtAR_YNs-135" edge="1">
          <mxGeometry relative="1" as="geometry">
            <Array as="points">
              <mxPoint x="440" y="440" />
              <mxPoint x="563" y="440" />
              <mxPoint x="563" y="325" />
            </Array>
          </mxGeometry>
        </mxCell>
        <mxCell id="IIgzcpDPCEp5MtAR_YNs-38" value="" style="rounded=0;whiteSpace=wrap;html=1;container=0;" parent="1" vertex="1">
          <mxGeometry x="380" y="490" width="60" height="20" as="geometry" />
        </mxCell>
        <mxCell id="IIgzcpDPCEp5MtAR_YNs-39" value="" style="rounded=0;whiteSpace=wrap;html=1;container=0;" parent="1" vertex="1">
          <mxGeometry x="380" y="510" width="60" height="20" as="geometry" />
        </mxCell>
        <mxCell id="IIgzcpDPCEp5MtAR_YNs-40" value="" style="rounded=0;whiteSpace=wrap;html=1;container=0;" parent="1" vertex="1">
          <mxGeometry x="380" y="530" width="60" height="20" as="geometry" />
        </mxCell>
        <mxCell id="IIgzcpDPCEp5MtAR_YNs-41" value="" style="rounded=0;whiteSpace=wrap;html=1;container=0;" parent="1" vertex="1">
          <mxGeometry x="380" y="550" width="60" height="20" as="geometry" />
        </mxCell>
        <mxCell id="IIgzcpDPCEp5MtAR_YNs-43" value="FNN" style="text;html=1;strokeColor=none;fillColor=none;align=center;verticalAlign=middle;whiteSpace=wrap;rounded=0;container=0;" parent="1" vertex="1">
          <mxGeometry x="310" y="481.25" width="60" height="30" as="geometry" />
        </mxCell>
        <mxCell id="IIgzcpDPCEp5MtAR_YNs-45" value="" style="rounded=0;whiteSpace=wrap;html=1;container=0;" parent="1" vertex="1">
          <mxGeometry x="520" y="470" width="60" height="20" as="geometry" />
        </mxCell>
        <mxCell id="IIgzcpDPCEp5MtAR_YNs-46" value="" style="rounded=0;whiteSpace=wrap;html=1;container=0;" parent="1" vertex="1">
          <mxGeometry x="520" y="490" width="60" height="20" as="geometry" />
        </mxCell>
        <mxCell id="IIgzcpDPCEp5MtAR_YNs-47" value="" style="rounded=0;whiteSpace=wrap;html=1;container=0;" parent="1" vertex="1">
          <mxGeometry x="520" y="510" width="60" height="20" as="geometry" />
        </mxCell>
        <mxCell id="IIgzcpDPCEp5MtAR_YNs-48" value="" style="rounded=0;whiteSpace=wrap;html=1;container=0;" parent="1" vertex="1">
          <mxGeometry x="520" y="530" width="60" height="20" as="geometry" />
        </mxCell>
        <mxCell id="IIgzcpDPCEp5MtAR_YNs-49" value="" style="rounded=0;whiteSpace=wrap;html=1;container=0;" parent="1" vertex="1">
          <mxGeometry x="520" y="550" width="60" height="20" as="geometry" />
        </mxCell>
        <mxCell id="IIgzcpDPCEp5MtAR_YNs-50" value="1x1 CNN" style="text;html=1;strokeColor=none;fillColor=none;align=center;verticalAlign=middle;whiteSpace=wrap;rounded=0;container=0;" parent="1" vertex="1">
          <mxGeometry x="460" y="481.25" width="50" height="30" as="geometry" />
        </mxCell>
        <mxCell id="IIgzcpDPCEp5MtAR_YNs-53" value="" style="rounded=0;whiteSpace=wrap;html=1;container=0;" parent="1" vertex="1">
          <mxGeometry x="670" y="470" width="60" height="20" as="geometry" />
        </mxCell>
        <mxCell id="IIgzcpDPCEp5MtAR_YNs-54" value="" style="rounded=0;whiteSpace=wrap;html=1;container=0;" parent="1" vertex="1">
          <mxGeometry x="670" y="490" width="60" height="20" as="geometry" />
        </mxCell>
        <mxCell id="IIgzcpDPCEp5MtAR_YNs-55" value="" style="rounded=0;whiteSpace=wrap;html=1;container=0;" parent="1" vertex="1">
          <mxGeometry x="670" y="510" width="60" height="20" as="geometry" />
        </mxCell>
        <mxCell id="IIgzcpDPCEp5MtAR_YNs-56" value="" style="rounded=0;whiteSpace=wrap;html=1;container=0;" parent="1" vertex="1">
          <mxGeometry x="670" y="530" width="60" height="20" as="geometry" />
        </mxCell>
        <mxCell id="IIgzcpDPCEp5MtAR_YNs-57" value="" style="rounded=0;whiteSpace=wrap;html=1;container=0;" parent="1" vertex="1">
          <mxGeometry x="670" y="550" width="60" height="20" as="geometry" />
        </mxCell>
        <mxCell id="IIgzcpDPCEp5MtAR_YNs-58" value="d&lt;sub&gt;x&lt;/sub&gt;x1 CNN" style="text;html=1;strokeColor=none;fillColor=none;align=center;verticalAlign=middle;whiteSpace=wrap;rounded=0;container=0;" parent="1" vertex="1">
          <mxGeometry x="600" y="481.25" width="50" height="30" as="geometry" />
        </mxCell>
        <mxCell id="IIgzcpDPCEp5MtAR_YNs-14" value="" style="rounded=0;whiteSpace=wrap;html=1;container=0;" parent="1" vertex="1">
          <mxGeometry x="80" y="470" width="60" height="20" as="geometry" />
        </mxCell>
        <mxCell id="IIgzcpDPCEp5MtAR_YNs-17" value="" style="rounded=0;whiteSpace=wrap;html=1;container=0;" parent="1" vertex="1">
          <mxGeometry x="80" y="490" width="60" height="20" as="geometry" />
        </mxCell>
        <mxCell id="IIgzcpDPCEp5MtAR_YNs-18" value="" style="rounded=0;whiteSpace=wrap;html=1;fillColor=#d0cee2;strokeColor=#56517e;container=0;" parent="1" vertex="1">
          <mxGeometry x="80" y="510" width="60" height="20" as="geometry" />
        </mxCell>
        <mxCell id="IIgzcpDPCEp5MtAR_YNs-19" value="" style="rounded=0;whiteSpace=wrap;html=1;container=0;" parent="1" vertex="1">
          <mxGeometry x="80" y="530" width="60" height="20" as="geometry" />
        </mxCell>
        <mxCell id="IIgzcpDPCEp5MtAR_YNs-20" value="" style="rounded=0;whiteSpace=wrap;html=1;container=0;" parent="1" vertex="1">
          <mxGeometry x="80" y="550" width="60" height="20" as="geometry" />
        </mxCell>
        <mxCell id="IIgzcpDPCEp5MtAR_YNs-28" value="" style="rounded=0;whiteSpace=wrap;html=1;container=0;" parent="1" vertex="1">
          <mxGeometry x="240" y="470" width="60" height="20" as="geometry" />
        </mxCell>
        <mxCell id="IIgzcpDPCEp5MtAR_YNs-29" value="" style="rounded=0;whiteSpace=wrap;html=1;container=0;" parent="1" vertex="1">
          <mxGeometry x="240" y="490" width="60" height="20" as="geometry" />
        </mxCell>
        <mxCell id="IIgzcpDPCEp5MtAR_YNs-30" value="" style="rounded=0;whiteSpace=wrap;html=1;container=0;" parent="1" vertex="1">
          <mxGeometry x="240" y="510" width="60" height="20" as="geometry" />
        </mxCell>
        <mxCell id="IIgzcpDPCEp5MtAR_YNs-31" value="" style="rounded=0;whiteSpace=wrap;html=1;container=0;" parent="1" vertex="1">
          <mxGeometry x="240" y="530" width="60" height="20" as="geometry" />
        </mxCell>
        <mxCell id="IIgzcpDPCEp5MtAR_YNs-32" value="" style="rounded=0;whiteSpace=wrap;html=1;container=0;" parent="1" vertex="1">
          <mxGeometry x="240" y="550" width="60" height="20" as="geometry" />
        </mxCell>
        <mxCell id="IIgzcpDPCEp5MtAR_YNs-60" value="&lt;font style=&quot;font-size: 14px;&quot;&gt;&lt;b&gt;Source Autoencoder Model&lt;/b&gt;&lt;/font&gt;" style="text;html=1;strokeColor=none;fillColor=none;align=center;verticalAlign=middle;whiteSpace=wrap;rounded=0;" parent="1" vertex="1">
          <mxGeometry x="300" y="410" width="200" height="30" as="geometry" />
        </mxCell>
        <mxCell id="IIgzcpDPCEp5MtAR_YNs-63" value="$$C_1$$" style="text;html=1;strokeColor=none;fillColor=none;align=center;verticalAlign=middle;whiteSpace=wrap;rounded=0;container=0;" parent="1" vertex="1">
          <mxGeometry x="240" y="440" width="60" height="30" as="geometry" />
        </mxCell>
        <mxCell id="IIgzcpDPCEp5MtAR_YNs-64" value="$$F$$" style="text;html=1;strokeColor=none;fillColor=none;align=center;verticalAlign=middle;whiteSpace=wrap;rounded=0;container=0;" parent="1" vertex="1">
          <mxGeometry x="380" y="440" width="60" height="30" as="geometry" />
        </mxCell>
        <mxCell id="IIgzcpDPCEp5MtAR_YNs-65" value="$$C_2$$" style="text;html=1;strokeColor=none;fillColor=none;align=center;verticalAlign=middle;whiteSpace=wrap;rounded=0;container=0;" parent="1" vertex="1">
          <mxGeometry x="520" y="440" width="60" height="30" as="geometry" />
        </mxCell>
        <mxCell id="IIgzcpDPCEp5MtAR_YNs-66" value="&lt;font style=&quot;font-size: 12px;&quot;&gt;$$d_x$$&lt;/font&gt;" style="text;html=1;strokeColor=none;fillColor=none;align=center;verticalAlign=middle;whiteSpace=wrap;rounded=0;container=0;" parent="1" vertex="1">
          <mxGeometry x="685" y="440" width="30" height="30" as="geometry" />
        </mxCell>
        <mxCell id="IIgzcpDPCEp5MtAR_YNs-67" value="$$e_s$$" style="text;html=1;strokeColor=#6c8ebf;fillColor=#dae8fc;align=center;verticalAlign=middle;whiteSpace=wrap;rounded=0;fontStyle=0" parent="1" vertex="1">
          <mxGeometry x="160" y="590" width="220" height="30" as="geometry" />
        </mxCell>
        <mxCell id="IIgzcpDPCEp5MtAR_YNs-68" value="$$d_s$$" style="text;html=1;strokeColor=#b85450;fillColor=#f8cecc;align=center;verticalAlign=middle;whiteSpace=wrap;rounded=0;fontStyle=0" parent="1" vertex="1">
          <mxGeometry x="450" y="590" width="210" height="30" as="geometry" />
        </mxCell>
        <mxCell id="IIgzcpDPCEp5MtAR_YNs-69" value="Source Encoder" style="text;html=1;strokeColor=none;fillColor=none;align=center;verticalAlign=middle;whiteSpace=wrap;rounded=0;fontStyle=0" parent="1" vertex="1">
          <mxGeometry x="210" y="630" width="120" height="30" as="geometry" />
        </mxCell>
        <mxCell id="IIgzcpDPCEp5MtAR_YNs-70" value="Source Decoder" style="text;html=1;strokeColor=none;fillColor=none;align=center;verticalAlign=middle;whiteSpace=wrap;rounded=0;fontStyle=0" parent="1" vertex="1">
          <mxGeometry x="490" y="630" width="120" height="30" as="geometry" />
        </mxCell>
        <mxCell id="IIgzcpDPCEp5MtAR_YNs-71" value="" style="shape=flexArrow;endArrow=classic;html=1;rounded=0;" parent="1" edge="1">
          <mxGeometry width="50" height="50" relative="1" as="geometry">
            <mxPoint x="413" y="690" as="sourcePoint" />
            <mxPoint x="413" y="760" as="targetPoint" />
          </mxGeometry>
        </mxCell>
        <mxCell id="IIgzcpDPCEp5MtAR_YNs-72" value="Transfer Learning" style="text;html=1;strokeColor=none;fillColor=none;align=center;verticalAlign=middle;whiteSpace=wrap;rounded=0;fontSize=14;" parent="1" vertex="1">
          <mxGeometry x="425" y="700" width="90" height="30" as="geometry" />
        </mxCell>
        <mxCell id="IIgzcpDPCEp5MtAR_YNs-73" value="" style="rounded=0;whiteSpace=wrap;html=1;" parent="1" vertex="1">
          <mxGeometry x="30" y="770" width="770" height="270" as="geometry" />
        </mxCell>
        <mxCell id="IIgzcpDPCEp5MtAR_YNs-74" value="&lt;font style=&quot;font-size: 12px;&quot;&gt;$$d_x$$&lt;/font&gt;" style="text;html=1;strokeColor=none;fillColor=none;align=center;verticalAlign=middle;whiteSpace=wrap;rounded=0;container=0;" parent="1" vertex="1">
          <mxGeometry x="95" y="800" width="30" height="30" as="geometry" />
        </mxCell>
        <mxCell id="IIgzcpDPCEp5MtAR_YNs-75" value="1x1 Conv" style="text;html=1;strokeColor=none;fillColor=none;align=center;verticalAlign=middle;whiteSpace=wrap;rounded=0;container=0;" parent="1" vertex="1">
          <mxGeometry x="170" y="850" width="50" height="30" as="geometry" />
        </mxCell>
        <mxCell id="IIgzcpDPCEp5MtAR_YNs-76" value="" style="endArrow=classic;html=1;rounded=0;" parent="1" edge="1">
          <mxGeometry width="50" height="50" relative="1" as="geometry">
            <mxPoint x="315" y="884" as="sourcePoint" />
            <mxPoint x="365" y="884" as="targetPoint" />
          </mxGeometry>
        </mxCell>
        <mxCell id="IIgzcpDPCEp5MtAR_YNs-77" value="" style="endArrow=classic;html=1;rounded=0;" parent="1" edge="1">
          <mxGeometry width="50" height="50" relative="1" as="geometry">
            <mxPoint x="460" y="885" as="sourcePoint" />
            <mxPoint x="510" y="885" as="targetPoint" />
          </mxGeometry>
        </mxCell>
        <mxCell id="IIgzcpDPCEp5MtAR_YNs-78" value="" style="endArrow=classic;html=1;rounded=0;" parent="1" edge="1">
          <mxGeometry width="50" height="50" relative="1" as="geometry">
            <mxPoint x="600" y="885" as="sourcePoint" />
            <mxPoint x="650" y="885" as="targetPoint" />
          </mxGeometry>
        </mxCell>
        <mxCell id="IIgzcpDPCEp5MtAR_YNs-79" value="&lt;font style=&quot;font-size: 12px;&quot;&gt;$$N+1$$&lt;/font&gt;" style="text;html=1;strokeColor=none;fillColor=none;align=center;verticalAlign=middle;whiteSpace=wrap;rounded=0;container=0;" parent="1" vertex="1">
          <mxGeometry x="30" y="865" width="50" height="30" as="geometry" />
        </mxCell>
        <mxCell id="IIgzcpDPCEp5MtAR_YNs-80" value="" style="endArrow=classic;html=1;rounded=0;" parent="1" edge="1">
          <mxGeometry width="50" height="50" relative="1" as="geometry">
            <mxPoint x="170" y="885" as="sourcePoint" />
            <mxPoint x="220" y="885" as="targetPoint" />
          </mxGeometry>
        </mxCell>
        <mxCell id="IIgzcpDPCEp5MtAR_YNs-81" value="" style="rounded=0;whiteSpace=wrap;html=1;container=0;" parent="1" vertex="1">
          <mxGeometry x="380" y="830" width="60" height="20" as="geometry" />
        </mxCell>
        <mxCell id="IIgzcpDPCEp5MtAR_YNs-82" value="" style="rounded=0;whiteSpace=wrap;html=1;container=0;" parent="1" vertex="1">
          <mxGeometry x="380" y="850" width="60" height="20" as="geometry" />
        </mxCell>
        <mxCell id="IIgzcpDPCEp5MtAR_YNs-83" value="" style="rounded=0;whiteSpace=wrap;html=1;container=0;" parent="1" vertex="1">
          <mxGeometry x="380" y="870" width="60" height="20" as="geometry" />
        </mxCell>
        <mxCell id="IIgzcpDPCEp5MtAR_YNs-84" value="" style="rounded=0;whiteSpace=wrap;html=1;container=0;" parent="1" vertex="1">
          <mxGeometry x="380" y="890" width="60" height="20" as="geometry" />
        </mxCell>
        <mxCell id="IIgzcpDPCEp5MtAR_YNs-131" style="edgeStyle=orthogonalEdgeStyle;rounded=0;orthogonalLoop=1;jettySize=auto;html=1;entryX=0.5;entryY=0;entryDx=0;entryDy=0;dashed=1;" parent="1" source="IIgzcpDPCEp5MtAR_YNs-85" target="IIgzcpDPCEp5MtAR_YNs-119" edge="1">
          <mxGeometry relative="1" as="geometry">
            <Array as="points">
              <mxPoint x="410" y="1020" />
              <mxPoint x="140" y="1020" />
            </Array>
          </mxGeometry>
        </mxCell>
        <mxCell id="IIgzcpDPCEp5MtAR_YNs-85" value="" style="rounded=0;whiteSpace=wrap;html=1;container=0;" parent="1" vertex="1">
          <mxGeometry x="380" y="910" width="60" height="20" as="geometry" />
        </mxCell>
        <mxCell id="IIgzcpDPCEp5MtAR_YNs-86" value="FNN" style="text;html=1;strokeColor=none;fillColor=none;align=center;verticalAlign=middle;whiteSpace=wrap;rounded=0;container=0;" parent="1" vertex="1">
          <mxGeometry x="310" y="841.25" width="60" height="30" as="geometry" />
        </mxCell>
        <mxCell id="IIgzcpDPCEp5MtAR_YNs-87" value="" style="rounded=0;whiteSpace=wrap;html=1;container=0;" parent="1" vertex="1">
          <mxGeometry x="520" y="830" width="60" height="20" as="geometry" />
        </mxCell>
        <mxCell id="IIgzcpDPCEp5MtAR_YNs-88" value="" style="rounded=0;whiteSpace=wrap;html=1;container=0;" parent="1" vertex="1">
          <mxGeometry x="520" y="850" width="60" height="20" as="geometry" />
        </mxCell>
        <mxCell id="IIgzcpDPCEp5MtAR_YNs-89" value="" style="rounded=0;whiteSpace=wrap;html=1;container=0;" parent="1" vertex="1">
          <mxGeometry x="520" y="870" width="60" height="20" as="geometry" />
        </mxCell>
        <mxCell id="IIgzcpDPCEp5MtAR_YNs-90" value="" style="rounded=0;whiteSpace=wrap;html=1;container=0;" parent="1" vertex="1">
          <mxGeometry x="520" y="890" width="60" height="20" as="geometry" />
        </mxCell>
        <mxCell id="IIgzcpDPCEp5MtAR_YNs-91" value="" style="rounded=0;whiteSpace=wrap;html=1;container=0;" parent="1" vertex="1">
          <mxGeometry x="520" y="910" width="60" height="20" as="geometry" />
        </mxCell>
        <mxCell id="IIgzcpDPCEp5MtAR_YNs-92" value="1x1 Conv" style="text;html=1;strokeColor=none;fillColor=none;align=center;verticalAlign=middle;whiteSpace=wrap;rounded=0;container=0;" parent="1" vertex="1">
          <mxGeometry x="460" y="841.25" width="50" height="30" as="geometry" />
        </mxCell>
        <mxCell id="IIgzcpDPCEp5MtAR_YNs-93" value="" style="rounded=0;whiteSpace=wrap;html=1;container=0;" parent="1" vertex="1">
          <mxGeometry x="670" y="830" width="60" height="20" as="geometry" />
        </mxCell>
        <mxCell id="IIgzcpDPCEp5MtAR_YNs-94" value="" style="rounded=0;whiteSpace=wrap;html=1;container=0;" parent="1" vertex="1">
          <mxGeometry x="670" y="850" width="60" height="20" as="geometry" />
        </mxCell>
        <mxCell id="IIgzcpDPCEp5MtAR_YNs-95" value="" style="rounded=0;whiteSpace=wrap;html=1;container=0;" parent="1" vertex="1">
          <mxGeometry x="670" y="870" width="60" height="20" as="geometry" />
        </mxCell>
        <mxCell id="IIgzcpDPCEp5MtAR_YNs-96" value="" style="rounded=0;whiteSpace=wrap;html=1;container=0;" parent="1" vertex="1">
          <mxGeometry x="670" y="890" width="60" height="20" as="geometry" />
        </mxCell>
        <mxCell id="IIgzcpDPCEp5MtAR_YNs-97" value="" style="rounded=0;whiteSpace=wrap;html=1;container=0;" parent="1" vertex="1">
          <mxGeometry x="670" y="910" width="60" height="20" as="geometry" />
        </mxCell>
        <mxCell id="IIgzcpDPCEp5MtAR_YNs-98" value="d&lt;sub&gt;x&lt;/sub&gt;x1 Conv" style="text;html=1;strokeColor=none;fillColor=none;align=center;verticalAlign=middle;whiteSpace=wrap;rounded=0;container=0;" parent="1" vertex="1">
          <mxGeometry x="600" y="841.25" width="50" height="30" as="geometry" />
        </mxCell>
        <mxCell id="IIgzcpDPCEp5MtAR_YNs-99" value="" style="rounded=0;whiteSpace=wrap;html=1;container=0;" parent="1" vertex="1">
          <mxGeometry x="80" y="830" width="60" height="20" as="geometry" />
        </mxCell>
        <mxCell id="IIgzcpDPCEp5MtAR_YNs-100" value="" style="rounded=0;whiteSpace=wrap;html=1;container=0;" parent="1" vertex="1">
          <mxGeometry x="80" y="850" width="60" height="20" as="geometry" />
        </mxCell>
        <mxCell id="IIgzcpDPCEp5MtAR_YNs-101" value="" style="rounded=0;whiteSpace=wrap;html=1;fillColor=#d0cee2;strokeColor=#56517e;container=0;" parent="1" vertex="1">
          <mxGeometry x="80" y="870" width="60" height="20" as="geometry" />
        </mxCell>
        <mxCell id="IIgzcpDPCEp5MtAR_YNs-102" value="" style="rounded=0;whiteSpace=wrap;html=1;container=0;" parent="1" vertex="1">
          <mxGeometry x="80" y="890" width="60" height="20" as="geometry" />
        </mxCell>
        <mxCell id="IIgzcpDPCEp5MtAR_YNs-103" value="" style="rounded=0;whiteSpace=wrap;html=1;container=0;" parent="1" vertex="1">
          <mxGeometry x="80" y="910" width="60" height="20" as="geometry" />
        </mxCell>
        <mxCell id="IIgzcpDPCEp5MtAR_YNs-104" value="" style="rounded=0;whiteSpace=wrap;html=1;container=0;" parent="1" vertex="1">
          <mxGeometry x="240" y="830" width="60" height="20" as="geometry" />
        </mxCell>
        <mxCell id="IIgzcpDPCEp5MtAR_YNs-105" value="" style="rounded=0;whiteSpace=wrap;html=1;container=0;" parent="1" vertex="1">
          <mxGeometry x="240" y="850" width="60" height="20" as="geometry" />
        </mxCell>
        <mxCell id="IIgzcpDPCEp5MtAR_YNs-106" value="" style="rounded=0;whiteSpace=wrap;html=1;container=0;" parent="1" vertex="1">
          <mxGeometry x="240" y="870" width="60" height="20" as="geometry" />
        </mxCell>
        <mxCell id="IIgzcpDPCEp5MtAR_YNs-107" value="" style="rounded=0;whiteSpace=wrap;html=1;container=0;" parent="1" vertex="1">
          <mxGeometry x="240" y="890" width="60" height="20" as="geometry" />
        </mxCell>
        <mxCell id="IIgzcpDPCEp5MtAR_YNs-108" value="" style="rounded=0;whiteSpace=wrap;html=1;container=0;" parent="1" vertex="1">
          <mxGeometry x="240" y="910" width="60" height="20" as="geometry" />
        </mxCell>
        <mxCell id="IIgzcpDPCEp5MtAR_YNs-109" value="&lt;font style=&quot;font-size: 14px;&quot;&gt;&lt;b&gt;Target Autoencoder Model&lt;/b&gt;&lt;/font&gt;" style="text;html=1;strokeColor=none;fillColor=none;align=center;verticalAlign=middle;whiteSpace=wrap;rounded=0;" parent="1" vertex="1">
          <mxGeometry x="300" y="770" width="200" height="30" as="geometry" />
        </mxCell>
        <mxCell id="IIgzcpDPCEp5MtAR_YNs-110" value="$$C_1$$" style="text;html=1;strokeColor=none;fillColor=none;align=center;verticalAlign=middle;whiteSpace=wrap;rounded=0;container=0;" parent="1" vertex="1">
          <mxGeometry x="240" y="800" width="60" height="30" as="geometry" />
        </mxCell>
        <mxCell id="IIgzcpDPCEp5MtAR_YNs-111" value="$$F$$" style="text;html=1;strokeColor=none;fillColor=none;align=center;verticalAlign=middle;whiteSpace=wrap;rounded=0;container=0;" parent="1" vertex="1">
          <mxGeometry x="380" y="800" width="60" height="30" as="geometry" />
        </mxCell>
        <mxCell id="IIgzcpDPCEp5MtAR_YNs-112" value="$$C_2$$" style="text;html=1;strokeColor=none;fillColor=none;align=center;verticalAlign=middle;whiteSpace=wrap;rounded=0;container=0;" parent="1" vertex="1">
          <mxGeometry x="520" y="800" width="60" height="30" as="geometry" />
        </mxCell>
        <mxCell id="IIgzcpDPCEp5MtAR_YNs-113" value="&lt;font style=&quot;font-size: 12px;&quot;&gt;$$d_x$$&lt;/font&gt;" style="text;html=1;strokeColor=none;fillColor=none;align=center;verticalAlign=middle;whiteSpace=wrap;rounded=0;container=0;" parent="1" vertex="1">
          <mxGeometry x="685" y="800" width="30" height="30" as="geometry" />
        </mxCell>
        <mxCell id="IIgzcpDPCEp5MtAR_YNs-114" value="$$e_t$$" style="text;html=1;strokeColor=#6c8ebf;fillColor=#dae8fc;align=center;verticalAlign=middle;whiteSpace=wrap;rounded=0;fontStyle=0" parent="1" vertex="1">
          <mxGeometry x="160" y="950" width="220" height="30" as="geometry" />
        </mxCell>
        <mxCell id="IIgzcpDPCEp5MtAR_YNs-115" value="$$d_s$$" style="text;html=1;strokeColor=#b85450;fillColor=#f8cecc;align=center;verticalAlign=middle;whiteSpace=wrap;rounded=0;fontStyle=0" parent="1" vertex="1">
          <mxGeometry x="450" y="950" width="210" height="30" as="geometry" />
        </mxCell>
        <mxCell id="IIgzcpDPCEp5MtAR_YNs-116" value="Target Encoder" style="text;html=1;strokeColor=none;fillColor=none;align=center;verticalAlign=middle;whiteSpace=wrap;rounded=0;fontStyle=0" parent="1" vertex="1">
          <mxGeometry x="210" y="990" width="120" height="30" as="geometry" />
        </mxCell>
        <mxCell id="IIgzcpDPCEp5MtAR_YNs-117" value="Source Decoder" style="text;html=1;strokeColor=none;fillColor=none;align=center;verticalAlign=middle;whiteSpace=wrap;rounded=0;fontStyle=0" parent="1" vertex="1">
          <mxGeometry x="490" y="990" width="120" height="30" as="geometry" />
        </mxCell>
        <mxCell id="IIgzcpDPCEp5MtAR_YNs-119" value="" style="rounded=0;whiteSpace=wrap;html=1;container=0;" parent="1" vertex="1">
          <mxGeometry x="110" y="1080" width="60" height="20" as="geometry" />
        </mxCell>
        <mxCell id="IIgzcpDPCEp5MtAR_YNs-120" value="" style="rounded=0;whiteSpace=wrap;html=1;container=0;" parent="1" vertex="1">
          <mxGeometry x="110" y="1100" width="60" height="20" as="geometry" />
        </mxCell>
        <mxCell id="IIgzcpDPCEp5MtAR_YNs-121" value="" style="rounded=0;whiteSpace=wrap;html=1;container=0;" parent="1" vertex="1">
          <mxGeometry x="110" y="1120" width="60" height="20" as="geometry" />
        </mxCell>
        <mxCell id="IIgzcpDPCEp5MtAR_YNs-122" value="" style="rounded=0;whiteSpace=wrap;html=1;container=0;" parent="1" vertex="1">
          <mxGeometry x="110" y="1140" width="60" height="20" as="geometry" />
        </mxCell>
        <mxCell id="IIgzcpDPCEp5MtAR_YNs-123" value="" style="rounded=0;whiteSpace=wrap;html=1;container=0;" parent="1" vertex="1">
          <mxGeometry x="110" y="1160" width="60" height="20" as="geometry" />
        </mxCell>
        <mxCell id="IIgzcpDPCEp5MtAR_YNs-124" value="" style="shape=trapezoid;perimeter=trapezoidPerimeter;whiteSpace=wrap;html=1;fixedSize=1;rotation=90;" parent="1" vertex="1">
          <mxGeometry x="180" y="1100" width="100" height="60" as="geometry" />
        </mxCell>
        <mxCell id="IIgzcpDPCEp5MtAR_YNs-125" value="" style="shape=trapezoid;perimeter=trapezoidPerimeter;whiteSpace=wrap;html=1;fixedSize=1;rotation=90;" parent="1" vertex="1">
          <mxGeometry x="280" y="1100" width="60" height="60" as="geometry" />
        </mxCell>
        <mxCell id="IIgzcpDPCEp5MtAR_YNs-127" value="" style="rounded=1;whiteSpace=wrap;html=1;" parent="1" vertex="1">
          <mxGeometry x="370" y="1120" width="20" height="20" as="geometry" />
        </mxCell>
        <mxCell id="IIgzcpDPCEp5MtAR_YNs-128" value="PM2.5" style="text;html=1;strokeColor=none;fillColor=none;align=center;verticalAlign=middle;whiteSpace=wrap;rounded=0;fontStyle=0" parent="1" vertex="1">
          <mxGeometry x="360" y="1080" width="40" height="30" as="geometry" />
        </mxCell>
        <mxCell id="IIgzcpDPCEp5MtAR_YNs-129" value="$$f_t$$" style="text;html=1;strokeColor=none;fillColor=none;align=center;verticalAlign=middle;whiteSpace=wrap;rounded=0;" parent="1" vertex="1">
          <mxGeometry x="290" y="1115" width="30" height="30" as="geometry" />
        </mxCell>
        <mxCell id="IIgzcpDPCEp5MtAR_YNs-130" value="$$f_{s,f}$$" style="text;html=1;strokeColor=none;fillColor=none;align=center;verticalAlign=middle;whiteSpace=wrap;rounded=0;" parent="1" vertex="1">
          <mxGeometry x="210" y="1115" width="30" height="30" as="geometry" />
        </mxCell>
        <mxCell id="IIgzcpDPCEp5MtAR_YNs-132" value="Estimator" style="text;html=1;strokeColor=none;fillColor=none;align=center;verticalAlign=middle;whiteSpace=wrap;rounded=0;fontStyle=0" parent="1" vertex="1">
          <mxGeometry x="210" y="1060" width="120" height="30" as="geometry" />
        </mxCell>
        <mxCell id="IIgzcpDPCEp5MtAR_YNs-133" value="" style="rounded=0;whiteSpace=wrap;html=1;container=0;" parent="1" vertex="1">
          <mxGeometry x="685" y="270" width="60" height="20" as="geometry" />
        </mxCell>
        <mxCell id="IIgzcpDPCEp5MtAR_YNs-134" value="" style="rounded=0;whiteSpace=wrap;html=1;container=0;" parent="1" vertex="1">
          <mxGeometry x="685" y="290" width="60" height="20" as="geometry" />
        </mxCell>
        <mxCell id="IIgzcpDPCEp5MtAR_YNs-135" value="" style="rounded=0;whiteSpace=wrap;html=1;container=0;" parent="1" vertex="1">
          <mxGeometry x="685" y="310" width="60" height="20" as="geometry" />
        </mxCell>
        <mxCell id="IIgzcpDPCEp5MtAR_YNs-136" value="" style="rounded=0;whiteSpace=wrap;html=1;container=0;" parent="1" vertex="1">
          <mxGeometry x="685" y="330" width="60" height="20" as="geometry" />
        </mxCell>
        <mxCell id="IIgzcpDPCEp5MtAR_YNs-137" value="" style="rounded=0;whiteSpace=wrap;html=1;container=0;" parent="1" vertex="1">
          <mxGeometry x="685" y="350" width="60" height="20" as="geometry" />
        </mxCell>
        <mxCell id="1I2b7kd4b1E4qURzlYAR-1" style="edgeStyle=orthogonalEdgeStyle;rounded=0;orthogonalLoop=1;jettySize=auto;html=1;entryX=1;entryY=0.5;entryDx=0;entryDy=0;dashed=1;" parent="1" source="IIgzcpDPCEp5MtAR_YNs-138" target="IIgzcpDPCEp5MtAR_YNs-132" edge="1">
          <mxGeometry relative="1" as="geometry">
            <mxPoint x="270" y="1230" as="targetPoint" />
            <Array as="points">
              <mxPoint x="830" y="750" />
              <mxPoint x="830" y="1075" />
            </Array>
          </mxGeometry>
        </mxCell>
        <mxCell id="IIgzcpDPCEp5MtAR_YNs-138" value="" style="shape=trapezoid;perimeter=trapezoidPerimeter;whiteSpace=wrap;html=1;fixedSize=1;rotation=90;" parent="1" vertex="1">
          <mxGeometry x="780" y="262.5" width="105" height="115" as="geometry" />
        </mxCell>
        <mxCell id="IIgzcpDPCEp5MtAR_YNs-140" value="" style="rounded=1;whiteSpace=wrap;html=1;" parent="1" vertex="1">
          <mxGeometry x="915" y="310" width="20" height="20" as="geometry" />
        </mxCell>
        <mxCell id="IIgzcpDPCEp5MtAR_YNs-141" value="PM2.5" style="text;html=1;strokeColor=none;fillColor=none;align=center;verticalAlign=middle;whiteSpace=wrap;rounded=0;fontStyle=0" parent="1" vertex="1">
          <mxGeometry x="905" y="270" width="40" height="30" as="geometry" />
        </mxCell>
        <mxCell id="IIgzcpDPCEp5MtAR_YNs-143" value="$$f_s$$" style="text;html=1;strokeColor=none;fillColor=none;align=center;verticalAlign=middle;whiteSpace=wrap;rounded=0;" parent="1" vertex="1">
          <mxGeometry x="817.5" y="305" width="30" height="30" as="geometry" />
        </mxCell>
        <mxCell id="IIgzcpDPCEp5MtAR_YNs-144" value="Estimator" style="text;html=1;strokeColor=none;fillColor=none;align=center;verticalAlign=middle;whiteSpace=wrap;rounded=0;fontStyle=0" parent="1" vertex="1">
          <mxGeometry x="785" y="250" width="120" height="30" as="geometry" />
        </mxCell>
      </root>
    </mxGraphModel>
  </diagram>
  <diagram id="XqT3XQXBfYzSK7DJFiUr" name="Static Summarizer and Dynamic Regressor1">
    <mxGraphModel dx="1434" dy="796" grid="1" gridSize="10" guides="1" tooltips="1" connect="1" arrows="1" fold="1" page="1" pageScale="1" pageWidth="827" pageHeight="1169" math="1" shadow="0">
      <root>
        <mxCell id="0" />
        <mxCell id="1" parent="0" />
        <mxCell id="YDUVXKG1ZtDDVgMeVwTj-1" value="" style="rounded=0;whiteSpace=wrap;html=1;" parent="1" vertex="1">
          <mxGeometry x="30" y="410" width="770" height="270" as="geometry" />
        </mxCell>
        <mxCell id="YDUVXKG1ZtDDVgMeVwTj-2" value="" style="ellipse;whiteSpace=wrap;html=1;" parent="1" vertex="1">
          <mxGeometry x="40" y="50" width="600" height="320" as="geometry" />
        </mxCell>
        <mxCell id="YDUVXKG1ZtDDVgMeVwTj-3" value="&lt;b&gt;&lt;font style=&quot;font-size: 14px;&quot;&gt;Source&lt;/font&gt;&lt;/b&gt;" style="text;html=1;strokeColor=none;fillColor=none;align=center;verticalAlign=middle;whiteSpace=wrap;rounded=0;" parent="1" vertex="1">
          <mxGeometry x="290" y="10" width="100" height="30" as="geometry" />
        </mxCell>
        <mxCell id="YDUVXKG1ZtDDVgMeVwTj-4" value="" style="ellipse;whiteSpace=wrap;html=1;aspect=fixed;" parent="1" vertex="1">
          <mxGeometry x="210" y="130" width="20" height="20" as="geometry" />
        </mxCell>
        <mxCell id="YDUVXKG1ZtDDVgMeVwTj-5" value="" style="ellipse;whiteSpace=wrap;html=1;aspect=fixed;" parent="1" vertex="1">
          <mxGeometry x="520" y="260" width="20" height="20" as="geometry" />
        </mxCell>
        <mxCell id="YDUVXKG1ZtDDVgMeVwTj-6" value="" style="ellipse;whiteSpace=wrap;html=1;aspect=fixed;fillColor=#000000;" parent="1" vertex="1">
          <mxGeometry x="330" y="190" width="20" height="20" as="geometry" />
        </mxCell>
        <mxCell id="YDUVXKG1ZtDDVgMeVwTj-7" value="" style="ellipse;whiteSpace=wrap;html=1;aspect=fixed;" parent="1" vertex="1">
          <mxGeometry x="400" y="150" width="20" height="20" as="geometry" />
        </mxCell>
        <mxCell id="YDUVXKG1ZtDDVgMeVwTj-8" value="" style="ellipse;whiteSpace=wrap;html=1;aspect=fixed;" parent="1" vertex="1">
          <mxGeometry x="360" y="310" width="20" height="20" as="geometry" />
        </mxCell>
        <mxCell id="YDUVXKG1ZtDDVgMeVwTj-9" value="" style="rounded=0;whiteSpace=wrap;html=1;" parent="1" vertex="1">
          <mxGeometry x="180" y="110" width="20" height="60" as="geometry" />
        </mxCell>
        <mxCell id="YDUVXKG1ZtDDVgMeVwTj-10" value="" style="rounded=0;whiteSpace=wrap;html=1;" parent="1" vertex="1">
          <mxGeometry x="440" y="130" width="20" height="60" as="geometry" />
        </mxCell>
        <mxCell id="YDUVXKG1ZtDDVgMeVwTj-11" value="" style="rounded=0;whiteSpace=wrap;html=1;fillColor=#d0cee2;strokeColor=#56517e;" parent="1" vertex="1">
          <mxGeometry x="300" y="170" width="20" height="60" as="geometry" />
        </mxCell>
        <mxCell id="YDUVXKG1ZtDDVgMeVwTj-12" value="" style="rounded=0;whiteSpace=wrap;html=1;" parent="1" vertex="1">
          <mxGeometry x="490" y="240" width="20" height="60" as="geometry" />
        </mxCell>
        <mxCell id="YDUVXKG1ZtDDVgMeVwTj-13" value="" style="rounded=0;whiteSpace=wrap;html=1;" parent="1" vertex="1">
          <mxGeometry x="330" y="290" width="20" height="60" as="geometry" />
        </mxCell>
        <mxCell id="YDUVXKG1ZtDDVgMeVwTj-14" value="&lt;font style=&quot;font-size: 12px;&quot;&gt;$$d_x$$&lt;/font&gt;" style="text;html=1;strokeColor=none;fillColor=none;align=center;verticalAlign=middle;whiteSpace=wrap;rounded=0;" parent="1" vertex="1">
          <mxGeometry x="150" y="125" width="30" height="30" as="geometry" />
        </mxCell>
        <mxCell id="YDUVXKG1ZtDDVgMeVwTj-15" value="$$x$$" style="text;html=1;strokeColor=none;fillColor=none;align=center;verticalAlign=middle;whiteSpace=wrap;rounded=0;" parent="1" vertex="1">
          <mxGeometry x="175" y="90" width="30" height="20" as="geometry" />
        </mxCell>
        <mxCell id="YDUVXKG1ZtDDVgMeVwTj-16" value="" style="endArrow=classic;html=1;rounded=0;exitX=0.5;exitY=1;exitDx=0;exitDy=0;entryX=1;entryY=0;entryDx=0;entryDy=0;dashed=1;" parent="1" source="YDUVXKG1ZtDDVgMeVwTj-9" target="YDUVXKG1ZtDDVgMeVwTj-44" edge="1">
          <mxGeometry width="50" height="50" relative="1" as="geometry">
            <mxPoint x="390" y="370" as="sourcePoint" />
            <mxPoint x="440" y="320" as="targetPoint" />
          </mxGeometry>
        </mxCell>
        <mxCell id="YDUVXKG1ZtDDVgMeVwTj-17" value="" style="endArrow=classic;html=1;rounded=0;exitX=0.25;exitY=1;exitDx=0;exitDy=0;entryX=1;entryY=0.5;entryDx=0;entryDy=0;dashed=1;" parent="1" source="YDUVXKG1ZtDDVgMeVwTj-11" target="YDUVXKG1ZtDDVgMeVwTj-46" edge="1">
          <mxGeometry width="50" height="50" relative="1" as="geometry">
            <mxPoint x="260" y="180" as="sourcePoint" />
            <mxPoint x="160" y="420" as="targetPoint" />
          </mxGeometry>
        </mxCell>
        <mxCell id="YDUVXKG1ZtDDVgMeVwTj-18" value="&lt;font style=&quot;font-size: 12px;&quot;&gt;$$d_x$$&lt;/font&gt;" style="text;html=1;strokeColor=none;fillColor=none;align=center;verticalAlign=middle;whiteSpace=wrap;rounded=0;container=0;" parent="1" vertex="1">
          <mxGeometry x="95" y="440" width="30" height="30" as="geometry" />
        </mxCell>
        <mxCell id="YDUVXKG1ZtDDVgMeVwTj-19" value="1x1 CNN" style="text;html=1;strokeColor=none;fillColor=none;align=center;verticalAlign=middle;whiteSpace=wrap;rounded=0;container=0;" parent="1" vertex="1">
          <mxGeometry x="170" y="490" width="50" height="30" as="geometry" />
        </mxCell>
        <mxCell id="YDUVXKG1ZtDDVgMeVwTj-20" value="" style="endArrow=classic;html=1;rounded=0;" parent="1" edge="1">
          <mxGeometry width="50" height="50" relative="1" as="geometry">
            <mxPoint x="315" y="524" as="sourcePoint" />
            <mxPoint x="365" y="524" as="targetPoint" />
          </mxGeometry>
        </mxCell>
        <mxCell id="YDUVXKG1ZtDDVgMeVwTj-23" value="&lt;font style=&quot;font-size: 12px;&quot;&gt;$$N+1$$&lt;/font&gt;" style="text;html=1;strokeColor=none;fillColor=none;align=center;verticalAlign=middle;whiteSpace=wrap;rounded=0;container=0;" parent="1" vertex="1">
          <mxGeometry x="30" y="505" width="50" height="30" as="geometry" />
        </mxCell>
        <mxCell id="YDUVXKG1ZtDDVgMeVwTj-24" value="" style="endArrow=classic;html=1;rounded=0;" parent="1" edge="1">
          <mxGeometry width="50" height="50" relative="1" as="geometry">
            <mxPoint x="170" y="525" as="sourcePoint" />
            <mxPoint x="220" y="525" as="targetPoint" />
          </mxGeometry>
        </mxCell>
        <mxCell id="YDUVXKG1ZtDDVgMeVwTj-25" value="" style="rounded=0;whiteSpace=wrap;html=1;container=0;" parent="1" vertex="1">
          <mxGeometry x="380" y="470" width="60" height="20" as="geometry" />
        </mxCell>
        <mxCell id="YDUVXKG1ZtDDVgMeVwTj-27" value="" style="rounded=0;whiteSpace=wrap;html=1;container=0;" parent="1" vertex="1">
          <mxGeometry x="380" y="490" width="60" height="20" as="geometry" />
        </mxCell>
        <mxCell id="YDUVXKG1ZtDDVgMeVwTj-28" value="" style="rounded=0;whiteSpace=wrap;html=1;container=0;" parent="1" vertex="1">
          <mxGeometry x="380" y="510" width="60" height="20" as="geometry" />
        </mxCell>
        <mxCell id="YDUVXKG1ZtDDVgMeVwTj-29" value="" style="rounded=0;whiteSpace=wrap;html=1;container=0;" parent="1" vertex="1">
          <mxGeometry x="380" y="530" width="60" height="20" as="geometry" />
        </mxCell>
        <mxCell id="YDUVXKG1ZtDDVgMeVwTj-30" value="" style="rounded=0;whiteSpace=wrap;html=1;container=0;" parent="1" vertex="1">
          <mxGeometry x="380" y="550" width="60" height="20" as="geometry" />
        </mxCell>
        <mxCell id="YDUVXKG1ZtDDVgMeVwTj-31" value="FNN" style="text;html=1;strokeColor=none;fillColor=none;align=center;verticalAlign=middle;whiteSpace=wrap;rounded=0;container=0;" parent="1" vertex="1">
          <mxGeometry x="310" y="481.25" width="60" height="30" as="geometry" />
        </mxCell>
        <mxCell id="YDUVXKG1ZtDDVgMeVwTj-44" value="" style="rounded=0;whiteSpace=wrap;html=1;container=0;" parent="1" vertex="1">
          <mxGeometry x="80" y="470" width="60" height="20" as="geometry" />
        </mxCell>
        <mxCell id="YDUVXKG1ZtDDVgMeVwTj-45" value="" style="rounded=0;whiteSpace=wrap;html=1;container=0;" parent="1" vertex="1">
          <mxGeometry x="80" y="490" width="60" height="20" as="geometry" />
        </mxCell>
        <mxCell id="YDUVXKG1ZtDDVgMeVwTj-46" value="" style="rounded=0;whiteSpace=wrap;html=1;fillColor=#d0cee2;strokeColor=#56517e;container=0;" parent="1" vertex="1">
          <mxGeometry x="80" y="510" width="60" height="20" as="geometry" />
        </mxCell>
        <mxCell id="YDUVXKG1ZtDDVgMeVwTj-47" value="" style="rounded=0;whiteSpace=wrap;html=1;container=0;" parent="1" vertex="1">
          <mxGeometry x="80" y="530" width="60" height="20" as="geometry" />
        </mxCell>
        <mxCell id="YDUVXKG1ZtDDVgMeVwTj-48" value="" style="rounded=0;whiteSpace=wrap;html=1;container=0;" parent="1" vertex="1">
          <mxGeometry x="80" y="550" width="60" height="20" as="geometry" />
        </mxCell>
        <mxCell id="YDUVXKG1ZtDDVgMeVwTj-49" value="" style="rounded=0;whiteSpace=wrap;html=1;container=0;" parent="1" vertex="1">
          <mxGeometry x="240" y="470" width="60" height="20" as="geometry" />
        </mxCell>
        <mxCell id="YDUVXKG1ZtDDVgMeVwTj-50" value="" style="rounded=0;whiteSpace=wrap;html=1;container=0;" parent="1" vertex="1">
          <mxGeometry x="240" y="490" width="60" height="20" as="geometry" />
        </mxCell>
        <mxCell id="YDUVXKG1ZtDDVgMeVwTj-51" value="" style="rounded=0;whiteSpace=wrap;html=1;container=0;" parent="1" vertex="1">
          <mxGeometry x="240" y="510" width="60" height="20" as="geometry" />
        </mxCell>
        <mxCell id="YDUVXKG1ZtDDVgMeVwTj-52" value="" style="rounded=0;whiteSpace=wrap;html=1;container=0;" parent="1" vertex="1">
          <mxGeometry x="240" y="530" width="60" height="20" as="geometry" />
        </mxCell>
        <mxCell id="YDUVXKG1ZtDDVgMeVwTj-53" value="" style="rounded=0;whiteSpace=wrap;html=1;container=0;" parent="1" vertex="1">
          <mxGeometry x="240" y="550" width="60" height="20" as="geometry" />
        </mxCell>
        <mxCell id="YDUVXKG1ZtDDVgMeVwTj-54" value="&lt;font style=&quot;font-size: 14px;&quot;&gt;&lt;b&gt;Encoder-Estimator Model&lt;/b&gt;&lt;/font&gt;" style="text;html=1;strokeColor=none;fillColor=none;align=center;verticalAlign=middle;whiteSpace=wrap;rounded=0;" parent="1" vertex="1">
          <mxGeometry x="300" y="410" width="200" height="30" as="geometry" />
        </mxCell>
        <mxCell id="YDUVXKG1ZtDDVgMeVwTj-55" value="$$C_1$$" style="text;html=1;strokeColor=none;fillColor=none;align=center;verticalAlign=middle;whiteSpace=wrap;rounded=0;container=0;" parent="1" vertex="1">
          <mxGeometry x="240" y="440" width="60" height="30" as="geometry" />
        </mxCell>
        <mxCell id="YDUVXKG1ZtDDVgMeVwTj-56" value="$$F$$" style="text;html=1;strokeColor=none;fillColor=none;align=center;verticalAlign=middle;whiteSpace=wrap;rounded=0;container=0;" parent="1" vertex="1">
          <mxGeometry x="380" y="440" width="60" height="30" as="geometry" />
        </mxCell>
        <mxCell id="YDUVXKG1ZtDDVgMeVwTj-61" value="Encoder" style="text;html=1;strokeColor=#b85450;fillColor=#f8cecc;align=center;verticalAlign=middle;whiteSpace=wrap;rounded=0;fontStyle=0" parent="1" vertex="1">
          <mxGeometry x="150" y="590" width="240" height="30" as="geometry" />
        </mxCell>
        <mxCell id="YDUVXKG1ZtDDVgMeVwTj-62" value="Estimator" style="text;html=1;strokeColor=#6c8ebf;fillColor=#dae8fc;align=center;verticalAlign=middle;whiteSpace=wrap;rounded=0;fontStyle=0" parent="1" vertex="1">
          <mxGeometry x="460" y="590" width="220" height="30" as="geometry" />
        </mxCell>
        <mxCell id="YDUVXKG1ZtDDVgMeVwTj-68" value="" style="shape=trapezoid;perimeter=trapezoidPerimeter;whiteSpace=wrap;html=1;fixedSize=1;rotation=90;" parent="1" vertex="1">
          <mxGeometry x="510" y="462.5" width="105" height="115" as="geometry" />
        </mxCell>
        <mxCell id="YDUVXKG1ZtDDVgMeVwTj-69" value="" style="rounded=1;whiteSpace=wrap;html=1;" parent="1" vertex="1">
          <mxGeometry x="700" y="510" width="20" height="20" as="geometry" />
        </mxCell>
        <mxCell id="YDUVXKG1ZtDDVgMeVwTj-70" value="PM2.5" style="text;html=1;strokeColor=none;fillColor=none;align=center;verticalAlign=middle;whiteSpace=wrap;rounded=0;fontStyle=0" parent="1" vertex="1">
          <mxGeometry x="690" y="470" width="40" height="30" as="geometry" />
        </mxCell>
        <mxCell id="YDUVXKG1ZtDDVgMeVwTj-71" value="$$f_i$$" style="text;html=1;strokeColor=none;fillColor=none;align=center;verticalAlign=middle;whiteSpace=wrap;rounded=0;" parent="1" vertex="1">
          <mxGeometry x="547.5" y="505" width="30" height="30" as="geometry" />
        </mxCell>
        <mxCell id="YDUVXKG1ZtDDVgMeVwTj-73" value="" style="endArrow=classic;html=1;rounded=0;" parent="1" edge="1">
          <mxGeometry width="50" height="50" relative="1" as="geometry">
            <mxPoint x="450" y="520" as="sourcePoint" />
            <mxPoint x="500" y="520" as="targetPoint" />
          </mxGeometry>
        </mxCell>
        <mxCell id="YDUVXKG1ZtDDVgMeVwTj-74" value="" style="endArrow=classic;html=1;rounded=0;" parent="1" edge="1">
          <mxGeometry width="50" height="50" relative="1" as="geometry">
            <mxPoint x="630" y="520" as="sourcePoint" />
            <mxPoint x="680" y="520" as="targetPoint" />
          </mxGeometry>
        </mxCell>
      </root>
    </mxGraphModel>
  </diagram>
  <diagram id="xfTZuNRJrR31RHC6kyMV" name="Static Summarizer and Dynamic Regressor2">
    <mxGraphModel dx="1434" dy="796" grid="1" gridSize="10" guides="1" tooltips="1" connect="1" arrows="1" fold="1" page="1" pageScale="1" pageWidth="827" pageHeight="1169" math="1" shadow="0">
      <root>
        <mxCell id="0" />
        <mxCell id="1" parent="0" />
        <mxCell id="P53Uru85s4VVYGFNjvz4-1" value="" style="ellipse;whiteSpace=wrap;html=1;" parent="1" vertex="1">
          <mxGeometry x="40" y="50" width="600" height="320" as="geometry" />
        </mxCell>
        <mxCell id="D3aY90fK809grQ7_SvwX-1" value="&lt;b&gt;&lt;font style=&quot;font-size: 14px;&quot;&gt;Source&lt;/font&gt;&lt;/b&gt;" style="text;html=1;strokeColor=none;fillColor=none;align=center;verticalAlign=middle;whiteSpace=wrap;rounded=0;" parent="1" vertex="1">
          <mxGeometry x="290" y="10" width="100" height="30" as="geometry" />
        </mxCell>
        <mxCell id="MFkCtY0KhtrkPVdgFJnl-1" value="" style="endArrow=none;html=1;rounded=0;exitX=0;exitY=0.5;exitDx=0;exitDy=0;entryX=1;entryY=0.5;entryDx=0;entryDy=0;" parent="1" source="P53Uru85s4VVYGFNjvz4-1" target="P53Uru85s4VVYGFNjvz4-1" edge="1">
          <mxGeometry width="50" height="50" relative="1" as="geometry">
            <mxPoint x="390" y="230" as="sourcePoint" />
            <mxPoint x="440" y="180" as="targetPoint" />
          </mxGeometry>
        </mxCell>
        <mxCell id="MFkCtY0KhtrkPVdgFJnl-2" value="" style="endArrow=none;html=1;rounded=0;entryX=0;entryY=0;entryDx=0;entryDy=0;exitX=0;exitY=1;exitDx=0;exitDy=0;" parent="1" source="P53Uru85s4VVYGFNjvz4-1" target="P53Uru85s4VVYGFNjvz4-1" edge="1">
          <mxGeometry width="50" height="50" relative="1" as="geometry">
            <mxPoint x="390" y="230" as="sourcePoint" />
            <mxPoint x="440" y="180" as="targetPoint" />
          </mxGeometry>
        </mxCell>
        <mxCell id="MFkCtY0KhtrkPVdgFJnl-3" value="" style="endArrow=none;html=1;rounded=0;entryX=0.5;entryY=0;entryDx=0;entryDy=0;exitX=0.5;exitY=1;exitDx=0;exitDy=0;" parent="1" source="P53Uru85s4VVYGFNjvz4-1" target="P53Uru85s4VVYGFNjvz4-1" edge="1">
          <mxGeometry width="50" height="50" relative="1" as="geometry">
            <mxPoint x="390" y="230" as="sourcePoint" />
            <mxPoint x="440" y="180" as="targetPoint" />
          </mxGeometry>
        </mxCell>
        <mxCell id="MFkCtY0KhtrkPVdgFJnl-4" value="" style="endArrow=none;html=1;rounded=0;entryX=1;entryY=0;entryDx=0;entryDy=0;exitX=1;exitY=1;exitDx=0;exitDy=0;" parent="1" source="P53Uru85s4VVYGFNjvz4-1" target="P53Uru85s4VVYGFNjvz4-1" edge="1">
          <mxGeometry width="50" height="50" relative="1" as="geometry">
            <mxPoint x="390" y="230" as="sourcePoint" />
            <mxPoint x="440" y="180" as="targetPoint" />
          </mxGeometry>
        </mxCell>
        <mxCell id="MFkCtY0KhtrkPVdgFJnl-5" value="1" style="text;html=1;strokeColor=none;fillColor=none;align=center;verticalAlign=middle;whiteSpace=wrap;rounded=0;" parent="1" vertex="1">
          <mxGeometry x="60" y="160" width="60" height="30" as="geometry" />
        </mxCell>
        <mxCell id="MFkCtY0KhtrkPVdgFJnl-6" value="2" style="text;html=1;strokeColor=none;fillColor=none;align=center;verticalAlign=middle;whiteSpace=wrap;rounded=0;" parent="1" vertex="1">
          <mxGeometry x="210" y="130" width="60" height="30" as="geometry" />
        </mxCell>
        <mxCell id="MFkCtY0KhtrkPVdgFJnl-7" value="3" style="text;html=1;strokeColor=none;fillColor=none;align=center;verticalAlign=middle;whiteSpace=wrap;rounded=0;" parent="1" vertex="1">
          <mxGeometry x="414" y="130" width="60" height="30" as="geometry" />
        </mxCell>
        <mxCell id="MFkCtY0KhtrkPVdgFJnl-8" value="4" style="text;html=1;strokeColor=none;fillColor=none;align=center;verticalAlign=middle;whiteSpace=wrap;rounded=0;" parent="1" vertex="1">
          <mxGeometry x="560" y="160" width="60" height="30" as="geometry" />
        </mxCell>
        <mxCell id="MFkCtY0KhtrkPVdgFJnl-9" value="5" style="text;html=1;strokeColor=none;fillColor=none;align=center;verticalAlign=middle;whiteSpace=wrap;rounded=0;" parent="1" vertex="1">
          <mxGeometry x="60" y="240" width="60" height="30" as="geometry" />
        </mxCell>
        <mxCell id="MFkCtY0KhtrkPVdgFJnl-10" value="6" style="text;html=1;strokeColor=none;fillColor=none;align=center;verticalAlign=middle;whiteSpace=wrap;rounded=0;" parent="1" vertex="1">
          <mxGeometry x="210" y="270" width="60" height="30" as="geometry" />
        </mxCell>
        <mxCell id="MFkCtY0KhtrkPVdgFJnl-11" value="7" style="text;html=1;strokeColor=none;fillColor=none;align=center;verticalAlign=middle;whiteSpace=wrap;rounded=0;" parent="1" vertex="1">
          <mxGeometry x="414" y="270" width="60" height="30" as="geometry" />
        </mxCell>
        <mxCell id="MFkCtY0KhtrkPVdgFJnl-12" value="8" style="text;html=1;strokeColor=none;fillColor=none;align=center;verticalAlign=middle;whiteSpace=wrap;rounded=0;" parent="1" vertex="1">
          <mxGeometry x="560" y="240" width="60" height="30" as="geometry" />
        </mxCell>
      </root>
    </mxGraphModel>
  </diagram>
  <diagram id="zw6KxFrY6Ha_GjDsa-CW" name="satellite-nearby station combination">
    <mxGraphModel dx="1434" dy="796" grid="1" gridSize="10" guides="1" tooltips="1" connect="1" arrows="1" fold="1" page="1" pageScale="1" pageWidth="827" pageHeight="1169" math="1" shadow="0">
      <root>
        <mxCell id="0" />
        <mxCell id="1" parent="0" />
        <mxCell id="RQx3u-8Dk0X0VH6icdqI-15" value="" style="whiteSpace=wrap;html=1;aspect=fixed;fillColor=#fff2cc;strokeColor=#d6b656;" parent="1" vertex="1">
          <mxGeometry x="80" y="90" width="200" height="200" as="geometry" />
        </mxCell>
        <mxCell id="RQx3u-8Dk0X0VH6icdqI-1" value="" style="ellipse;whiteSpace=wrap;html=1;aspect=fixed;" parent="1" vertex="1">
          <mxGeometry x="80" y="90" width="20" height="20" as="geometry" />
        </mxCell>
        <mxCell id="RQx3u-8Dk0X0VH6icdqI-2" value="" style="ellipse;whiteSpace=wrap;html=1;aspect=fixed;" parent="1" vertex="1">
          <mxGeometry x="244" y="280" width="20" height="20" as="geometry" />
        </mxCell>
        <mxCell id="RQx3u-8Dk0X0VH6icdqI-3" value="" style="ellipse;whiteSpace=wrap;html=1;aspect=fixed;fillColor=#000000;" parent="1" vertex="1">
          <mxGeometry x="160" y="190" width="20" height="20" as="geometry" />
        </mxCell>
        <mxCell id="RQx3u-8Dk0X0VH6icdqI-4" value="" style="ellipse;whiteSpace=wrap;html=1;aspect=fixed;" parent="1" vertex="1">
          <mxGeometry x="230" y="150" width="20" height="20" as="geometry" />
        </mxCell>
        <mxCell id="RQx3u-8Dk0X0VH6icdqI-5" value="" style="ellipse;whiteSpace=wrap;html=1;aspect=fixed;" parent="1" vertex="1">
          <mxGeometry x="300" y="370" width="20" height="20" as="geometry" />
        </mxCell>
        <mxCell id="RQx3u-8Dk0X0VH6icdqI-12" value="" style="ellipse;whiteSpace=wrap;html=1;aspect=fixed;" parent="1" vertex="1">
          <mxGeometry x="70" y="310" width="20" height="20" as="geometry" />
        </mxCell>
        <mxCell id="RQx3u-8Dk0X0VH6icdqI-13" value="" style="ellipse;whiteSpace=wrap;html=1;aspect=fixed;" parent="1" vertex="1">
          <mxGeometry x="10" y="230" width="20" height="20" as="geometry" />
        </mxCell>
        <mxCell id="RQx3u-8Dk0X0VH6icdqI-19" value="" style="endArrow=none;html=1;rounded=0;exitX=0;exitY=0.25;exitDx=0;exitDy=0;entryX=1;entryY=0.25;entryDx=0;entryDy=0;" parent="1" source="RQx3u-8Dk0X0VH6icdqI-15" target="RQx3u-8Dk0X0VH6icdqI-15" edge="1">
          <mxGeometry width="50" height="50" relative="1" as="geometry">
            <mxPoint x="220" y="430" as="sourcePoint" />
            <mxPoint x="270" y="380" as="targetPoint" />
          </mxGeometry>
        </mxCell>
        <mxCell id="RQx3u-8Dk0X0VH6icdqI-20" value="" style="endArrow=none;html=1;rounded=0;exitX=0;exitY=0.5;exitDx=0;exitDy=0;entryX=1;entryY=0.5;entryDx=0;entryDy=0;" parent="1" source="RQx3u-8Dk0X0VH6icdqI-15" target="RQx3u-8Dk0X0VH6icdqI-15" edge="1">
          <mxGeometry width="50" height="50" relative="1" as="geometry">
            <mxPoint x="100" y="230" as="sourcePoint" />
            <mxPoint x="300" y="230" as="targetPoint" />
          </mxGeometry>
        </mxCell>
        <mxCell id="RQx3u-8Dk0X0VH6icdqI-21" value="" style="endArrow=none;html=1;rounded=0;exitX=0;exitY=0.75;exitDx=0;exitDy=0;entryX=1;entryY=0.75;entryDx=0;entryDy=0;" parent="1" source="RQx3u-8Dk0X0VH6icdqI-15" target="RQx3u-8Dk0X0VH6icdqI-15" edge="1">
          <mxGeometry width="50" height="50" relative="1" as="geometry">
            <mxPoint x="90" y="170" as="sourcePoint" />
            <mxPoint x="290" y="170" as="targetPoint" />
          </mxGeometry>
        </mxCell>
        <mxCell id="RQx3u-8Dk0X0VH6icdqI-22" value="" style="endArrow=none;html=1;rounded=0;exitX=0.25;exitY=0;exitDx=0;exitDy=0;entryX=0.25;entryY=1;entryDx=0;entryDy=0;" parent="1" source="RQx3u-8Dk0X0VH6icdqI-15" target="RQx3u-8Dk0X0VH6icdqI-15" edge="1">
          <mxGeometry width="50" height="50" relative="1" as="geometry">
            <mxPoint x="100" y="180" as="sourcePoint" />
            <mxPoint x="300" y="180" as="targetPoint" />
          </mxGeometry>
        </mxCell>
        <mxCell id="RQx3u-8Dk0X0VH6icdqI-23" value="" style="endArrow=none;html=1;rounded=0;exitX=0.5;exitY=0;exitDx=0;exitDy=0;entryX=0.5;entryY=1;entryDx=0;entryDy=0;" parent="1" source="RQx3u-8Dk0X0VH6icdqI-15" target="RQx3u-8Dk0X0VH6icdqI-15" edge="1">
          <mxGeometry width="50" height="50" relative="1" as="geometry">
            <mxPoint x="110" y="190" as="sourcePoint" />
            <mxPoint x="310" y="190" as="targetPoint" />
          </mxGeometry>
        </mxCell>
        <mxCell id="RQx3u-8Dk0X0VH6icdqI-25" value="" style="endArrow=none;html=1;rounded=0;exitX=0.75;exitY=0;exitDx=0;exitDy=0;entryX=0.75;entryY=1;entryDx=0;entryDy=0;" parent="1" source="RQx3u-8Dk0X0VH6icdqI-15" target="RQx3u-8Dk0X0VH6icdqI-15" edge="1">
          <mxGeometry width="50" height="50" relative="1" as="geometry">
            <mxPoint x="120" y="200" as="sourcePoint" />
            <mxPoint x="320" y="200" as="targetPoint" />
          </mxGeometry>
        </mxCell>
        <mxCell id="NqD0hkiDlEqOrspJl5zF-1" value="&lt;font style=&quot;font-size: 12px;&quot;&gt;$$d_x$$&lt;/font&gt;" style="text;html=1;strokeColor=none;fillColor=none;align=center;verticalAlign=middle;whiteSpace=wrap;rounded=0;container=0;" parent="1" vertex="1">
          <mxGeometry x="85" y="530" width="30" height="30" as="geometry" />
        </mxCell>
        <mxCell id="NqD0hkiDlEqOrspJl5zF-2" value="2D-CNN" style="text;html=1;strokeColor=none;fillColor=none;align=center;verticalAlign=middle;whiteSpace=wrap;rounded=0;container=0;" parent="1" vertex="1">
          <mxGeometry x="330" y="160" width="50" height="30" as="geometry" />
        </mxCell>
        <mxCell id="NqD0hkiDlEqOrspJl5zF-3" value="" style="endArrow=classic;html=1;rounded=0;" parent="1" edge="1">
          <mxGeometry width="50" height="50" relative="1" as="geometry">
            <mxPoint x="305" y="592.75" as="sourcePoint" />
            <mxPoint x="355" y="592.75" as="targetPoint" />
          </mxGeometry>
        </mxCell>
        <mxCell id="NqD0hkiDlEqOrspJl5zF-4" value="" style="endArrow=classic;html=1;rounded=0;" parent="1" edge="1">
          <mxGeometry width="50" height="50" relative="1" as="geometry">
            <mxPoint x="450" y="593.75" as="sourcePoint" />
            <mxPoint x="500" y="593.75" as="targetPoint" />
          </mxGeometry>
        </mxCell>
        <mxCell id="NqD0hkiDlEqOrspJl5zF-5" value="" style="endArrow=classic;html=1;rounded=0;" parent="1" edge="1">
          <mxGeometry width="50" height="50" relative="1" as="geometry">
            <mxPoint x="590" y="593.75" as="sourcePoint" />
            <mxPoint x="640" y="593.75" as="targetPoint" />
          </mxGeometry>
        </mxCell>
        <mxCell id="NqD0hkiDlEqOrspJl5zF-6" value="" style="endArrow=classic;html=1;rounded=0;" parent="1" edge="1">
          <mxGeometry width="50" height="50" relative="1" as="geometry">
            <mxPoint x="330" y="200" as="sourcePoint" />
            <mxPoint x="380" y="200" as="targetPoint" />
          </mxGeometry>
        </mxCell>
        <mxCell id="NqD0hkiDlEqOrspJl5zF-7" value="" style="rounded=0;whiteSpace=wrap;html=1;container=0;fillColor=#dae8fc;strokeColor=#6c8ebf;" parent="1" vertex="1">
          <mxGeometry x="370" y="560" width="60" height="20" as="geometry" />
        </mxCell>
        <mxCell id="NqD0hkiDlEqOrspJl5zF-8" value="" style="rounded=0;whiteSpace=wrap;html=1;container=0;fillColor=#dae8fc;strokeColor=#6c8ebf;" parent="1" vertex="1">
          <mxGeometry x="370" y="580" width="60" height="20" as="geometry" />
        </mxCell>
        <mxCell id="NqD0hkiDlEqOrspJl5zF-9" value="" style="rounded=0;whiteSpace=wrap;html=1;container=0;fillColor=#dae8fc;strokeColor=#6c8ebf;" parent="1" vertex="1">
          <mxGeometry x="370" y="600" width="60" height="20" as="geometry" />
        </mxCell>
        <mxCell id="NqD0hkiDlEqOrspJl5zF-10" value="" style="rounded=0;whiteSpace=wrap;html=1;container=0;fillColor=#dae8fc;strokeColor=#6c8ebf;" parent="1" vertex="1">
          <mxGeometry x="370" y="620" width="60" height="20" as="geometry" />
        </mxCell>
        <mxCell id="_sezI91-fOamiAFLQJ-b-65" style="edgeStyle=orthogonalEdgeStyle;rounded=0;orthogonalLoop=1;jettySize=auto;html=1;entryX=0.5;entryY=0;entryDx=0;entryDy=0;" parent="1" source="NqD0hkiDlEqOrspJl5zF-11" target="_sezI91-fOamiAFLQJ-b-55" edge="1">
          <mxGeometry relative="1" as="geometry">
            <Array as="points">
              <mxPoint x="350" y="650" />
            </Array>
          </mxGeometry>
        </mxCell>
        <mxCell id="vywdh6Q5bNsg3FHe_1HO-2" style="edgeStyle=orthogonalEdgeStyle;rounded=0;orthogonalLoop=1;jettySize=auto;html=1;exitX=0.5;exitY=1;exitDx=0;exitDy=0;entryX=0;entryY=0.75;entryDx=0;entryDy=0;" parent="1" source="NqD0hkiDlEqOrspJl5zF-11" target="vywdh6Q5bNsg3FHe_1HO-1" edge="1">
          <mxGeometry relative="1" as="geometry">
            <Array as="points">
              <mxPoint x="400" y="750" />
            </Array>
          </mxGeometry>
        </mxCell>
        <mxCell id="NqD0hkiDlEqOrspJl5zF-11" value="" style="rounded=0;whiteSpace=wrap;html=1;container=0;fillColor=#dae8fc;strokeColor=#6c8ebf;" parent="1" vertex="1">
          <mxGeometry x="370" y="640" width="60" height="20" as="geometry" />
        </mxCell>
        <mxCell id="NqD0hkiDlEqOrspJl5zF-12" value="FNN" style="text;html=1;strokeColor=none;fillColor=none;align=center;verticalAlign=middle;whiteSpace=wrap;rounded=0;container=0;" parent="1" vertex="1">
          <mxGeometry x="300" y="550" width="60" height="30" as="geometry" />
        </mxCell>
        <mxCell id="NqD0hkiDlEqOrspJl5zF-13" value="" style="rounded=0;whiteSpace=wrap;html=1;container=0;" parent="1" vertex="1">
          <mxGeometry x="510" y="560" width="60" height="20" as="geometry" />
        </mxCell>
        <mxCell id="NqD0hkiDlEqOrspJl5zF-14" value="" style="rounded=0;whiteSpace=wrap;html=1;container=0;" parent="1" vertex="1">
          <mxGeometry x="510" y="580" width="60" height="20" as="geometry" />
        </mxCell>
        <mxCell id="NqD0hkiDlEqOrspJl5zF-15" value="" style="rounded=0;whiteSpace=wrap;html=1;container=0;" parent="1" vertex="1">
          <mxGeometry x="510" y="600" width="60" height="20" as="geometry" />
        </mxCell>
        <mxCell id="NqD0hkiDlEqOrspJl5zF-16" value="" style="rounded=0;whiteSpace=wrap;html=1;container=0;" parent="1" vertex="1">
          <mxGeometry x="510" y="620" width="60" height="20" as="geometry" />
        </mxCell>
        <mxCell id="NqD0hkiDlEqOrspJl5zF-17" value="" style="rounded=0;whiteSpace=wrap;html=1;container=0;" parent="1" vertex="1">
          <mxGeometry x="510" y="640" width="60" height="20" as="geometry" />
        </mxCell>
        <mxCell id="NqD0hkiDlEqOrspJl5zF-18" value="1D-CNN" style="text;html=1;strokeColor=none;fillColor=none;align=center;verticalAlign=middle;whiteSpace=wrap;rounded=0;container=0;" parent="1" vertex="1">
          <mxGeometry x="450" y="550" width="50" height="30" as="geometry" />
        </mxCell>
        <mxCell id="NqD0hkiDlEqOrspJl5zF-19" value="" style="rounded=0;whiteSpace=wrap;html=1;container=0;" parent="1" vertex="1">
          <mxGeometry x="660" y="560" width="60" height="20" as="geometry" />
        </mxCell>
        <mxCell id="NqD0hkiDlEqOrspJl5zF-20" value="" style="rounded=0;whiteSpace=wrap;html=1;container=0;" parent="1" vertex="1">
          <mxGeometry x="660" y="580" width="60" height="20" as="geometry" />
        </mxCell>
        <mxCell id="NqD0hkiDlEqOrspJl5zF-21" value="" style="rounded=0;whiteSpace=wrap;html=1;container=0;" parent="1" vertex="1">
          <mxGeometry x="660" y="600" width="60" height="20" as="geometry" />
        </mxCell>
        <mxCell id="NqD0hkiDlEqOrspJl5zF-22" value="" style="rounded=0;whiteSpace=wrap;html=1;container=0;" parent="1" vertex="1">
          <mxGeometry x="660" y="620" width="60" height="20" as="geometry" />
        </mxCell>
        <mxCell id="NqD0hkiDlEqOrspJl5zF-23" value="" style="rounded=0;whiteSpace=wrap;html=1;container=0;" parent="1" vertex="1">
          <mxGeometry x="660" y="640" width="60" height="20" as="geometry" />
        </mxCell>
        <mxCell id="NqD0hkiDlEqOrspJl5zF-24" value="1D-CNN" style="text;html=1;strokeColor=none;fillColor=none;align=center;verticalAlign=middle;whiteSpace=wrap;rounded=0;container=0;" parent="1" vertex="1">
          <mxGeometry x="590" y="550" width="50" height="30" as="geometry" />
        </mxCell>
        <mxCell id="NqD0hkiDlEqOrspJl5zF-25" value="" style="rounded=0;whiteSpace=wrap;html=1;container=0;" parent="1" vertex="1">
          <mxGeometry x="70" y="560" width="60" height="20" as="geometry" />
        </mxCell>
        <mxCell id="NqD0hkiDlEqOrspJl5zF-26" value="" style="rounded=0;whiteSpace=wrap;html=1;container=0;" parent="1" vertex="1">
          <mxGeometry x="70" y="580" width="60" height="20" as="geometry" />
        </mxCell>
        <mxCell id="NqD0hkiDlEqOrspJl5zF-27" value="" style="rounded=0;whiteSpace=wrap;html=1;fillColor=#d0cee2;strokeColor=#56517e;container=0;" parent="1" vertex="1">
          <mxGeometry x="70" y="600" width="60" height="20" as="geometry" />
        </mxCell>
        <mxCell id="NqD0hkiDlEqOrspJl5zF-28" value="" style="rounded=0;whiteSpace=wrap;html=1;container=0;" parent="1" vertex="1">
          <mxGeometry x="70" y="620" width="60" height="20" as="geometry" />
        </mxCell>
        <mxCell id="NqD0hkiDlEqOrspJl5zF-29" value="" style="rounded=0;whiteSpace=wrap;html=1;container=0;" parent="1" vertex="1">
          <mxGeometry x="70" y="640" width="60" height="20" as="geometry" />
        </mxCell>
        <mxCell id="NqD0hkiDlEqOrspJl5zF-30" value="" style="rounded=0;whiteSpace=wrap;html=1;container=0;" parent="1" vertex="1">
          <mxGeometry x="230" y="560" width="60" height="20" as="geometry" />
        </mxCell>
        <mxCell id="NqD0hkiDlEqOrspJl5zF-31" value="" style="rounded=0;whiteSpace=wrap;html=1;container=0;" parent="1" vertex="1">
          <mxGeometry x="230" y="580" width="60" height="20" as="geometry" />
        </mxCell>
        <mxCell id="NqD0hkiDlEqOrspJl5zF-32" value="" style="rounded=0;whiteSpace=wrap;html=1;container=0;" parent="1" vertex="1">
          <mxGeometry x="230" y="600" width="60" height="20" as="geometry" />
        </mxCell>
        <mxCell id="NqD0hkiDlEqOrspJl5zF-33" value="" style="rounded=0;whiteSpace=wrap;html=1;container=0;" parent="1" vertex="1">
          <mxGeometry x="230" y="620" width="60" height="20" as="geometry" />
        </mxCell>
        <mxCell id="NqD0hkiDlEqOrspJl5zF-34" value="" style="rounded=0;whiteSpace=wrap;html=1;container=0;" parent="1" vertex="1">
          <mxGeometry x="230" y="640" width="60" height="20" as="geometry" />
        </mxCell>
        <mxCell id="_sezI91-fOamiAFLQJ-b-1" value="&lt;font style=&quot;font-size: 12px;&quot;&gt;$$N+1$$&lt;/font&gt;" style="text;html=1;strokeColor=none;fillColor=none;align=center;verticalAlign=middle;whiteSpace=wrap;rounded=0;container=0;" parent="1" vertex="1">
          <mxGeometry x="20" y="595" width="50" height="30" as="geometry" />
        </mxCell>
        <mxCell id="_sezI91-fOamiAFLQJ-b-2" value="" style="endArrow=classic;html=1;rounded=0;exitX=0.5;exitY=1;exitDx=0;exitDy=0;entryX=0.5;entryY=0;entryDx=0;entryDy=0;" parent="1" source="RQx3u-8Dk0X0VH6icdqI-12" target="_sezI91-fOamiAFLQJ-b-12" edge="1">
          <mxGeometry width="50" height="50" relative="1" as="geometry">
            <mxPoint x="390" y="430" as="sourcePoint" />
            <mxPoint x="120" y="420" as="targetPoint" />
          </mxGeometry>
        </mxCell>
        <mxCell id="_sezI91-fOamiAFLQJ-b-3" value="" style="endArrow=classic;html=1;rounded=0;exitX=0.5;exitY=1;exitDx=0;exitDy=0;entryX=0.5;entryY=0;entryDx=0;entryDy=0;" parent="1" source="RQx3u-8Dk0X0VH6icdqI-3" target="_sezI91-fOamiAFLQJ-b-12" edge="1">
          <mxGeometry width="50" height="50" relative="1" as="geometry">
            <mxPoint x="150" y="340" as="sourcePoint" />
            <mxPoint x="130" y="430" as="targetPoint" />
          </mxGeometry>
        </mxCell>
        <mxCell id="_sezI91-fOamiAFLQJ-b-4" value="" style="endArrow=classic;html=1;rounded=0;exitX=0.5;exitY=1;exitDx=0;exitDy=0;entryX=0.5;entryY=0;entryDx=0;entryDy=0;" parent="1" source="RQx3u-8Dk0X0VH6icdqI-1" target="_sezI91-fOamiAFLQJ-b-12" edge="1">
          <mxGeometry width="50" height="50" relative="1" as="geometry">
            <mxPoint x="160" y="350" as="sourcePoint" />
            <mxPoint x="130" y="410" as="targetPoint" />
          </mxGeometry>
        </mxCell>
        <mxCell id="_sezI91-fOamiAFLQJ-b-5" value="" style="endArrow=classic;html=1;rounded=0;exitX=0;exitY=0.5;exitDx=0;exitDy=0;entryX=0.5;entryY=0;entryDx=0;entryDy=0;" parent="1" source="RQx3u-8Dk0X0VH6icdqI-5" target="_sezI91-fOamiAFLQJ-b-12" edge="1">
          <mxGeometry width="50" height="50" relative="1" as="geometry">
            <mxPoint x="390" y="430" as="sourcePoint" />
            <mxPoint x="160" y="440" as="targetPoint" />
          </mxGeometry>
        </mxCell>
        <mxCell id="_sezI91-fOamiAFLQJ-b-6" value="" style="endArrow=classic;html=1;rounded=0;exitX=0.5;exitY=1;exitDx=0;exitDy=0;entryX=0.5;entryY=0;entryDx=0;entryDy=0;" parent="1" source="RQx3u-8Dk0X0VH6icdqI-13" target="_sezI91-fOamiAFLQJ-b-12" edge="1">
          <mxGeometry width="50" height="50" relative="1" as="geometry">
            <mxPoint x="170" y="360" as="sourcePoint" />
            <mxPoint x="150" y="390" as="targetPoint" />
          </mxGeometry>
        </mxCell>
        <mxCell id="_sezI91-fOamiAFLQJ-b-7" value="$$K$$" style="text;html=1;strokeColor=none;fillColor=none;align=center;verticalAlign=middle;whiteSpace=wrap;rounded=0;" parent="1" vertex="1">
          <mxGeometry x="150" y="50" width="60" height="30" as="geometry" />
        </mxCell>
        <mxCell id="_sezI91-fOamiAFLQJ-b-8" value="$$K$$" style="text;html=1;strokeColor=none;fillColor=none;align=center;verticalAlign=middle;whiteSpace=wrap;rounded=0;" parent="1" vertex="1">
          <mxGeometry x="20" y="175" width="60" height="30" as="geometry" />
        </mxCell>
        <mxCell id="_sezI91-fOamiAFLQJ-b-10" value="" style="endArrow=classic;html=1;rounded=0;exitX=0;exitY=1;exitDx=0;exitDy=0;entryX=0.5;entryY=0;entryDx=0;entryDy=0;" parent="1" source="RQx3u-8Dk0X0VH6icdqI-4" target="_sezI91-fOamiAFLQJ-b-12" edge="1">
          <mxGeometry width="50" height="50" relative="1" as="geometry">
            <mxPoint x="390" y="430" as="sourcePoint" />
            <mxPoint x="160" y="420" as="targetPoint" />
          </mxGeometry>
        </mxCell>
        <mxCell id="_sezI91-fOamiAFLQJ-b-11" value="" style="endArrow=classic;html=1;rounded=0;exitX=0;exitY=1;exitDx=0;exitDy=0;entryX=0.5;entryY=0;entryDx=0;entryDy=0;" parent="1" source="RQx3u-8Dk0X0VH6icdqI-2" target="_sezI91-fOamiAFLQJ-b-12" edge="1">
          <mxGeometry width="50" height="50" relative="1" as="geometry">
            <mxPoint x="390" y="430" as="sourcePoint" />
            <mxPoint x="180" y="420" as="targetPoint" />
          </mxGeometry>
        </mxCell>
        <mxCell id="_sezI91-fOamiAFLQJ-b-12" value="&lt;font style=&quot;font-size: 15px;&quot;&gt;&lt;b&gt;Nearest Monitoring Station Data Encoding&lt;/b&gt;&lt;/font&gt;" style="text;html=1;strokeColor=none;fillColor=none;align=center;verticalAlign=middle;whiteSpace=wrap;rounded=0;" parent="1" vertex="1">
          <mxGeometry x="50" y="480" width="190" height="50" as="geometry" />
        </mxCell>
        <mxCell id="_sezI91-fOamiAFLQJ-b-13" value="Monitor Summary" style="text;html=1;strokeColor=none;fillColor=none;align=center;verticalAlign=middle;whiteSpace=wrap;rounded=0;container=0;" parent="1" vertex="1">
          <mxGeometry x="360" y="520" width="80" height="30" as="geometry" />
        </mxCell>
        <mxCell id="_sezI91-fOamiAFLQJ-b-17" value="Reconstructed Data" style="text;html=1;strokeColor=none;fillColor=none;align=center;verticalAlign=middle;whiteSpace=wrap;rounded=0;container=0;" parent="1" vertex="1">
          <mxGeometry x="650" y="520" width="80" height="30" as="geometry" />
        </mxCell>
        <mxCell id="_sezI91-fOamiAFLQJ-b-20" value="" style="whiteSpace=wrap;html=1;aspect=fixed;" parent="1" vertex="1">
          <mxGeometry x="420" y="90" width="200" height="200" as="geometry" />
        </mxCell>
        <mxCell id="_sezI91-fOamiAFLQJ-b-24" value="" style="endArrow=none;html=1;rounded=0;exitX=0;exitY=0.25;exitDx=0;exitDy=0;entryX=1;entryY=0.25;entryDx=0;entryDy=0;" parent="1" source="_sezI91-fOamiAFLQJ-b-20" target="_sezI91-fOamiAFLQJ-b-20" edge="1">
          <mxGeometry width="50" height="50" relative="1" as="geometry">
            <mxPoint x="560" y="430" as="sourcePoint" />
            <mxPoint x="610" y="380" as="targetPoint" />
          </mxGeometry>
        </mxCell>
        <mxCell id="_sezI91-fOamiAFLQJ-b-25" value="" style="endArrow=none;html=1;rounded=0;exitX=0;exitY=0.5;exitDx=0;exitDy=0;entryX=1;entryY=0.5;entryDx=0;entryDy=0;" parent="1" source="_sezI91-fOamiAFLQJ-b-20" target="_sezI91-fOamiAFLQJ-b-20" edge="1">
          <mxGeometry width="50" height="50" relative="1" as="geometry">
            <mxPoint x="440" y="230" as="sourcePoint" />
            <mxPoint x="640" y="230" as="targetPoint" />
          </mxGeometry>
        </mxCell>
        <mxCell id="_sezI91-fOamiAFLQJ-b-26" value="" style="endArrow=none;html=1;rounded=0;exitX=0;exitY=0.75;exitDx=0;exitDy=0;entryX=1;entryY=0.75;entryDx=0;entryDy=0;" parent="1" source="_sezI91-fOamiAFLQJ-b-20" target="_sezI91-fOamiAFLQJ-b-20" edge="1">
          <mxGeometry width="50" height="50" relative="1" as="geometry">
            <mxPoint x="430" y="170" as="sourcePoint" />
            <mxPoint x="630" y="170" as="targetPoint" />
          </mxGeometry>
        </mxCell>
        <mxCell id="_sezI91-fOamiAFLQJ-b-27" value="" style="endArrow=none;html=1;rounded=0;exitX=0.25;exitY=0;exitDx=0;exitDy=0;entryX=0.25;entryY=1;entryDx=0;entryDy=0;" parent="1" source="_sezI91-fOamiAFLQJ-b-20" target="_sezI91-fOamiAFLQJ-b-20" edge="1">
          <mxGeometry width="50" height="50" relative="1" as="geometry">
            <mxPoint x="440" y="180" as="sourcePoint" />
            <mxPoint x="640" y="180" as="targetPoint" />
          </mxGeometry>
        </mxCell>
        <mxCell id="_sezI91-fOamiAFLQJ-b-28" value="" style="endArrow=none;html=1;rounded=0;exitX=0.5;exitY=0;exitDx=0;exitDy=0;entryX=0.5;entryY=1;entryDx=0;entryDy=0;" parent="1" source="_sezI91-fOamiAFLQJ-b-20" target="_sezI91-fOamiAFLQJ-b-20" edge="1">
          <mxGeometry width="50" height="50" relative="1" as="geometry">
            <mxPoint x="450" y="190" as="sourcePoint" />
            <mxPoint x="650" y="190" as="targetPoint" />
          </mxGeometry>
        </mxCell>
        <mxCell id="_sezI91-fOamiAFLQJ-b-29" value="" style="endArrow=none;html=1;rounded=0;exitX=0.75;exitY=0;exitDx=0;exitDy=0;entryX=0.75;entryY=1;entryDx=0;entryDy=0;" parent="1" source="_sezI91-fOamiAFLQJ-b-20" target="_sezI91-fOamiAFLQJ-b-20" edge="1">
          <mxGeometry width="50" height="50" relative="1" as="geometry">
            <mxPoint x="460" y="200" as="sourcePoint" />
            <mxPoint x="660" y="200" as="targetPoint" />
          </mxGeometry>
        </mxCell>
        <mxCell id="_sezI91-fOamiAFLQJ-b-30" value="1D-CNN" style="text;html=1;strokeColor=none;fillColor=none;align=center;verticalAlign=middle;whiteSpace=wrap;rounded=0;container=0;" parent="1" vertex="1">
          <mxGeometry x="160" y="550" width="50" height="30" as="geometry" />
        </mxCell>
        <mxCell id="_sezI91-fOamiAFLQJ-b-31" value="" style="endArrow=classic;html=1;rounded=0;" parent="1" edge="1">
          <mxGeometry width="50" height="50" relative="1" as="geometry">
            <mxPoint x="160" y="593.75" as="sourcePoint" />
            <mxPoint x="210" y="593.75" as="targetPoint" />
          </mxGeometry>
        </mxCell>
        <mxCell id="_sezI91-fOamiAFLQJ-b-32" value="" style="endArrow=classic;html=1;rounded=0;" parent="1" edge="1">
          <mxGeometry width="50" height="50" relative="1" as="geometry">
            <mxPoint x="675" y="194" as="sourcePoint" />
            <mxPoint x="725" y="194" as="targetPoint" />
          </mxGeometry>
        </mxCell>
        <mxCell id="_sezI91-fOamiAFLQJ-b-33" value="" style="rounded=0;whiteSpace=wrap;html=1;container=0;fillColor=#d5e8d4;strokeColor=#82b366;" parent="1" vertex="1">
          <mxGeometry x="760" y="140" width="60" height="20" as="geometry" />
        </mxCell>
        <mxCell id="_sezI91-fOamiAFLQJ-b-34" value="" style="rounded=0;whiteSpace=wrap;html=1;container=0;fillColor=#d5e8d4;strokeColor=#82b366;" parent="1" vertex="1">
          <mxGeometry x="760" y="160" width="60" height="20" as="geometry" />
        </mxCell>
        <mxCell id="_sezI91-fOamiAFLQJ-b-35" value="" style="rounded=0;whiteSpace=wrap;html=1;container=0;fillColor=#d5e8d4;strokeColor=#82b366;" parent="1" vertex="1">
          <mxGeometry x="760" y="180" width="60" height="20" as="geometry" />
        </mxCell>
        <mxCell id="_sezI91-fOamiAFLQJ-b-36" value="" style="rounded=0;whiteSpace=wrap;html=1;container=0;fillColor=#d5e8d4;strokeColor=#82b366;" parent="1" vertex="1">
          <mxGeometry x="760" y="200" width="60" height="20" as="geometry" />
        </mxCell>
        <mxCell id="_sezI91-fOamiAFLQJ-b-66" style="edgeStyle=orthogonalEdgeStyle;rounded=0;orthogonalLoop=1;jettySize=auto;html=1;entryX=0.5;entryY=1;entryDx=0;entryDy=0;" parent="1" source="_sezI91-fOamiAFLQJ-b-37" target="_sezI91-fOamiAFLQJ-b-54" edge="1">
          <mxGeometry relative="1" as="geometry">
            <Array as="points">
              <mxPoint x="770" y="1150" />
              <mxPoint x="350" y="1150" />
            </Array>
          </mxGeometry>
        </mxCell>
        <mxCell id="_sezI91-fOamiAFLQJ-b-37" value="" style="rounded=0;whiteSpace=wrap;html=1;container=0;fillColor=#d5e8d4;strokeColor=#82b366;" parent="1" vertex="1">
          <mxGeometry x="760" y="220" width="60" height="20" as="geometry" />
        </mxCell>
        <mxCell id="_sezI91-fOamiAFLQJ-b-38" value="FNN" style="text;html=1;strokeColor=none;fillColor=none;align=center;verticalAlign=middle;whiteSpace=wrap;rounded=0;container=0;" parent="1" vertex="1">
          <mxGeometry x="670" y="155" width="60" height="30" as="geometry" />
        </mxCell>
        <mxCell id="_sezI91-fOamiAFLQJ-b-39" value="Satellite Summary" style="text;html=1;strokeColor=none;fillColor=none;align=center;verticalAlign=middle;whiteSpace=wrap;rounded=0;container=0;" parent="1" vertex="1">
          <mxGeometry x="750" y="100" width="80" height="30" as="geometry" />
        </mxCell>
        <mxCell id="_sezI91-fOamiAFLQJ-b-40" value="2D-CNN" style="text;html=1;strokeColor=none;fillColor=none;align=center;verticalAlign=middle;whiteSpace=wrap;rounded=0;container=0;" parent="1" vertex="1">
          <mxGeometry x="870" y="151.25" width="50" height="30" as="geometry" />
        </mxCell>
        <mxCell id="_sezI91-fOamiAFLQJ-b-41" value="" style="endArrow=classic;html=1;rounded=0;" parent="1" edge="1">
          <mxGeometry width="50" height="50" relative="1" as="geometry">
            <mxPoint x="870" y="189" as="sourcePoint" />
            <mxPoint x="920" y="189" as="targetPoint" />
          </mxGeometry>
        </mxCell>
        <mxCell id="_sezI91-fOamiAFLQJ-b-42" value="" style="whiteSpace=wrap;html=1;aspect=fixed;" parent="1" vertex="1">
          <mxGeometry x="940" y="90" width="200" height="200" as="geometry" />
        </mxCell>
        <mxCell id="_sezI91-fOamiAFLQJ-b-43" value="" style="endArrow=none;html=1;rounded=0;exitX=0;exitY=0.25;exitDx=0;exitDy=0;entryX=1;entryY=0.25;entryDx=0;entryDy=0;" parent="1" source="_sezI91-fOamiAFLQJ-b-42" target="_sezI91-fOamiAFLQJ-b-42" edge="1">
          <mxGeometry width="50" height="50" relative="1" as="geometry">
            <mxPoint x="1080" y="430" as="sourcePoint" />
            <mxPoint x="1130" y="380" as="targetPoint" />
          </mxGeometry>
        </mxCell>
        <mxCell id="_sezI91-fOamiAFLQJ-b-44" value="" style="endArrow=none;html=1;rounded=0;exitX=0;exitY=0.5;exitDx=0;exitDy=0;entryX=1;entryY=0.5;entryDx=0;entryDy=0;" parent="1" source="_sezI91-fOamiAFLQJ-b-42" target="_sezI91-fOamiAFLQJ-b-42" edge="1">
          <mxGeometry width="50" height="50" relative="1" as="geometry">
            <mxPoint x="960" y="230" as="sourcePoint" />
            <mxPoint x="1160" y="230" as="targetPoint" />
          </mxGeometry>
        </mxCell>
        <mxCell id="_sezI91-fOamiAFLQJ-b-45" value="" style="endArrow=none;html=1;rounded=0;exitX=0;exitY=0.75;exitDx=0;exitDy=0;entryX=1;entryY=0.75;entryDx=0;entryDy=0;" parent="1" source="_sezI91-fOamiAFLQJ-b-42" target="_sezI91-fOamiAFLQJ-b-42" edge="1">
          <mxGeometry width="50" height="50" relative="1" as="geometry">
            <mxPoint x="950" y="170" as="sourcePoint" />
            <mxPoint x="1150" y="170" as="targetPoint" />
          </mxGeometry>
        </mxCell>
        <mxCell id="_sezI91-fOamiAFLQJ-b-46" value="" style="endArrow=none;html=1;rounded=0;exitX=0.25;exitY=0;exitDx=0;exitDy=0;entryX=0.25;entryY=1;entryDx=0;entryDy=0;" parent="1" source="_sezI91-fOamiAFLQJ-b-42" target="_sezI91-fOamiAFLQJ-b-42" edge="1">
          <mxGeometry width="50" height="50" relative="1" as="geometry">
            <mxPoint x="960" y="180" as="sourcePoint" />
            <mxPoint x="1160" y="180" as="targetPoint" />
          </mxGeometry>
        </mxCell>
        <mxCell id="_sezI91-fOamiAFLQJ-b-47" value="" style="endArrow=none;html=1;rounded=0;exitX=0.5;exitY=0;exitDx=0;exitDy=0;entryX=0.5;entryY=1;entryDx=0;entryDy=0;" parent="1" source="_sezI91-fOamiAFLQJ-b-42" target="_sezI91-fOamiAFLQJ-b-42" edge="1">
          <mxGeometry width="50" height="50" relative="1" as="geometry">
            <mxPoint x="970" y="190" as="sourcePoint" />
            <mxPoint x="1170" y="190" as="targetPoint" />
          </mxGeometry>
        </mxCell>
        <mxCell id="_sezI91-fOamiAFLQJ-b-48" value="" style="endArrow=none;html=1;rounded=0;exitX=0.75;exitY=0;exitDx=0;exitDy=0;entryX=0.75;entryY=1;entryDx=0;entryDy=0;" parent="1" source="_sezI91-fOamiAFLQJ-b-42" target="_sezI91-fOamiAFLQJ-b-42" edge="1">
          <mxGeometry width="50" height="50" relative="1" as="geometry">
            <mxPoint x="980" y="200" as="sourcePoint" />
            <mxPoint x="1180" y="200" as="targetPoint" />
          </mxGeometry>
        </mxCell>
        <mxCell id="_sezI91-fOamiAFLQJ-b-49" value="Reconstructed Data" style="text;html=1;strokeColor=none;fillColor=none;align=center;verticalAlign=middle;whiteSpace=wrap;rounded=0;container=0;" parent="1" vertex="1">
          <mxGeometry x="1000" y="40" width="80" height="30" as="geometry" />
        </mxCell>
        <mxCell id="_sezI91-fOamiAFLQJ-b-50" value="" style="rounded=0;whiteSpace=wrap;html=1;container=0;fillColor=#d5e8d4;strokeColor=#82b366;" parent="1" vertex="1">
          <mxGeometry x="320" y="1000" width="60" height="20" as="geometry" />
        </mxCell>
        <mxCell id="_sezI91-fOamiAFLQJ-b-51" value="" style="rounded=0;whiteSpace=wrap;html=1;container=0;fillColor=#d5e8d4;strokeColor=#82b366;" parent="1" vertex="1">
          <mxGeometry x="320" y="1020" width="60" height="20" as="geometry" />
        </mxCell>
        <mxCell id="_sezI91-fOamiAFLQJ-b-52" value="" style="rounded=0;whiteSpace=wrap;html=1;container=0;fillColor=#d5e8d4;strokeColor=#82b366;" parent="1" vertex="1">
          <mxGeometry x="320" y="1040" width="60" height="20" as="geometry" />
        </mxCell>
        <mxCell id="_sezI91-fOamiAFLQJ-b-53" value="" style="rounded=0;whiteSpace=wrap;html=1;container=0;fillColor=#d5e8d4;strokeColor=#82b366;" parent="1" vertex="1">
          <mxGeometry x="320" y="1060" width="60" height="20" as="geometry" />
        </mxCell>
        <mxCell id="_sezI91-fOamiAFLQJ-b-54" value="" style="rounded=0;whiteSpace=wrap;html=1;container=0;fillColor=#d5e8d4;strokeColor=#82b366;" parent="1" vertex="1">
          <mxGeometry x="320" y="1080" width="60" height="20" as="geometry" />
        </mxCell>
        <mxCell id="_sezI91-fOamiAFLQJ-b-55" value="" style="rounded=0;whiteSpace=wrap;html=1;container=0;fillColor=#dae8fc;strokeColor=#6c8ebf;" parent="1" vertex="1">
          <mxGeometry x="320" y="900" width="60" height="20" as="geometry" />
        </mxCell>
        <mxCell id="_sezI91-fOamiAFLQJ-b-56" value="" style="rounded=0;whiteSpace=wrap;html=1;container=0;fillColor=#dae8fc;strokeColor=#6c8ebf;" parent="1" vertex="1">
          <mxGeometry x="320" y="920" width="60" height="20" as="geometry" />
        </mxCell>
        <mxCell id="_sezI91-fOamiAFLQJ-b-57" value="" style="rounded=0;whiteSpace=wrap;html=1;container=0;fillColor=#dae8fc;strokeColor=#6c8ebf;" parent="1" vertex="1">
          <mxGeometry x="320" y="940" width="60" height="20" as="geometry" />
        </mxCell>
        <mxCell id="_sezI91-fOamiAFLQJ-b-58" value="" style="rounded=0;whiteSpace=wrap;html=1;container=0;fillColor=#dae8fc;strokeColor=#6c8ebf;" parent="1" vertex="1">
          <mxGeometry x="320" y="960" width="60" height="20" as="geometry" />
        </mxCell>
        <mxCell id="_sezI91-fOamiAFLQJ-b-59" value="" style="rounded=0;whiteSpace=wrap;html=1;container=0;fillColor=#dae8fc;strokeColor=#6c8ebf;" parent="1" vertex="1">
          <mxGeometry x="320" y="980" width="60" height="20" as="geometry" />
        </mxCell>
        <mxCell id="_sezI91-fOamiAFLQJ-b-62" value="" style="endArrow=classic;html=1;rounded=0;" parent="1" edge="1">
          <mxGeometry width="50" height="50" relative="1" as="geometry">
            <mxPoint x="430" y="999" as="sourcePoint" />
            <mxPoint x="480" y="999" as="targetPoint" />
          </mxGeometry>
        </mxCell>
        <mxCell id="_sezI91-fOamiAFLQJ-b-63" value="Regressor" style="text;html=1;strokeColor=none;fillColor=none;align=center;verticalAlign=middle;whiteSpace=wrap;rounded=0;container=0;" parent="1" vertex="1">
          <mxGeometry x="420" y="955.25" width="70" height="30" as="geometry" />
        </mxCell>
        <mxCell id="_sezI91-fOamiAFLQJ-b-64" value="PM2.5" style="rounded=1;whiteSpace=wrap;html=1;fillColor=#f8cecc;strokeColor=#b85450;" parent="1" vertex="1">
          <mxGeometry x="510" y="990" width="60" height="40" as="geometry" />
        </mxCell>
        <mxCell id="vywdh6Q5bNsg3FHe_1HO-3" style="edgeStyle=orthogonalEdgeStyle;rounded=0;orthogonalLoop=1;jettySize=auto;html=1;exitX=0;exitY=0.25;exitDx=0;exitDy=0;entryX=0.75;entryY=1;entryDx=0;entryDy=0;fillColor=#d80073;strokeColor=#A50040;" parent="1" source="vywdh6Q5bNsg3FHe_1HO-1" target="NqD0hkiDlEqOrspJl5zF-11" edge="1">
          <mxGeometry relative="1" as="geometry" />
        </mxCell>
        <mxCell id="vywdh6Q5bNsg3FHe_1HO-1" value="PM2.5" style="rounded=1;whiteSpace=wrap;html=1;fillColor=#f8cecc;strokeColor=#b85450;" parent="1" vertex="1">
          <mxGeometry x="480" y="720" width="60" height="40" as="geometry" />
        </mxCell>
        <mxCell id="vywdh6Q5bNsg3FHe_1HO-5" value="" style="endArrow=classic;html=1;rounded=0;fillColor=#d80073;strokeColor=#A50040;" parent="1" edge="1">
          <mxGeometry width="50" height="50" relative="1" as="geometry">
            <mxPoint x="500" y="617.75" as="sourcePoint" />
            <mxPoint x="450" y="617.75" as="targetPoint" />
          </mxGeometry>
        </mxCell>
        <mxCell id="vywdh6Q5bNsg3FHe_1HO-6" value="" style="endArrow=classic;html=1;rounded=0;fillColor=#d80073;strokeColor=#A50040;" parent="1" edge="1">
          <mxGeometry width="50" height="50" relative="1" as="geometry">
            <mxPoint x="640" y="617.75" as="sourcePoint" />
            <mxPoint x="590" y="617.75" as="targetPoint" />
          </mxGeometry>
        </mxCell>
        <mxCell id="vywdh6Q5bNsg3FHe_1HO-7" value="" style="endArrow=classic;html=1;rounded=0;fillColor=#d80073;strokeColor=#A50040;" parent="1" edge="1">
          <mxGeometry width="50" height="50" relative="1" as="geometry">
            <mxPoint x="355" y="617.75" as="sourcePoint" />
            <mxPoint x="305" y="617.75" as="targetPoint" />
          </mxGeometry>
        </mxCell>
        <mxCell id="vywdh6Q5bNsg3FHe_1HO-8" value="" style="endArrow=classic;html=1;rounded=0;fillColor=#d80073;strokeColor=#A50040;" parent="1" edge="1">
          <mxGeometry width="50" height="50" relative="1" as="geometry">
            <mxPoint x="210" y="618.75" as="sourcePoint" />
            <mxPoint x="160" y="618.75" as="targetPoint" />
          </mxGeometry>
        </mxCell>
        <mxCell id="vywdh6Q5bNsg3FHe_1HO-9" value="" style="endArrow=classic;html=1;rounded=0;fillColor=#d80073;strokeColor=#A50040;" parent="1" edge="1">
          <mxGeometry width="50" height="50" relative="1" as="geometry">
            <mxPoint x="40" y="734.5" as="sourcePoint" />
            <mxPoint x="95" y="734.5" as="targetPoint" />
          </mxGeometry>
        </mxCell>
        <mxCell id="vywdh6Q5bNsg3FHe_1HO-10" value="&lt;b&gt;:&amp;nbsp; &amp;nbsp; backporpagation&lt;/b&gt;" style="text;html=1;strokeColor=none;fillColor=none;align=center;verticalAlign=middle;whiteSpace=wrap;rounded=0;" parent="1" vertex="1">
          <mxGeometry x="92.5" y="720" width="127.5" height="30" as="geometry" />
        </mxCell>
        <mxCell id="vywdh6Q5bNsg3FHe_1HO-11" value="" style="endArrow=classic;html=1;rounded=0;fillColor=#d80073;strokeColor=#A50040;" parent="1" edge="1">
          <mxGeometry width="50" height="50" relative="1" as="geometry">
            <mxPoint x="380" y="219" as="sourcePoint" />
            <mxPoint x="330" y="219" as="targetPoint" />
          </mxGeometry>
        </mxCell>
        <mxCell id="vywdh6Q5bNsg3FHe_1HO-12" value="" style="endArrow=classic;html=1;rounded=0;fillColor=#d80073;strokeColor=#A50040;" parent="1" edge="1">
          <mxGeometry width="50" height="50" relative="1" as="geometry">
            <mxPoint x="725" y="220" as="sourcePoint" />
            <mxPoint x="675" y="220" as="targetPoint" />
          </mxGeometry>
        </mxCell>
        <mxCell id="vywdh6Q5bNsg3FHe_1HO-13" value="" style="endArrow=classic;html=1;rounded=0;fillColor=#d80073;strokeColor=#A50040;" parent="1" edge="1">
          <mxGeometry width="50" height="50" relative="1" as="geometry">
            <mxPoint x="920" y="219" as="sourcePoint" />
            <mxPoint x="870" y="219" as="targetPoint" />
          </mxGeometry>
        </mxCell>
        <mxCell id="vywdh6Q5bNsg3FHe_1HO-14" style="edgeStyle=orthogonalEdgeStyle;rounded=0;orthogonalLoop=1;jettySize=auto;html=1;exitX=0.5;exitY=1;exitDx=0;exitDy=0;entryX=0;entryY=0.75;entryDx=0;entryDy=0;" parent="1" target="vywdh6Q5bNsg3FHe_1HO-17" edge="1">
          <mxGeometry relative="1" as="geometry">
            <mxPoint x="790" y="240" as="sourcePoint" />
            <Array as="points">
              <mxPoint x="790" y="330" />
            </Array>
          </mxGeometry>
        </mxCell>
        <mxCell id="vywdh6Q5bNsg3FHe_1HO-16" style="edgeStyle=orthogonalEdgeStyle;rounded=0;orthogonalLoop=1;jettySize=auto;html=1;exitX=0;exitY=0.25;exitDx=0;exitDy=0;entryX=0.75;entryY=1;entryDx=0;entryDy=0;fillColor=#d80073;strokeColor=#A50040;" parent="1" source="vywdh6Q5bNsg3FHe_1HO-17" edge="1">
          <mxGeometry relative="1" as="geometry">
            <mxPoint x="805" y="240" as="targetPoint" />
          </mxGeometry>
        </mxCell>
        <mxCell id="vywdh6Q5bNsg3FHe_1HO-17" value="PM2.5" style="rounded=1;whiteSpace=wrap;html=1;fillColor=#f8cecc;strokeColor=#b85450;" parent="1" vertex="1">
          <mxGeometry x="870" y="300" width="60" height="40" as="geometry" />
        </mxCell>
        <mxCell id="vywdh6Q5bNsg3FHe_1HO-18" value="" style="endArrow=classic;html=1;rounded=0;fillColor=#d80073;strokeColor=#000000;" parent="1" edge="1">
          <mxGeometry width="50" height="50" relative="1" as="geometry">
            <mxPoint x="40" y="704.5" as="sourcePoint" />
            <mxPoint x="95" y="704.5" as="targetPoint" />
          </mxGeometry>
        </mxCell>
        <mxCell id="vywdh6Q5bNsg3FHe_1HO-19" value="&lt;b&gt;:&amp;nbsp; &amp;nbsp; forward porpagation&lt;/b&gt;" style="text;html=1;strokeColor=none;fillColor=none;align=center;verticalAlign=middle;whiteSpace=wrap;rounded=0;" parent="1" vertex="1">
          <mxGeometry x="92.5" y="690" width="147.5" height="30" as="geometry" />
        </mxCell>
        <mxCell id="vywdh6Q5bNsg3FHe_1HO-20" value="" style="endArrow=classic;html=1;rounded=0;fillColor=#d80073;strokeColor=#A50040;" parent="1" edge="1">
          <mxGeometry width="50" height="50" relative="1" as="geometry">
            <mxPoint x="480" y="1019" as="sourcePoint" />
            <mxPoint x="430" y="1019" as="targetPoint" />
          </mxGeometry>
        </mxCell>
      </root>
    </mxGraphModel>
  </diagram>
  <diagram id="2zmbEt8Epq1Rmhou8a_r" name="Encoder Input Tuning">
    <mxGraphModel dx="1434" dy="796" grid="1" gridSize="10" guides="1" tooltips="1" connect="1" arrows="1" fold="1" page="1" pageScale="1" pageWidth="827" pageHeight="1169" math="1" shadow="0">
      <root>
        <mxCell id="0" />
        <mxCell id="1" parent="0" />
        <mxCell id="hJtQ2Zw3E39tqh5PAwoP-1" value="&lt;font style=&quot;font-size: 12px;&quot;&gt;$$d_x$$&lt;/font&gt;" style="text;html=1;strokeColor=none;fillColor=none;align=center;verticalAlign=middle;whiteSpace=wrap;rounded=0;container=0;" parent="1" vertex="1">
          <mxGeometry x="124" y="90" width="30" height="30" as="geometry" />
        </mxCell>
        <mxCell id="hJtQ2Zw3E39tqh5PAwoP-2" value="" style="endArrow=classic;html=1;rounded=0;" parent="1" edge="1">
          <mxGeometry width="50" height="50" relative="1" as="geometry">
            <mxPoint x="344" y="152.75" as="sourcePoint" />
            <mxPoint x="394" y="152.75" as="targetPoint" />
          </mxGeometry>
        </mxCell>
        <mxCell id="hJtQ2Zw3E39tqh5PAwoP-3" value="" style="endArrow=classic;html=1;rounded=0;" parent="1" edge="1">
          <mxGeometry width="50" height="50" relative="1" as="geometry">
            <mxPoint x="489" y="153.75" as="sourcePoint" />
            <mxPoint x="539" y="153.75" as="targetPoint" />
          </mxGeometry>
        </mxCell>
        <mxCell id="hJtQ2Zw3E39tqh5PAwoP-4" value="" style="endArrow=classic;html=1;rounded=0;" parent="1" edge="1">
          <mxGeometry width="50" height="50" relative="1" as="geometry">
            <mxPoint x="629" y="153.75" as="sourcePoint" />
            <mxPoint x="679" y="153.75" as="targetPoint" />
          </mxGeometry>
        </mxCell>
        <mxCell id="hJtQ2Zw3E39tqh5PAwoP-5" value="" style="rounded=0;whiteSpace=wrap;html=1;container=0;fillColor=#dae8fc;strokeColor=#6c8ebf;" parent="1" vertex="1">
          <mxGeometry x="409" y="120" width="60" height="20" as="geometry" />
        </mxCell>
        <mxCell id="hJtQ2Zw3E39tqh5PAwoP-6" value="" style="rounded=0;whiteSpace=wrap;html=1;container=0;fillColor=#dae8fc;strokeColor=#6c8ebf;" parent="1" vertex="1">
          <mxGeometry x="409" y="140" width="60" height="20" as="geometry" />
        </mxCell>
        <mxCell id="hJtQ2Zw3E39tqh5PAwoP-7" value="" style="rounded=0;whiteSpace=wrap;html=1;container=0;fillColor=#dae8fc;strokeColor=#6c8ebf;" parent="1" vertex="1">
          <mxGeometry x="409" y="160" width="60" height="20" as="geometry" />
        </mxCell>
        <mxCell id="hJtQ2Zw3E39tqh5PAwoP-8" value="" style="rounded=0;whiteSpace=wrap;html=1;container=0;fillColor=#dae8fc;strokeColor=#6c8ebf;" parent="1" vertex="1">
          <mxGeometry x="409" y="180" width="60" height="20" as="geometry" />
        </mxCell>
        <mxCell id="hJtQ2Zw3E39tqh5PAwoP-9" style="edgeStyle=orthogonalEdgeStyle;rounded=0;orthogonalLoop=1;jettySize=auto;html=1;exitX=0.5;exitY=1;exitDx=0;exitDy=0;entryX=0;entryY=0.75;entryDx=0;entryDy=0;" parent="1" source="hJtQ2Zw3E39tqh5PAwoP-10" target="hJtQ2Zw3E39tqh5PAwoP-40" edge="1">
          <mxGeometry relative="1" as="geometry">
            <Array as="points">
              <mxPoint x="439" y="310" />
            </Array>
          </mxGeometry>
        </mxCell>
        <mxCell id="hJtQ2Zw3E39tqh5PAwoP-10" value="" style="rounded=0;whiteSpace=wrap;html=1;container=0;fillColor=#dae8fc;strokeColor=#6c8ebf;" parent="1" vertex="1">
          <mxGeometry x="409" y="200" width="60" height="20" as="geometry" />
        </mxCell>
        <mxCell id="hJtQ2Zw3E39tqh5PAwoP-11" value="FNN" style="text;html=1;strokeColor=none;fillColor=none;align=center;verticalAlign=middle;whiteSpace=wrap;rounded=0;container=0;" parent="1" vertex="1">
          <mxGeometry x="339" y="110" width="60" height="30" as="geometry" />
        </mxCell>
        <mxCell id="hJtQ2Zw3E39tqh5PAwoP-12" value="" style="rounded=0;whiteSpace=wrap;html=1;container=0;" parent="1" vertex="1">
          <mxGeometry x="549" y="120" width="60" height="20" as="geometry" />
        </mxCell>
        <mxCell id="hJtQ2Zw3E39tqh5PAwoP-13" value="" style="rounded=0;whiteSpace=wrap;html=1;container=0;" parent="1" vertex="1">
          <mxGeometry x="549" y="140" width="60" height="20" as="geometry" />
        </mxCell>
        <mxCell id="hJtQ2Zw3E39tqh5PAwoP-14" value="" style="rounded=0;whiteSpace=wrap;html=1;container=0;" parent="1" vertex="1">
          <mxGeometry x="549" y="160" width="60" height="20" as="geometry" />
        </mxCell>
        <mxCell id="hJtQ2Zw3E39tqh5PAwoP-15" value="" style="rounded=0;whiteSpace=wrap;html=1;container=0;" parent="1" vertex="1">
          <mxGeometry x="549" y="180" width="60" height="20" as="geometry" />
        </mxCell>
        <mxCell id="hJtQ2Zw3E39tqh5PAwoP-16" value="" style="rounded=0;whiteSpace=wrap;html=1;container=0;" parent="1" vertex="1">
          <mxGeometry x="549" y="200" width="60" height="20" as="geometry" />
        </mxCell>
        <mxCell id="hJtQ2Zw3E39tqh5PAwoP-17" value="1D-CNN" style="text;html=1;strokeColor=none;fillColor=none;align=center;verticalAlign=middle;whiteSpace=wrap;rounded=0;container=0;" parent="1" vertex="1">
          <mxGeometry x="489" y="110" width="50" height="30" as="geometry" />
        </mxCell>
        <mxCell id="hJtQ2Zw3E39tqh5PAwoP-18" value="" style="rounded=0;whiteSpace=wrap;html=1;container=0;" parent="1" vertex="1">
          <mxGeometry x="699" y="120" width="60" height="20" as="geometry" />
        </mxCell>
        <mxCell id="hJtQ2Zw3E39tqh5PAwoP-19" value="" style="rounded=0;whiteSpace=wrap;html=1;container=0;" parent="1" vertex="1">
          <mxGeometry x="699" y="140" width="60" height="20" as="geometry" />
        </mxCell>
        <mxCell id="hJtQ2Zw3E39tqh5PAwoP-20" value="" style="rounded=0;whiteSpace=wrap;html=1;container=0;" parent="1" vertex="1">
          <mxGeometry x="699" y="160" width="60" height="20" as="geometry" />
        </mxCell>
        <mxCell id="hJtQ2Zw3E39tqh5PAwoP-21" value="" style="rounded=0;whiteSpace=wrap;html=1;container=0;" parent="1" vertex="1">
          <mxGeometry x="699" y="180" width="60" height="20" as="geometry" />
        </mxCell>
        <mxCell id="hJtQ2Zw3E39tqh5PAwoP-22" value="" style="rounded=0;whiteSpace=wrap;html=1;container=0;" parent="1" vertex="1">
          <mxGeometry x="699" y="200" width="60" height="20" as="geometry" />
        </mxCell>
        <mxCell id="hJtQ2Zw3E39tqh5PAwoP-23" value="1D-CNN" style="text;html=1;strokeColor=none;fillColor=none;align=center;verticalAlign=middle;whiteSpace=wrap;rounded=0;container=0;" parent="1" vertex="1">
          <mxGeometry x="629" y="110" width="50" height="30" as="geometry" />
        </mxCell>
        <mxCell id="hJtQ2Zw3E39tqh5PAwoP-24" value="" style="rounded=0;whiteSpace=wrap;html=1;container=0;" parent="1" vertex="1">
          <mxGeometry x="109" y="120" width="60" height="20" as="geometry" />
        </mxCell>
        <mxCell id="hJtQ2Zw3E39tqh5PAwoP-25" value="" style="rounded=0;whiteSpace=wrap;html=1;container=0;" parent="1" vertex="1">
          <mxGeometry x="109" y="140" width="60" height="20" as="geometry" />
        </mxCell>
        <mxCell id="hJtQ2Zw3E39tqh5PAwoP-26" value="" style="rounded=0;whiteSpace=wrap;html=1;fillColor=#d0cee2;strokeColor=#56517e;container=0;" parent="1" vertex="1">
          <mxGeometry x="109" y="160" width="60" height="20" as="geometry" />
        </mxCell>
        <mxCell id="hJtQ2Zw3E39tqh5PAwoP-27" value="" style="rounded=0;whiteSpace=wrap;html=1;container=0;" parent="1" vertex="1">
          <mxGeometry x="109" y="180" width="60" height="20" as="geometry" />
        </mxCell>
        <mxCell id="hJtQ2Zw3E39tqh5PAwoP-28" value="" style="rounded=0;whiteSpace=wrap;html=1;container=0;" parent="1" vertex="1">
          <mxGeometry x="109" y="200" width="60" height="20" as="geometry" />
        </mxCell>
        <mxCell id="hJtQ2Zw3E39tqh5PAwoP-29" value="" style="rounded=0;whiteSpace=wrap;html=1;container=0;" parent="1" vertex="1">
          <mxGeometry x="269" y="120" width="60" height="20" as="geometry" />
        </mxCell>
        <mxCell id="hJtQ2Zw3E39tqh5PAwoP-30" value="" style="rounded=0;whiteSpace=wrap;html=1;container=0;" parent="1" vertex="1">
          <mxGeometry x="269" y="140" width="60" height="20" as="geometry" />
        </mxCell>
        <mxCell id="hJtQ2Zw3E39tqh5PAwoP-31" value="" style="rounded=0;whiteSpace=wrap;html=1;container=0;" parent="1" vertex="1">
          <mxGeometry x="269" y="160" width="60" height="20" as="geometry" />
        </mxCell>
        <mxCell id="hJtQ2Zw3E39tqh5PAwoP-32" value="" style="rounded=0;whiteSpace=wrap;html=1;container=0;" parent="1" vertex="1">
          <mxGeometry x="269" y="180" width="60" height="20" as="geometry" />
        </mxCell>
        <mxCell id="hJtQ2Zw3E39tqh5PAwoP-33" value="" style="rounded=0;whiteSpace=wrap;html=1;container=0;" parent="1" vertex="1">
          <mxGeometry x="269" y="200" width="60" height="20" as="geometry" />
        </mxCell>
        <mxCell id="hJtQ2Zw3E39tqh5PAwoP-34" value="&lt;font style=&quot;font-size: 12px;&quot;&gt;$$N+1$$&lt;/font&gt;" style="text;html=1;strokeColor=none;fillColor=none;align=center;verticalAlign=middle;whiteSpace=wrap;rounded=0;container=0;" parent="1" vertex="1">
          <mxGeometry x="59" y="155" width="50" height="30" as="geometry" />
        </mxCell>
        <mxCell id="hJtQ2Zw3E39tqh5PAwoP-35" value="Monitor Summary" style="text;html=1;strokeColor=none;fillColor=none;align=center;verticalAlign=middle;whiteSpace=wrap;rounded=0;container=0;" parent="1" vertex="1">
          <mxGeometry x="399" y="80" width="80" height="30" as="geometry" />
        </mxCell>
        <mxCell id="hJtQ2Zw3E39tqh5PAwoP-36" value="Reconstructed Data" style="text;html=1;strokeColor=none;fillColor=none;align=center;verticalAlign=middle;whiteSpace=wrap;rounded=0;container=0;" parent="1" vertex="1">
          <mxGeometry x="689" y="80" width="80" height="30" as="geometry" />
        </mxCell>
        <mxCell id="hJtQ2Zw3E39tqh5PAwoP-37" value="1D-CNN" style="text;html=1;strokeColor=none;fillColor=none;align=center;verticalAlign=middle;whiteSpace=wrap;rounded=0;container=0;" parent="1" vertex="1">
          <mxGeometry x="199" y="110" width="50" height="30" as="geometry" />
        </mxCell>
        <mxCell id="hJtQ2Zw3E39tqh5PAwoP-38" value="" style="endArrow=classic;html=1;rounded=0;" parent="1" edge="1">
          <mxGeometry width="50" height="50" relative="1" as="geometry">
            <mxPoint x="199" y="153.75" as="sourcePoint" />
            <mxPoint x="249" y="153.75" as="targetPoint" />
          </mxGeometry>
        </mxCell>
        <mxCell id="hJtQ2Zw3E39tqh5PAwoP-39" style="edgeStyle=orthogonalEdgeStyle;rounded=0;orthogonalLoop=1;jettySize=auto;html=1;exitX=0;exitY=0.25;exitDx=0;exitDy=0;entryX=0.75;entryY=1;entryDx=0;entryDy=0;fillColor=#d80073;strokeColor=#A50040;" parent="1" source="hJtQ2Zw3E39tqh5PAwoP-40" target="hJtQ2Zw3E39tqh5PAwoP-10" edge="1">
          <mxGeometry relative="1" as="geometry" />
        </mxCell>
        <mxCell id="hJtQ2Zw3E39tqh5PAwoP-40" value="PM2.5" style="rounded=1;whiteSpace=wrap;html=1;fillColor=#f8cecc;strokeColor=#b85450;" parent="1" vertex="1">
          <mxGeometry x="519" y="280" width="60" height="40" as="geometry" />
        </mxCell>
        <mxCell id="hJtQ2Zw3E39tqh5PAwoP-41" value="" style="endArrow=classic;html=1;rounded=0;fillColor=#d80073;strokeColor=#A50040;" parent="1" edge="1">
          <mxGeometry width="50" height="50" relative="1" as="geometry">
            <mxPoint x="539" y="177.75" as="sourcePoint" />
            <mxPoint x="489" y="177.75" as="targetPoint" />
          </mxGeometry>
        </mxCell>
        <mxCell id="hJtQ2Zw3E39tqh5PAwoP-42" value="" style="endArrow=classic;html=1;rounded=0;fillColor=#d80073;strokeColor=#A50040;" parent="1" edge="1">
          <mxGeometry width="50" height="50" relative="1" as="geometry">
            <mxPoint x="679" y="177.75" as="sourcePoint" />
            <mxPoint x="629" y="177.75" as="targetPoint" />
          </mxGeometry>
        </mxCell>
        <mxCell id="hJtQ2Zw3E39tqh5PAwoP-43" value="" style="endArrow=classic;html=1;rounded=0;fillColor=#d80073;strokeColor=#A50040;" parent="1" edge="1">
          <mxGeometry width="50" height="50" relative="1" as="geometry">
            <mxPoint x="394" y="177.75" as="sourcePoint" />
            <mxPoint x="344" y="177.75" as="targetPoint" />
          </mxGeometry>
        </mxCell>
        <mxCell id="hJtQ2Zw3E39tqh5PAwoP-44" value="" style="endArrow=classic;html=1;rounded=0;fillColor=#d80073;strokeColor=#A50040;" parent="1" edge="1">
          <mxGeometry width="50" height="50" relative="1" as="geometry">
            <mxPoint x="249" y="178.75" as="sourcePoint" />
            <mxPoint x="199" y="178.75" as="targetPoint" />
          </mxGeometry>
        </mxCell>
        <mxCell id="IqUMqamfxP47hjbpPgD1-1" value="&lt;b&gt;&lt;font style=&quot;font-size: 14px;&quot;&gt;Source&lt;/font&gt;&lt;/b&gt;" style="text;html=1;strokeColor=none;fillColor=none;align=center;verticalAlign=middle;whiteSpace=wrap;rounded=0;" parent="1" vertex="1">
          <mxGeometry x="389" y="10" width="100" height="30" as="geometry" />
        </mxCell>
        <mxCell id="IqUMqamfxP47hjbpPgD1-2" value="&lt;font style=&quot;font-size: 12px;&quot;&gt;$$d_x$$&lt;/font&gt;" style="text;html=1;strokeColor=none;fillColor=none;align=center;verticalAlign=middle;whiteSpace=wrap;rounded=0;container=0;" parent="1" vertex="1">
          <mxGeometry x="124" y="480" width="30" height="30" as="geometry" />
        </mxCell>
        <mxCell id="IqUMqamfxP47hjbpPgD1-3" value="" style="endArrow=classic;html=1;rounded=0;" parent="1" edge="1">
          <mxGeometry width="50" height="50" relative="1" as="geometry">
            <mxPoint x="344" y="542.75" as="sourcePoint" />
            <mxPoint x="394" y="542.75" as="targetPoint" />
          </mxGeometry>
        </mxCell>
        <mxCell id="IqUMqamfxP47hjbpPgD1-4" value="" style="endArrow=classic;html=1;rounded=0;" parent="1" edge="1">
          <mxGeometry width="50" height="50" relative="1" as="geometry">
            <mxPoint x="489" y="543.75" as="sourcePoint" />
            <mxPoint x="539" y="543.75" as="targetPoint" />
          </mxGeometry>
        </mxCell>
        <mxCell id="IqUMqamfxP47hjbpPgD1-5" value="" style="endArrow=classic;html=1;rounded=0;" parent="1" edge="1">
          <mxGeometry width="50" height="50" relative="1" as="geometry">
            <mxPoint x="629" y="543.75" as="sourcePoint" />
            <mxPoint x="679" y="543.75" as="targetPoint" />
          </mxGeometry>
        </mxCell>
        <mxCell id="IqUMqamfxP47hjbpPgD1-6" value="" style="rounded=0;whiteSpace=wrap;html=1;container=0;fillColor=#dae8fc;strokeColor=#6c8ebf;" parent="1" vertex="1">
          <mxGeometry x="409" y="510" width="60" height="20" as="geometry" />
        </mxCell>
        <mxCell id="IqUMqamfxP47hjbpPgD1-7" value="" style="rounded=0;whiteSpace=wrap;html=1;container=0;fillColor=#dae8fc;strokeColor=#6c8ebf;" parent="1" vertex="1">
          <mxGeometry x="409" y="530" width="60" height="20" as="geometry" />
        </mxCell>
        <mxCell id="IqUMqamfxP47hjbpPgD1-8" value="" style="rounded=0;whiteSpace=wrap;html=1;container=0;fillColor=#dae8fc;strokeColor=#6c8ebf;" parent="1" vertex="1">
          <mxGeometry x="409" y="550" width="60" height="20" as="geometry" />
        </mxCell>
        <mxCell id="IqUMqamfxP47hjbpPgD1-9" value="" style="rounded=0;whiteSpace=wrap;html=1;container=0;fillColor=#dae8fc;strokeColor=#6c8ebf;" parent="1" vertex="1">
          <mxGeometry x="409" y="570" width="60" height="20" as="geometry" />
        </mxCell>
        <mxCell id="IqUMqamfxP47hjbpPgD1-10" style="edgeStyle=orthogonalEdgeStyle;rounded=0;orthogonalLoop=1;jettySize=auto;html=1;exitX=0.5;exitY=1;exitDx=0;exitDy=0;entryX=0;entryY=0.75;entryDx=0;entryDy=0;" parent="1" source="IqUMqamfxP47hjbpPgD1-11" target="IqUMqamfxP47hjbpPgD1-41" edge="1">
          <mxGeometry relative="1" as="geometry">
            <Array as="points">
              <mxPoint x="439" y="700" />
            </Array>
          </mxGeometry>
        </mxCell>
        <mxCell id="IqUMqamfxP47hjbpPgD1-11" value="" style="rounded=0;whiteSpace=wrap;html=1;container=0;fillColor=#dae8fc;strokeColor=#6c8ebf;" parent="1" vertex="1">
          <mxGeometry x="409" y="590" width="60" height="20" as="geometry" />
        </mxCell>
        <mxCell id="IqUMqamfxP47hjbpPgD1-12" value="FNN" style="text;html=1;strokeColor=none;fillColor=none;align=center;verticalAlign=middle;whiteSpace=wrap;rounded=0;container=0;" parent="1" vertex="1">
          <mxGeometry x="339" y="500" width="60" height="30" as="geometry" />
        </mxCell>
        <mxCell id="IqUMqamfxP47hjbpPgD1-13" value="" style="rounded=0;whiteSpace=wrap;html=1;container=0;" parent="1" vertex="1">
          <mxGeometry x="549" y="510" width="60" height="20" as="geometry" />
        </mxCell>
        <mxCell id="IqUMqamfxP47hjbpPgD1-14" value="" style="rounded=0;whiteSpace=wrap;html=1;container=0;" parent="1" vertex="1">
          <mxGeometry x="549" y="530" width="60" height="20" as="geometry" />
        </mxCell>
        <mxCell id="IqUMqamfxP47hjbpPgD1-15" value="" style="rounded=0;whiteSpace=wrap;html=1;container=0;" parent="1" vertex="1">
          <mxGeometry x="549" y="550" width="60" height="20" as="geometry" />
        </mxCell>
        <mxCell id="IqUMqamfxP47hjbpPgD1-16" value="" style="rounded=0;whiteSpace=wrap;html=1;container=0;" parent="1" vertex="1">
          <mxGeometry x="549" y="570" width="60" height="20" as="geometry" />
        </mxCell>
        <mxCell id="IqUMqamfxP47hjbpPgD1-17" value="" style="rounded=0;whiteSpace=wrap;html=1;container=0;" parent="1" vertex="1">
          <mxGeometry x="549" y="590" width="60" height="20" as="geometry" />
        </mxCell>
        <mxCell id="IqUMqamfxP47hjbpPgD1-18" value="1D-CNN" style="text;html=1;strokeColor=none;fillColor=none;align=center;verticalAlign=middle;whiteSpace=wrap;rounded=0;container=0;" parent="1" vertex="1">
          <mxGeometry x="489" y="500" width="50" height="30" as="geometry" />
        </mxCell>
        <mxCell id="IqUMqamfxP47hjbpPgD1-19" value="" style="rounded=0;whiteSpace=wrap;html=1;container=0;" parent="1" vertex="1">
          <mxGeometry x="699" y="510" width="60" height="20" as="geometry" />
        </mxCell>
        <mxCell id="IqUMqamfxP47hjbpPgD1-20" value="" style="rounded=0;whiteSpace=wrap;html=1;container=0;" parent="1" vertex="1">
          <mxGeometry x="699" y="530" width="60" height="20" as="geometry" />
        </mxCell>
        <mxCell id="IqUMqamfxP47hjbpPgD1-21" value="" style="rounded=0;whiteSpace=wrap;html=1;container=0;" parent="1" vertex="1">
          <mxGeometry x="699" y="550" width="60" height="20" as="geometry" />
        </mxCell>
        <mxCell id="IqUMqamfxP47hjbpPgD1-22" value="" style="rounded=0;whiteSpace=wrap;html=1;container=0;" parent="1" vertex="1">
          <mxGeometry x="699" y="570" width="60" height="20" as="geometry" />
        </mxCell>
        <mxCell id="IqUMqamfxP47hjbpPgD1-23" value="" style="rounded=0;whiteSpace=wrap;html=1;container=0;" parent="1" vertex="1">
          <mxGeometry x="699" y="590" width="60" height="20" as="geometry" />
        </mxCell>
        <mxCell id="IqUMqamfxP47hjbpPgD1-24" value="1D-CNN" style="text;html=1;strokeColor=none;fillColor=none;align=center;verticalAlign=middle;whiteSpace=wrap;rounded=0;container=0;" parent="1" vertex="1">
          <mxGeometry x="629" y="500" width="50" height="30" as="geometry" />
        </mxCell>
        <mxCell id="IqUMqamfxP47hjbpPgD1-25" value="" style="rounded=0;whiteSpace=wrap;html=1;container=0;" parent="1" vertex="1">
          <mxGeometry x="109" y="510" width="60" height="20" as="geometry" />
        </mxCell>
        <mxCell id="IqUMqamfxP47hjbpPgD1-26" value="" style="rounded=0;whiteSpace=wrap;html=1;container=0;" parent="1" vertex="1">
          <mxGeometry x="109" y="530" width="60" height="20" as="geometry" />
        </mxCell>
        <mxCell id="IqUMqamfxP47hjbpPgD1-27" value="" style="rounded=0;whiteSpace=wrap;html=1;fillColor=#d0cee2;strokeColor=#56517e;container=0;" parent="1" vertex="1">
          <mxGeometry x="109" y="550" width="60" height="20" as="geometry" />
        </mxCell>
        <mxCell id="IqUMqamfxP47hjbpPgD1-28" value="" style="rounded=0;whiteSpace=wrap;html=1;container=0;" parent="1" vertex="1">
          <mxGeometry x="109" y="570" width="60" height="20" as="geometry" />
        </mxCell>
        <mxCell id="IqUMqamfxP47hjbpPgD1-29" value="" style="rounded=0;whiteSpace=wrap;html=1;container=0;" parent="1" vertex="1">
          <mxGeometry x="109" y="590" width="60" height="20" as="geometry" />
        </mxCell>
        <mxCell id="IqUMqamfxP47hjbpPgD1-30" value="" style="rounded=0;whiteSpace=wrap;html=1;container=0;" parent="1" vertex="1">
          <mxGeometry x="269" y="510" width="60" height="20" as="geometry" />
        </mxCell>
        <mxCell id="IqUMqamfxP47hjbpPgD1-31" value="" style="rounded=0;whiteSpace=wrap;html=1;container=0;" parent="1" vertex="1">
          <mxGeometry x="269" y="530" width="60" height="20" as="geometry" />
        </mxCell>
        <mxCell id="IqUMqamfxP47hjbpPgD1-32" value="" style="rounded=0;whiteSpace=wrap;html=1;container=0;" parent="1" vertex="1">
          <mxGeometry x="269" y="550" width="60" height="20" as="geometry" />
        </mxCell>
        <mxCell id="IqUMqamfxP47hjbpPgD1-33" value="" style="rounded=0;whiteSpace=wrap;html=1;container=0;" parent="1" vertex="1">
          <mxGeometry x="269" y="570" width="60" height="20" as="geometry" />
        </mxCell>
        <mxCell id="IqUMqamfxP47hjbpPgD1-34" value="" style="rounded=0;whiteSpace=wrap;html=1;container=0;" parent="1" vertex="1">
          <mxGeometry x="269" y="590" width="60" height="20" as="geometry" />
        </mxCell>
        <mxCell id="IqUMqamfxP47hjbpPgD1-35" value="&lt;font style=&quot;font-size: 12px;&quot;&gt;$$N+1$$&lt;/font&gt;" style="text;html=1;strokeColor=none;fillColor=none;align=center;verticalAlign=middle;whiteSpace=wrap;rounded=0;container=0;" parent="1" vertex="1">
          <mxGeometry x="59" y="545" width="50" height="30" as="geometry" />
        </mxCell>
        <mxCell id="IqUMqamfxP47hjbpPgD1-36" value="Monitor Summary" style="text;html=1;strokeColor=none;fillColor=none;align=center;verticalAlign=middle;whiteSpace=wrap;rounded=0;container=0;" parent="1" vertex="1">
          <mxGeometry x="399" y="470" width="80" height="30" as="geometry" />
        </mxCell>
        <mxCell id="IqUMqamfxP47hjbpPgD1-37" value="Reconstructed Data" style="text;html=1;strokeColor=none;fillColor=none;align=center;verticalAlign=middle;whiteSpace=wrap;rounded=0;container=0;" parent="1" vertex="1">
          <mxGeometry x="689" y="470" width="80" height="30" as="geometry" />
        </mxCell>
        <mxCell id="IqUMqamfxP47hjbpPgD1-38" value="1D-CNN" style="text;html=1;strokeColor=none;fillColor=none;align=center;verticalAlign=middle;whiteSpace=wrap;rounded=0;container=0;" parent="1" vertex="1">
          <mxGeometry x="199" y="500" width="50" height="30" as="geometry" />
        </mxCell>
        <mxCell id="IqUMqamfxP47hjbpPgD1-39" value="" style="endArrow=classic;html=1;rounded=0;" parent="1" edge="1">
          <mxGeometry width="50" height="50" relative="1" as="geometry">
            <mxPoint x="199" y="543.75" as="sourcePoint" />
            <mxPoint x="249" y="543.75" as="targetPoint" />
          </mxGeometry>
        </mxCell>
        <mxCell id="IqUMqamfxP47hjbpPgD1-41" value="PM2.5" style="rounded=1;whiteSpace=wrap;html=1;fillColor=#f8cecc;strokeColor=#b85450;" parent="1" vertex="1">
          <mxGeometry x="519" y="670" width="60" height="40" as="geometry" />
        </mxCell>
        <mxCell id="IqUMqamfxP47hjbpPgD1-44" value="" style="endArrow=classic;html=1;rounded=0;fillColor=#d80073;strokeColor=#A50040;" parent="1" edge="1">
          <mxGeometry width="50" height="50" relative="1" as="geometry">
            <mxPoint x="394" y="567.75" as="sourcePoint" />
            <mxPoint x="344" y="567.75" as="targetPoint" />
          </mxGeometry>
        </mxCell>
        <mxCell id="IqUMqamfxP47hjbpPgD1-45" value="" style="endArrow=classic;html=1;rounded=0;fillColor=#d80073;strokeColor=#A50040;" parent="1" edge="1">
          <mxGeometry width="50" height="50" relative="1" as="geometry">
            <mxPoint x="249" y="568.75" as="sourcePoint" />
            <mxPoint x="199" y="568.75" as="targetPoint" />
          </mxGeometry>
        </mxCell>
        <mxCell id="IqUMqamfxP47hjbpPgD1-46" value="&lt;span style=&quot;font-size: 14px;&quot;&gt;&lt;b&gt;Train-Target&lt;/b&gt;&lt;/span&gt;" style="text;html=1;strokeColor=none;fillColor=none;align=center;verticalAlign=middle;whiteSpace=wrap;rounded=0;" parent="1" vertex="1">
          <mxGeometry x="389" y="420" width="100" height="30" as="geometry" />
        </mxCell>
        <mxCell id="IqUMqamfxP47hjbpPgD1-47" value="Freeze" style="text;html=1;strokeColor=none;fillColor=none;align=center;verticalAlign=middle;whiteSpace=wrap;rounded=0;container=0;" parent="1" vertex="1">
          <mxGeometry x="479" y="555" width="60" height="30" as="geometry" />
        </mxCell>
        <mxCell id="IqUMqamfxP47hjbpPgD1-48" value="Freeze" style="text;html=1;strokeColor=none;fillColor=none;align=center;verticalAlign=middle;whiteSpace=wrap;rounded=0;container=0;" parent="1" vertex="1">
          <mxGeometry x="624" y="555" width="60" height="30" as="geometry" />
        </mxCell>
        <mxCell id="IqUMqamfxP47hjbpPgD1-49" value="Freeze" style="text;html=1;strokeColor=none;fillColor=none;align=center;verticalAlign=middle;whiteSpace=wrap;rounded=0;container=0;" parent="1" vertex="1">
          <mxGeometry x="440" y="640" width="60" height="30" as="geometry" />
        </mxCell>
      </root>
    </mxGraphModel>
  </diagram>
</mxfile>
